<svg width="523" height="419" fill="none" xmlns="http://www.w3.org/2000/svg"><g clip-path="url('#clip0_742_9605')"><path d="M466.142 126.752a463.09 463.09 0 0 0-49.684-8.287 449.777 449.777 0 0 0-49.633-2.793c-14.851-.013-30.125.363-43.76 5.292-12.194 4.415-22.73 13.509-25.429 25.38-.645 2.818-.843 5.783-.434 8.696.41 2.914 1.638 6.322 4.754 8.113 1.476.846 3.256 1.078 4.815.557 1.849-.61 2.861-2.007 3.477-3.62.901-2.353 1.17-4.762 3.21-6.589.741-.664 1.689-1.236 2.79-1.314l-2.251-1.19c2.012 2.858.117 6.501.521 9.551.485 3.73 2.977 7.715 7.661 7.932.805.038 1.818-.378 2.138-1.052 2.083-4.38 4.082-8.8 6.242-13.151.285-.581.611-1.476 1.235-1.828.391-.229.508-.115.834.166 1.443 1.244 1.02 3.242.853 4.762-.233 2.233-.256 4.393 1.066 6.476 1.153 1.805 3.256 3.271 5.598 3.301 5.209.079 7.165-5.825 8.566-9.285 1.258-3.09 3.314-7.681 7.882-7.383l-2.635-2.32c.285 3.139.579 6.281.864 9.421.24 2.599-.022 5.881 1.639 8.238 1.758 2.503 5.128 2.964 7.815 1.836 2.509-1.055 3.87-3.035 4.957-5.218.758-1.511 1.557-3.686 3.781-3.688 2.435-.001 5.243 1.245 7.403 2.263 5.032 2.383 9.25 5.855 12.862 9.767 3.612 3.913 6.494 8.335 9.12 12.8 1.466 2.49 2.971 4.954 4.927 7.196 2.064 2.353 4.599 4.258 7.294 6.001 11.082 7.184 23.458 13.573 36.519 16.96 13.696 3.547 28.212 3.702 41.533.484 3.091-.743 1.622-5.141-1.481-4.392-11.215 2.713-23.303 2.935-34.97.501-12.691-2.641-24.318-8.396-35.206-14.927-2.568-1.543-5.171-3.077-7.433-4.974-2.261-1.896-3.843-4.038-5.299-6.369-2.811-4.486-5.345-9.019-8.776-13.208-3.432-4.188-7.345-7.967-12.02-11.042-2.33-1.526-4.818-2.78-7.453-3.804-2.481-.965-5.295-1.916-7.969-1.738-3.182.219-5.288 2.094-6.625 4.497-.947 1.701-1.589 4.233-3.859 4.916-.358.109-.631.138-.753.041-.243-.194-.322-.53-.385-.806-.363-1.401-.328-2.901-.462-4.325-.321-3.436-.63-6.878-.951-10.313-.114-1.262-1.199-2.226-2.634-2.32-4.703-.306-8.463 2.638-10.522 6.025-1.196 1.959-1.902 4.141-2.802 6.216-.421.971-.899 1.918-1.487 2.798-.337.503-.893 1.503-1.622 1.615-1.183.185-1.606-2.324-1.59-3.126.035-2.249.724-4.482-.097-6.736-.741-2.039-2.495-4.088-4.896-4.725-2.608-.693-4.921.386-6.324 2.207-1.528 1.972-2.35 4.503-3.402 6.713a2562.154 2562.154 0 0 0-3.816 8.048l2.137-1.052c-.847-.04-1.464-.732-1.912-1.702-.62-1.35-.596-2.732-.466-4.113.301-3.151.783-6.345-1.292-9.285-.46-.65-1.364-1.26-2.251-1.19-3.335.234-5.857 1.729-7.722 4.085-.85 1.07-1.45 2.271-1.953 3.507-.463 1.164-.536 2.57-1.139 3.668-.159.273-.346.417-.555.565.116-.08.458.261-.117-.04.298.153-.327-.198-.166-.09-1.083-.695-1.681-2.048-1.947-3.137-.609-2.411-.537-5.067-.119-7.437 1.944-10.997 11.412-19.274 22.44-23.489 12.337-4.71 26.524-5.059 40.049-5.112a451.28 451.28 0 0 1 47.451 2.325 452.707 452.707 0 0 1 52.682 8.555c3.196.711 4.383-3.602 1.167-4.318l.017.014ZM404.99 384.701c-11.565-12.449-21.927-25.745-30.975-39.673-9.048-13.928-16.787-28.47-23.063-43.448a265.134 265.134 0 0 1-8.321-22.731 283.677 283.677 0 0 1-1.754-5.853c-.536-1.855-.906-3.777-1.609-5.602-.745-1.947-2.1-3.631-4.326-4.407-2.062-.715-4.472-.337-6.197.677-4.019 2.338-4.463 7.348-5.412 11.251-.559 2.305-1.118 4.609-1.684 6.902-.26 1.079-.53 2.155-.789 3.233-.126.504-.242 1.01-.367 1.514-.132.529-.467 1.218-.444 1.761.012.308.05.05.407-.096.43-.182.362.226.146-.109-.184-.299-.821-.802-1.057-1.299-.645-1.338-.596-3.046-.673-4.446-.182-3.325.033-6.665-.518-9.995-.551-3.331-1.909-6.885-4.892-9.325-3.371-2.766-8.013-2.87-10.822.123-2.81 2.993-3.492 6.848-4.615 10.418-1.408 4.467-2.807 8.936-4.212 13.394-.689 2.196-1.38 4.4-2.078 6.594l4.218-.879c-2.462-2.487-2.365-6.136-2.414-9.129-.06-3.737-.33-7.363-2.4-10.828-2.071-3.466-5.709-5.673-9.908-5.262-3.697.36-6.304 2.879-7.853 5.67-1.893 3.403-2.582 7.246-3.502 10.963l-1.723 6.966c-.209.851-.336 1.79-.712 2.597-.031.075-.281.49-.276.472-.413 1.02-.22.109-.168.15-.062-.044.573-.005.522.028-.141.092-.61-1.153-.662-1.389-.23-.912-.225-1.873-.285-2.787a56.331 56.331 0 0 1 .037-7.034c.14-2.083.771-4.34-.39-6.352-1.162-2.011-3.495-2.937-5.822-2.593-4.345.642-6.783 4.455-8.562 7.629a36.03 36.03 0 0 0-3.99 11.121c-1.425 7.859-.536 16.092 2.095 23.909 5.488 16.287 18.471 29.955 31.967 41.88 14.787 13.065 30.621 25.584 48.269 35.429a179.445 179.445 0 0 0 6.565 3.485c2.917 1.469 5.356-2.345 2.439-3.814-17.461-8.814-32.93-20.412-47.482-32.739-13.279-11.238-26.582-23.409-34.069-38.412-3.477-6.959-5.416-14.518-5.407-21.957.009-7.439 1.855-14.817 6.619-20.381a5.69 5.69 0 0 1 1.637-1.315c.249-.138.503-.255.779-.339.023-.003.628-.129.437-.088.324-.062.223.115.16.034-.18-.233-.033.75-.043.905-.021 1.096-.207 2.175-.289 3.264a56.329 56.329 0 0 0-.09 6.603c.092 1.932.124 3.967.993 5.809.868 1.841 2.675 3.58 5.109 3.542 2.435-.038 3.925-1.632 4.69-3.484.765-1.852 1.084-3.896 1.553-5.826l1.665-6.749c.759-3.084 1.395-6.22 3.419-8.774 1.35-1.705 3.759-2.823 6.034-1.21 2.615 1.842 3.379 5.479 3.463 8.186.119 3.401-.128 6.899 1.065 10.242.613 1.728 1.605 3.269 2.971 4.64 1.366 1.372 3.741.652 4.218-.878 1.38-4.4 2.767-8.789 4.147-13.19 1.306-4.169 2.41-8.449 3.978-12.53.403-1.059 1.056-2.302 1.901-3.077.772-.702 1.557-1.058 2.803-.301 2.671 1.635 3.609 4.902 3.92 7.511.387 3.194.182 6.38.411 9.569.229 3.189.852 7.27 4.58 9.186 1.953 1.001 4.248.814 5.614-.674 1.438-1.561 1.57-4.164 2.046-6.121 1.081-4.433 2.133-8.874 3.246-13.308.369-1.484.742-3.45 2.194-4.397.953-.626 2.113-.688 2.699.357.844 1.501 1.073 3.395 1.52 4.994a258.01 258.01 0 0 0 9.646 27.897c6.059 14.763 13.495 29.169 22.205 42.979 8.707 13.819 18.713 27.02 29.845 39.466a316.273 316.273 0 0 0 4.083 4.481c.903.971 2.702.894 3.589.121 1.025-.894.811-2.219-.091-3.19l.042.039ZM201.313 290.444c14.59 2.905 29.514 3.853 44.273 2.739 1.266-.098 2.336-.953 2.312-2.236-.025-1.136-1.123-2.344-2.395-2.256-14.342 1.085-28.847.248-43.021-2.574-1.25-.248-2.528.328-2.859 1.555-.299 1.105.442 2.515 1.692 2.763l-.002.009Z" fill="#A19994"/><path d="M350.467 294.393a889.353 889.353 0 0 0 33.24-3.112c9.422-1.07 19.38-2.197 25.912-8.357 6.352-5.986 8.728-14.437 10.262-22.458 1.741-9.161 2.151-18.573 1.819-27.993-.386-10.619-1.682-21.266-3.007-31.886-.142-1.138-1.178-2.135-2.553-2.182-1.255-.041-2.473.881-2.334 2.026 2.243 18.099 4.587 36.5 2.045 54.332-1.108 7.8-2.702 16.193-7.672 22.691-2.289 2.992-5.43 5.251-9.267 6.689-3.838 1.438-8.532 2.081-12.908 2.602-11.854 1.421-23.781 2.548-35.759 3.447-1.301.093-2.397.79-2.334 2.027.049 1.027 1.243 2.272 2.554 2.182l.002-.008Z" fill="#A19994"/><path d="M377.103 280.445c4.602-16.003 1.349-33.167-3.325-49.558-4.674-16.39-9.536-32.707-20.193-47.086-5.587-7.536-12.726-14.325-21.45-19.325-1.376-.788-3.058-.109-3.43 1.083l-22.965 72.208-6.527 20.517c-.783 2.457 3.85 3.68 4.631 1.23l22.965-72.207 6.527-20.517-3.43 1.084c15.137 8.674 24.419 22.812 30.317 36.912 3.279 7.85 5.775 15.88 8.144 23.902 2.369 8.022 4.436 15.947 5.496 24.001 1.186 8.982 1.078 17.977-1.381 26.528-.709 2.477 3.921 3.708 4.63 1.231l-.009-.003ZM298.342 267.359c.437-16.23-1.703-32.645-6.307-48.641-2.27-7.897-5.045-15.77-8.804-23.294-3.758-7.524-8.553-13.723-14.883-19.486-6.331-5.764-13.832-11.312-18.239-18.666-1.577-2.631-5.89-.5-4.324 2.128 3.947 6.593 10.146 11.785 16.102 16.977 2.92 2.554 5.817 5.156 8.383 8.004 2.743 3.052 5 6.456 6.933 9.922 3.968 7.099 6.688 14.745 9.03 22.3 2.342 7.555 4.212 15.604 5.39 23.508a156.856 156.856 0 0 1 1.648 27.131c-.083 2.894 5.001 3.005 5.071.117Z" fill="#A19994"/><path d="M292.541 146.728c-17.842-.122-35.703-.249-53.476.704-8.191.438-16.625.776-24.606 2.399-3.642.745-7.26 1.879-10.432 3.66-3.172 1.781-5.968 4.318-8.229 7.17-4.399 5.545-7.094 12.372-9.289 18.94-2.126 6.386-3.554 12.967-4.35 19.652-1.632 13.668-.604 27.597 2.629 41.211 3.234 13.613 8.668 26.745 15.955 39.021a162.513 162.513 0 0 0 2.827 4.568c1.606 2.495 5.721.373 4.116-2.131-7.479-11.635-13.186-24.129-16.862-37.103-3.667-12.936-5.268-26.298-4.414-39.49a97.911 97.911 0 0 1 3.153-19.113c1.679-6.25 3.942-12.591 7.173-18.328 1.639-2.917 3.595-5.677 6.171-7.953 2.575-2.277 5.562-3.779 8.868-4.795 7.163-2.187 15.051-2.506 22.587-2.999 17.208-1.122 34.528-1.139 51.825-1.034 2.167.011 4.323.029 6.491.04 3.086.018 2.97-4.404-.134-4.427l-.003.008Z" fill="#A19994"/><path d="M212.48 283.6c10.696-15.587 20.268-32.258 25.043-50.476 4.342-16.55 4.118-33.997-1.199-50.663-2.811-8.83-6.985-17.349-12.368-25.164-1.571-2.278-5.399-.282-3.822 2.006 9.245 13.409 14.758 28.872 15.841 44.541 1.227 17.748-3.609 34.994-11.376 50.779-4.586 9.323-10.096 18.196-16.006 26.8-1.516 2.218 2.368 4.368 3.88 2.166l.007.011ZM237.69 155.458c5.849 8.839 9.903 18.404 12.066 28.308.266 1.209 1.954 1.936 3.168 1.675 1.418-.308 1.954-1.508 1.687-2.717-2.236-10.257-6.54-20.231-12.6-29.385-1.708-2.574-6.019-.452-4.323 2.128l.002-.009ZM259.835 198.383c-4.253 22.676-8.516 45.349-12.769 68.025l-3.629 19.307c-.226 1.189.484 2.442 1.886 2.815 1.265.336 2.827-.313 3.053-1.503 4.254-22.676 8.517-45.35 12.77-68.026l3.628-19.306c.226-1.189-.483-2.442-1.886-2.815-1.264-.336-2.827.313-3.053 1.503Z" fill="#A19994"/><path d="M8 36.087c3.834 0 19.938 7.792 43.384 7.792 44.293 0 88.397-17.365 134.1-17.365 26.559 0 102.857-5.402 102.857 37.403-10.941 88.735-107.387 54.423-147.728 70.188-40.34 15.765-45.387 82.353-14.944 94.116 23.772 9.184 72.015-5.143 91.874-20.037" stroke="#A19994" stroke-width="2.782" stroke-linecap="round"/><path d="M44.14 22.661c-.125 1.112-.583 1.975-1.374 2.59-.793.605-1.856.984-3.189 1.138-.808.093-1.543.069-2.204-.073-.66-.141-1.233-.385-1.718-.73a4.032 4.032 0 0 1-1.175-1.354c-.299-.55-.49-1.185-.573-1.907l-.027-.232c-.086-.749-.047-1.428.118-2.04.165-.611.444-1.14.837-1.586.392-.455.894-.822 1.506-1.102.612-.288 1.322-.479 2.13-.572a7.882 7.882 0 0 1 1.894-.01 4.427 4.427 0 0 1 1.543.463 3.44 3.44 0 0 1 1.152.926c.316.39.549.865.7 1.422l-1.393.161a2.597 2.597 0 0 0-.544-.865 2.742 2.742 0 0 0-.831-.636 3.17 3.17 0 0 0-1.085-.346 4.67 4.67 0 0 0-1.31-.019c-.627.073-1.167.23-1.618.474a3.263 3.263 0 0 0-1.099.898c-.28.364-.475.787-.585 1.27a4.702 4.702 0 0 0-.058 1.536c.06.524.194 1.001.4 1.43.215.429.5.788.856 1.078.356.29.781.503 1.276.637.493.126 1.054.153 1.682.08.954-.11 1.72-.38 2.298-.813.585-.442.926-.996 1.024-1.66l1.367-.158Zm2.498-.196.32 2.786-1.199.138-.788-6.836 1.2-.138.34 2.953 4.991-.575-.339-2.94 1.199-.152.788 6.836-1.187.137-.321-2.786-5.005.577Zm11.225-8.273.17 1.483-1.611.186-.171-1.483 1.612-.186Zm3.121 8.37.122 1.058-6.797.783-.122-1.057 3.457-.399-.545-4.72-2.463.284-.123-1.07 3.675-.425.668 5.791 2.128-.245Zm2.097.83.174 1.51-1.2.137-.295-2.566.116-.014c.257-.038.47-.12.638-.243.168-.133.298-.326.39-.581.093-.255.152-.58.176-.974.023-.404.024-.892.001-1.464l-.117-2.718 5.933-.684.666 5.778 1.135-.13.283 2.567-1.2.139-.172-1.496-6.528.739Zm1.209-3.916c.04 1.189-.072 2.103-.338 2.744l4.412-.508-.545-4.721-3.611.416.082 2.069Zm13.196.321c.076.732-.088 1.313-.492 1.743-.394.429-1.013.692-1.856.789l-.438.05c-.843.098-1.518-.016-2.026-.341-.51-.334-.817-.89-.925-1.67-.088-.766.084-1.357.515-1.772.43-.424 1.067-.685 1.91-.782l3.959-.457c-.087-.373-.23-.67-.43-.891-.2-.23-.425-.4-.673-.51a2.178 2.178 0 0 0-.795-.21 3.424 3.424 0 0 0-.758-.004l-.13.015a5.32 5.32 0 0 0-.716.135 3.008 3.008 0 0 0-.7.277c-.222.112-.419.257-.59.434-.171.176-.29.395-.356.655l-1.264.146c.005-.34.09-.66.256-.958.175-.299.414-.566.718-.801a4.214 4.214 0 0 1 1.093-.61 5.66 5.66 0 0 1 1.373-.328l.103-.012c.671-.077 1.252-.066 1.743.034.49.1.905.293 1.242.576.338.284.604.662.798 1.137.194.474.334 1.046.42 1.715l.38 3.302-1.2.139-.37-3.212-1.33.14c.3.323.479.747.54 1.271Zm-4.537.432c.056.412.213.712.47.9.255.18.641.24 1.157.18l.439-.05c.498-.058.852-.203 1.06-.436.209-.234.297-.562.266-.985-.066-.42-.222-.715-.468-.887-.247-.172-.628-.228-1.144-.169l-.438.05c-.516.06-.879.202-1.088.427-.21.224-.294.547-.254.97Zm9.711-1.917.322 2.786-1.2.138-.788-6.836 1.2-.138.34 2.954 4.991-.576-.339-2.94 1.198-.151.788 6.835-1.186.137-.321-2.786-5.005.577Zm15.587-2.41c.064.628.02 1.19-.132 1.687a3.063 3.063 0 0 1-.718 1.26 3.6 3.6 0 0 1-1.222.846 5.635 5.635 0 0 1-1.637.424 5.68 5.68 0 0 1-1.703-.04 3.46 3.46 0 0 1-1.37-.534 3.172 3.172 0 0 1-.96-1.079c-.252-.45-.42-.992-.501-1.628-.074-.636-.039-1.202.105-1.698.142-.504.372-.931.688-1.282a3.51 3.51 0 0 1 1.208-.857 5.48 5.48 0 0 1 1.649-.439 5.815 5.815 0 0 1 1.716.038c.525.096.987.282 1.385.559.405.267.734.63.988 1.088.261.458.43 1.01.504 1.654Zm-7.02.77c.123.926.456 1.58.996 1.962.549.373 1.279.506 2.19.401.912-.105 1.596-.401 2.054-.89.458-.488.641-1.202.55-2.141-.125-.936-.47-1.588-1.036-1.959-.566-.379-1.305-.516-2.217-.41-.911.104-1.587.404-2.026.9-.432.485-.603 1.197-.512 2.136Zm9.533-.446.321 2.786-1.2.138-.787-6.836 1.199-.138.345 2.992 2.941-.339 1.577-3.214 1.405-.162-1.838 3.662 3.078 3.122-1.47.17-2.514-2.534-3.057.353ZM230.862-.56l-2.959 7.374-1.181-.474 3.385-8.434 8.073 3.24-3.386 8.434-1.18-.474 2.959-7.373-5.711-2.293Zm13.718 11.956a2.943 2.943 0 0 1-.898.703c-.339.171-.709.28-1.109.324a4.35 4.35 0 0 1-1.244-.038 6.308 6.308 0 0 1-1.318-.375 5.808 5.808 0 0 1-1.492-.85 3.572 3.572 0 0 1-.972-1.132 3.213 3.213 0 0 1-.355-1.416c-.008-.516.104-1.073.334-1.67.239-.595.543-1.074.913-1.439.382-.369.803-.629 1.265-.78a3.737 3.737 0 0 1 1.519-.159c.543.041 1.1.176 1.67.405.659.264 1.196.587 1.612.969.424.384.723.812.897 1.283.186.467.251.968.194 1.505-.057.537-.235 1.085-.535 1.646l-6.506-2.612c-.205.767-.146 1.42.178 1.96.332.544.892.974 1.679 1.29.578.232 1.124.348 1.637.35.516-.008.955-.163 1.319-.465l1.212.501Zm-2.064-5.417c-.739-.297-1.422-.385-2.049-.263-.616.116-1.112.481-1.489 1.095l5.349 2.147a1.77 1.77 0 0 0 .1-.911 1.94 1.94 0 0 0-.312-.825 2.769 2.769 0 0 0-.665-.714 3.89 3.89 0 0 0-.934-.53Zm6.77 9.699a5.119 5.119 0 0 1-1.505-.885 3.905 3.905 0 0 1-.978-1.26l-1.126 2.808-1.116-.462 3.385-8.434 1.121.45-.375.759c.5-.2 1.034-.299 1.601-.295a4.812 4.812 0 0 1 1.743.364 5.5 5.5 0 0 1 1.431.826c.411.324.729.694.954 1.11.232.42.358.886.376 1.397.03.506-.068 1.054-.296 1.644-.242.602-.548 1.086-.918 1.45a3.23 3.23 0 0 1-1.235.777 3.46 3.46 0 0 1-1.461.155 5.803 5.803 0 0 1-1.601-.405Zm-1.474-4.622c-.169.445-.247.848-.233 1.208.022.363.115.69.278.98.172.292.409.55.711.774.31.227.669.423 1.079.587.402.161.785.264 1.15.308.372.047.714.02 1.024-.079.319-.096.603-.27.854-.524.26-.25.482-.595.667-1.034.169-.445.247-.847.233-1.207a2.055 2.055 0 0 0-.237-.977 2.278 2.278 0 0 0-.67-.772 4.552 4.552 0 0 0-1.043-.573 4.526 4.526 0 0 0-1.191-.31 2.615 2.615 0 0 0-1.065.076 2.148 2.148 0 0 0-.895.522c-.259.25-.48.59-.662 1.021Zm14.806 7.58a2.952 2.952 0 0 1-.898.703c-.339.172-.709.28-1.109.325a4.354 4.354 0 0 1-1.244-.038 6.346 6.346 0 0 1-1.319-.376 5.818 5.818 0 0 1-1.491-.85 3.588 3.588 0 0 1-.973-1.132 3.24 3.24 0 0 1-.355-1.416c-.007-.515.104-1.072.335-1.67.239-.594.543-1.074.913-1.438.381-.37.803-.63 1.264-.78a3.737 3.737 0 0 1 1.519-.16c.544.041 1.1.176 1.671.405.658.265 1.196.588 1.611.97.424.384.724.812.898 1.283.186.466.251.968.194 1.504-.057.537-.236 1.086-.535 1.646l-6.506-2.611c-.206.766-.146 1.42.178 1.96.332.544.892.974 1.679 1.29.578.232 1.124.348 1.636.349.516-.008.956-.162 1.32-.464l1.212.5Zm-2.065-5.417c-.739-.297-1.422-.384-2.049-.263-.615.117-1.112.482-1.488 1.095l5.349 2.148a1.77 1.77 0 0 0 .1-.912 1.954 1.954 0 0 0-.312-.824 2.786 2.786 0 0 0-.665-.715 3.9 3.9 0 0 0-.935-.529Zm6.771 9.699a5.137 5.137 0 0 1-1.506-.884 3.902 3.902 0 0 1-.977-1.26l-1.127 2.807-1.115-.462 3.385-8.434 1.121.45-.375.76c.5-.201 1.034-.3 1.601-.295a4.818 4.818 0 0 1 1.743.363c.546.22 1.023.495 1.431.827.411.323.729.693.953 1.11.233.42.358.885.377 1.396.03.506-.069 1.055-.296 1.644-.242.602-.548 1.086-.918 1.45-.37.365-.782.624-1.235.778a3.465 3.465 0 0 1-1.461.155 5.795 5.795 0 0 1-1.601-.405Zm-1.474-4.621c-.17.445-.247.847-.233 1.207.022.364.114.69.278.98.172.292.408.55.71.774.31.227.67.423 1.08.588.401.16.785.263 1.149.307.373.047.715.021 1.025-.078.318-.096.603-.271.854-.525.259-.25.481-.595.667-1.033.169-.445.247-.848.233-1.208a2.044 2.044 0 0 0-.238-.977 2.263 2.263 0 0 0-.669-.772 4.569 4.569 0 0 0-1.043-.572 4.535 4.535 0 0 0-1.191-.31 2.62 2.62 0 0 0-1.066.075 2.162 2.162 0 0 0-.895.522c-.259.25-.479.591-.661 1.022Zm14.805 7.58a2.951 2.951 0 0 1-.897.703 3.23 3.23 0 0 1-1.11.324 4.35 4.35 0 0 1-1.244-.038 6.337 6.337 0 0 1-1.318-.375 5.821 5.821 0 0 1-1.491-.85 3.575 3.575 0 0 1-.973-1.132 3.227 3.227 0 0 1-.355-1.416c-.007-.516.104-1.073.335-1.67.238-.595.543-1.074.913-1.439.381-.369.803-.629 1.264-.78a3.739 3.739 0 0 1 1.519-.159c.543.041 1.1.176 1.67.405.659.264 1.196.587 1.612.969.424.384.723.812.898 1.283.186.467.25.968.193 1.505-.057.537-.235 1.085-.535 1.646l-6.506-2.612c-.205.767-.145 1.42.179 1.96.332.544.891.974 1.678 1.29.579.232 1.124.349 1.637.35.516-.008.956-.163 1.319-.465l1.212.5Zm-2.064-5.418c-.739-.296-1.422-.384-2.049-.262-.616.116-1.112.481-1.489 1.095l5.35 2.147a1.78 1.78 0 0 0 .1-.911 1.942 1.942 0 0 0-.313-.825 2.764 2.764 0 0 0-.664-.714 3.919 3.919 0 0 0-.935-.53Zm5.033 5.7-1.045 2.603-1.121-.45 2.564-6.386 1.12.45-1.122 2.795 2.747 1.103 2.918-2.075 1.313.527-3.361 2.344 1.219 4.211-1.373-.551-1.004-3.425-2.855-1.146Zm10.844 6.76c-.573.497-1.056.853-1.45 1.068-.394.215-.741.337-1.042.365a1.705 1.705 0 0 1-.853-.104 32.224 32.224 0 0 1-.909-.351l-.108-.044.411-1.024c.297.12.549.211.757.276.207.065.404.083.593.056.196-.024.409-.101.639-.233a7.22 7.22 0 0 0 .859-.606l.108-.097-.771-.31-.924-6.862 1.265.508a951.397 951.397 0 0 0 .544 4.08l.137 1.02c.044.307.079.568.105.784l.057.414 4.627-4.102 1.241.498-5.286 4.663Zm11.188 2.672c-.217.379-.492.679-.823.9a2.78 2.78 0 0 1-1.083.433 3.728 3.728 0 0 1-1.263.01 5.775 5.775 0 0 1-1.389-.375 5.69 5.69 0 0 1-1.479-.845 3.347 3.347 0 0 1-.924-1.113 3.035 3.035 0 0 1-.319-1.401c0-.513.116-1.068.346-1.666.239-.594.535-1.077.889-1.448a3.109 3.109 0 0 1 1.192-.808 3.389 3.389 0 0 1 1.459-.184 5.359 5.359 0 0 1 1.646.395c.474.19.895.42 1.263.688.376.273.684.573.925.903.24.33.404.69.49 1.079.09.38.082.783-.023 1.207l-1.205-.483a1.525 1.525 0 0 0-.042-.73 1.838 1.838 0 0 0-.352-.66 2.84 2.84 0 0 0-.623-.571 4.16 4.16 0 0 0-.841-.45c-.855-.334-1.581-.383-2.179-.147-.599.235-1.082.788-1.449 1.657-.332.874-.36 1.604-.082 2.191.285.59.854 1.056 1.705 1.398.635.255 1.215.353 1.743.294a1.61 1.61 0 0 0 1.225-.753l1.193.479ZM230.574 112.202c-.093-.834-.044-1.571.146-2.211.19-.631.496-1.17.916-1.618a4.374 4.374 0 0 1 1.569-1.05 7.584 7.584 0 0 1 2.097-.521 7.256 7.256 0 0 1 2.162.059 4.811 4.811 0 0 1 1.765.718c.51.352.927.811 1.251 1.375.325.574.533 1.26.622 2.06.091.818.042 1.546-.148 2.186a4.227 4.227 0 0 1-.911 1.669 4.602 4.602 0 0 1-1.561 1.115 7.035 7.035 0 0 1-2.095.547 6.754 6.754 0 0 1-2.165-.085 4.724 4.724 0 0 1-1.769-.757 4.232 4.232 0 0 1-1.255-1.414c-.327-.582-.534-1.273-.624-2.073Zm9.183-1.064c-.066-.593-.215-1.108-.447-1.544a3.254 3.254 0 0 0-.913-1.047 3.652 3.652 0 0 0-1.317-.559 5.42 5.42 0 0 0-1.651-.051 5.29 5.29 0 0 0-1.587.413 3.335 3.335 0 0 0-1.163.822 3.04 3.04 0 0 0-.66 1.223c-.139.477-.174 1.016-.107 1.619.066.593.22 1.112.461 1.555.233.453.54.824.921 1.112.373.298.814.506 1.323.623.502.127 1.05.158 1.644.091a4.911 4.911 0 0 0 1.597-.439 3.339 3.339 0 0 0 1.156-.874c.3-.356.518-.78.655-1.275.128-.493.157-1.049.088-1.669Zm-18.622.641c-.055-.569-.003-1.08.155-1.533a2.99 2.99 0 0 1 .718-1.177 3.81 3.81 0 0 1 1.231-.791 5.946 5.946 0 0 1 1.64-.405 6.242 6.242 0 0 1 1.649.025 3.63 3.63 0 0 1 1.372.474c.403.251.737.589 1.002 1.012.257.433.421.963.491 1.591l.135 1.213c.036.405.05.796.039 1.171a5.361 5.361 0 0 1-.164 1.103c-.1.351-.265.67-.494.957a3.146 3.146 0 0 1-.946.771c-.402.228-.904.406-1.508.534a54.723 54.723 0 0 0-2.546.598c-.617.173-.934.261-.951.263l-.106-1.073c.117-.039.302-.094.556-.166.22-.06.529-.133.929-.221.391-.088.905-.197 1.544-.329.775-.157 1.369-.414 1.782-.774.404-.359.641-.812.71-1.359-.342.29-.751.523-1.228.698-.485.185-1.02.31-1.605.375a6.293 6.293 0 0 1-1.687-.021 3.236 3.236 0 0 1-1.334-.478 2.718 2.718 0 0 1-.931-.967c-.236-.401-.387-.898-.453-1.491Zm7.023-.744c-.11-.833-.431-1.411-.964-1.735-.54-.314-1.266-.42-2.178-.319-.903.101-1.588.36-2.056.778-.475.428-.674 1.064-.597 1.909.103.842.414 1.404.933 1.686.52.29 1.232.385 2.135.284.447-.05.852-.134 1.213-.253.352-.118.648-.281.886-.491a1.88 1.88 0 0 0 .527-.777c.106-.299.14-.66.101-1.082Zm-11.662 7.95-.166-1.484 1.613-.18.166 1.484-1.613.18Zm-3.091-8.382-.118-1.058 6.8-.758.118 1.058-3.458.385.527 4.723 2.464-.275.12 1.071-3.677.41-.647-5.793-2.129.237Zm-2.094-.837-.168-1.51 1.2-.134.286 2.568-.116.013a1.41 1.41 0 0 0-.639.241 1.278 1.278 0 0 0-.393.579 3.57 3.57 0 0 0-.179.974c-.024.403-.027.891-.006 1.464l.107 2.718-5.935.662-.645-5.78-1.136.126-.273-2.569 1.2-.134.167 1.497 6.53-.715Zm-1.223 3.912c-.036-1.19.079-2.104.348-2.743l-4.413.492.527 4.722 3.612-.403-.074-2.068ZM97.65 149.594c-.922-.198-1.524-.633-1.805-1.305-.273-.66-.29-1.549-.05-2.666l1.27-5.902 8.885 1.912-1.193 5.546a8.24 8.24 0 0 1-.392 1.324 2.903 2.903 0 0 1-.566.967 1.69 1.69 0 0 1-.802.518c-.306.102-.674.107-1.106.014-.457-.098-.812-.276-1.066-.535a2.32 2.32 0 0 1-.537-.899c-.286.461-.633.78-1.043.958-.404.187-.935.21-1.595.068Zm4.491-7.48-.901 4.189c-.078.364-.129.68-.151.95a1.75 1.75 0 0 0 .053.676.867.867 0 0 0 .302.45c.151.121.353.209.607.263.254.055.467.052.64-.008a.793.793 0 0 0 .44-.317c.121-.151.222-.355.304-.612.082-.257.16-.559.235-.906l.896-4.163-2.425-.522Zm-4.226-.909-1.003 4.658c-.093.432-.134.79-.125 1.075.018.287.08.518.183.691.112.183.259.321.443.413.181.102.39.178.628.229.245.052.466.073.664.063.197-.011.38-.078.547-.201.169-.123.317-.317.444-.582.126-.256.238-.608.334-1.057l.994-4.62-3.11-.669Zm-2.96 17.641a2.969 2.969 0 0 1-.844-.766 3.233 3.233 0 0 1-.507-1.039 4.352 4.352 0 0 1-.173-1.233 6.32 6.32 0 0 1 .147-1.362c.13-.61.326-1.147.586-1.614.251-.468.569-.851.951-1.15.382-.29.827-.486 1.336-.589.507-.094 1.075-.078 1.703.048.626.135 1.15.354 1.571.657.429.313.756.685.982 1.114.233.44.371.93.414 1.47a5.603 5.603 0 0 1-.116 1.715c-.15.694-.377 1.278-.683 1.752-.307.483-.678.85-1.113 1.102-.429.262-.912.41-1.45.445-.54.034-1.11-.049-1.713-.249l1.475-6.854c-.79-.073-1.424.096-1.902.507-.48.419-.81 1.043-.988 1.872-.13.61-.153 1.167-.067 1.672.094.508.32.915.68 1.222l-.289 1.28Zm4.99-2.95c.168-.779.139-1.467-.086-2.064-.22-.587-.663-1.015-1.331-1.283l-1.213 5.636c.323.061.628.042.915-.056.285-.089.538-.238.76-.447.23-.207.428-.466.592-.775.164-.31.286-.647.364-1.011Zm-1.898 11.972-6.73-1.435.254-1.181 2.25.471.578-2.691a6.17 6.17 0 0 1 .435-1.34c.177-.37.412-.66.705-.871.294-.212.658-.341 1.093-.389.434-.04.96.007 1.577.14l1.346.29-.255 1.18-1.307-.281c-.508-.11-.916-.144-1.226-.105-.3.042-.54.145-.717.311a1.58 1.58 0 0 0-.4.684 11.56 11.56 0 0 0-.251.982l-.5 2.322 3.402.732-.254 1.181Zm-6.866 8.517a2.968 2.968 0 0 1-.845-.766 3.235 3.235 0 0 1-.507-1.039 4.352 4.352 0 0 1-.173-1.233 6.32 6.32 0 0 1 .147-1.362c.132-.61.327-1.147.587-1.614.251-.468.568-.851.951-1.15.381-.29.826-.486 1.335-.589.508-.094 1.075-.078 1.703.048.626.135 1.15.354 1.572.657.428.313.756.685.982 1.114.233.44.371.93.414 1.47a5.61 5.61 0 0 1-.117 1.715c-.149.694-.377 1.278-.682 1.752-.308.483-.679.85-1.114 1.102-.428.262-.911.41-1.45.445-.539.034-1.11-.049-1.713-.249l1.475-6.854c-.79-.073-1.424.096-1.902.507-.48.419-.809 1.043-.987 1.872-.131.61-.154 1.167-.068 1.672.095.508.321.915.68 1.222l-.288 1.28Zm4.99-2.95c.168-.779.139-1.467-.087-2.064-.219-.587-.662-1.015-1.33-1.283l-1.213 5.636c.323.061.628.042.915-.056.284-.089.538-.238.76-.447.23-.207.428-.466.592-.775.164-.31.285-.647.363-1.011Zm-8.415 8.312c.12-.603.326-1.147.617-1.634a3.9 3.9 0 0 1 1.076-1.176l-2.957-.636.267-1.178 8.885 1.912-.255 1.181-.81-.241c.281.459.468.968.56 1.528.09.568.069 1.161-.064 1.779a5.498 5.498 0 0 1-.573 1.55c-.25.46-.56.836-.933 1.127-.374.3-.812.503-1.313.608-.493.115-1.05.11-1.67-.015-.634-.136-1.163-.356-1.584-.659a3.234 3.234 0 0 1-.975-1.086 3.466 3.466 0 0 1-.4-1.415 5.793 5.793 0 0 1 .129-1.645Zm4.305-2.234c-.467-.092-.877-.101-1.23-.026-.354.083-.66.23-.917.44-.26.219-.474.496-.644.831a4.914 4.914 0 0 0-.396 1.163 4.558 4.558 0 0 0-.11 1.185c.017.375.1.708.251.997.148.297.369.548.661.753.291.213.668.374 1.132.482.467.092.877.101 1.23.026.358-.064.666-.197.922-.399.264-.2.48-.463.648-.79a4.56 4.56 0 0 0 .388-1.125 4.53 4.53 0 0 0 .105-1.226 2.626 2.626 0 0 0-.255-1.038 2.16 2.16 0 0 0-.666-.794c-.29-.213-.664-.373-1.119-.479Zm-3.286 10.764-2.117-2.195.311-1.447 2.188 2.423c.215-.423.51-.727.887-.912.385-.182.861-.217 1.43-.103.364.078.665.2.904.367.245.176.435.385.569.627.132.25.21.527.232.833.023.306-.003.633-.078.98l-.997 4.632-6.727-1.447.254-1.181 2.475.533.67-3.11Zm2.43-1.044c-.364-.078-.656-.039-.876.117-.22.165-.372.433-.452.806l-.743 3.452 2.183.47.743-3.452c.079-.364.05-.667-.083-.908-.134-.242-.392-.403-.772-.485ZM122.816 250.505l.143 1.786-1.268.102-.235-2.925.259-.021a1.487 1.487 0 0 0 1.044-.631c.265-.368.468-.815.609-1.338a9.659 9.659 0 0 0 .278-1.729c.045-.628.061-1.233.049-1.814a21.397 21.397 0 0 0-.06-1.571c-.03-.475-.045-.822-.045-1.039l7.196-.577.635 7.92 1.281-.103.235 2.925-1.268.102-.143-1.786-8.71.699Zm2.095-8.139c.016.519.031 1.091.047 1.715.014.615-.005 1.238-.059 1.867a11.39 11.39 0 0 1-.299 1.796 4.616 4.616 0 0 1-.646 1.523l6.199-.497-.544-6.781-4.698.377ZM141.987 247a2.96 2.96 0 0 1-.491 1.029 3.21 3.21 0 0 1-.849.785c-.33.217-.706.391-1.13.52-.424.13-.873.214-1.348.252a5.825 5.825 0 0 1-1.714-.097 3.582 3.582 0 0 1-1.375-.58 3.241 3.241 0 0 1-.948-1.109c-.237-.459-.385-1.007-.445-1.645-.051-.638.008-1.203.177-1.694.177-.501.438-.921.784-1.262a3.752 3.752 0 0 1 1.289-.819 5.59 5.59 0 0 1 1.676-.382c.707-.057 1.332-.007 1.874.149.551.155 1.01.405 1.376.749.374.335.655.755.843 1.261.189.506.274 1.077.255 1.712l-6.988.561c.157.777.502 1.336 1.033 1.675.539.339 1.232.474 2.077.407.621-.05 1.162-.189 1.621-.417.459-.237.783-.571.975-1.003l1.308-.092Zm-4.262-3.93c-.794.064-1.444.289-1.952.677-.499.379-.781.927-.845 1.644l5.746-.461a1.775 1.775 0 0 0-.316-.86 1.946 1.946 0 0 0-.647-.599 2.756 2.756 0 0 0-.914-.344 3.886 3.886 0 0 0-1.072-.057Zm12.899 2.938a2.644 2.644 0 0 1-.336 1.173c-.19.336-.449.626-.777.87a3.74 3.74 0 0 1-1.126.572 5.798 5.798 0 0 1-1.41.282 5.682 5.682 0 0 1-1.701-.098 3.342 3.342 0 0 1-1.323-.584 3.047 3.047 0 0 1-.91-1.112c-.228-.459-.372-1.008-.432-1.646-.051-.638-.001-1.202.151-1.692.151-.498.387-.917.707-1.255a3.388 3.388 0 0 1 1.224-.815 5.355 5.355 0 0 1 1.65-.379 5.754 5.754 0 0 1 1.437.054c.457.076.867.208 1.23.396.362.188.669.437.919.747.25.301.423.665.518 1.091l-1.294.104a1.508 1.508 0 0 0-.364-.635 1.836 1.836 0 0 0-.608-.433 2.8 2.8 0 0 0-.813-.234 4.102 4.102 0 0 0-.953-.028c-.914.082-1.586.362-2.017.839-.43.477-.616 1.187-.558 2.129.092.93.393 1.596.902 1.998.519.401 1.235.565 2.15.492.682-.055 1.245-.226 1.691-.513.446-.288.7-.695.762-1.221l1.281-.102Zm9.84-.49a2.95 2.95 0 0 1-.491 1.029c-.227.305-.51.566-.849.784a4.33 4.33 0 0 1-1.13.521 6.36 6.36 0 0 1-1.348.251 5.79 5.79 0 0 1-1.714-.097 3.567 3.567 0 0 1-1.375-.58 3.223 3.223 0 0 1-.948-1.109c-.237-.458-.385-1.007-.445-1.644-.051-.639.008-1.204.177-1.695.177-.5.438-.921.784-1.261a3.74 3.74 0 0 1 1.289-.82 5.652 5.652 0 0 1 1.676-.382c.707-.056 1.332-.007 1.874.15.551.155 1.01.405 1.376.749.374.335.655.755.844 1.261.188.506.273 1.076.254 1.712l-6.988.56c.158.778.502 1.336 1.033 1.676.539.338 1.232.474 2.077.406.622-.05 1.162-.189 1.621-.416.459-.237.783-.571.975-1.003l1.308-.092Zm-4.262-3.931c-.794.064-1.444.29-1.952.678-.499.379-.781.927-.845 1.644l5.746-.461a1.765 1.765 0 0 0-.316-.86 1.94 1.94 0 0 0-.647-.6 2.78 2.78 0 0 0-.913-.343 3.935 3.935 0 0 0-1.073-.058Zm10.383 5.667a5.12 5.12 0 0 1-1.742-.121 3.906 3.906 0 0 1-1.436-.692l.242 3.015-1.205.084-.727-9.059 1.204-.097.002.847a4.193 4.193 0 0 1 1.303-.978 4.8 4.8 0 0 1 1.722-.45 5.5 5.5 0 0 1 1.649.102c.512.106.962.296 1.348.569.396.272.715.633.96 1.082.252.44.408.975.467 1.604.052.647-.006 1.216-.175 1.707a3.23 3.23 0 0 1-.76 1.246 3.47 3.47 0 0 1-1.239.79 5.794 5.794 0 0 1-1.613.351Zm-3.379-3.48c.046.474.156.869.329 1.185.182.315.41.566.686.752.284.186.611.312.981.377.378.065.788.08 1.228.045.431-.034.82-.113 1.166-.237.355-.124.649-.299.883-.526.242-.228.419-.512.53-.851.121-.339.166-.747.137-1.222-.047-.474-.157-.869-.33-1.185a2.052 2.052 0 0 0-.647-.768 2.26 2.26 0 0 0-.944-.393 4.516 4.516 0 0 0-1.189-.048c-.44.035-.841.119-1.204.253a2.613 2.613 0 0 0-.92.542 2.159 2.159 0 0 0-.569.866c-.12.34-.166.743-.137 1.21Zm12.16-3.281.462 5.759-1.217.097-.462-5.759-3.248.261-.088-1.1 7.687-.617.088 1.1-3.222.259Z" fill="#A19994"/></g><defs><clipPath id="clip0_742_9605"><path fill="#fff" d="M0 0h523v419H0z"/></clipPath></defs></svg>