<svg width="348" height="162" fill="none" xmlns="http://www.w3.org/2000/svg"><path d="M342.973 48.188a164.636 164.636 0 0 0-18.279-3.165 159.448 159.448 0 0 0-18.26-1.067c-5.464-.005-11.083.138-16.1 2.021-4.486 1.687-8.362 5.16-9.355 9.694a9.567 9.567 0 0 0-.16 3.322c.151 1.113.603 2.415 1.749 3.099.543.323 1.198.412 1.772.213.68-.233 1.052-.767 1.279-1.383.331-.899.43-1.819 1.181-2.517.272-.254.621-.472 1.026-.502l-.828-.454c.74 1.091.043 2.483.192 3.648.178 1.425 1.095 2.947 2.818 3.03.297.014.669-.145.787-.402.766-1.673 1.502-3.362 2.296-5.023.105-.222.225-.564.455-.699.143-.087.187-.044.307.064.53.475.375 1.238.313 1.819-.086.853-.094 1.678.393 2.473.424.69 1.197 1.25 2.059 1.261 1.917.03 2.636-2.225 3.151-3.546.463-1.18 1.22-2.934 2.9-2.82l-.969-.887c.105 1.2.213 2.4.318 3.599.088.993-.008 2.246.603 3.146.647.957 1.886 1.133 2.875.702.923-.403 1.423-1.16 1.823-1.993.279-.577.573-1.408 1.392-1.409.896 0 1.929.476 2.723.865 1.851.91 3.403 2.236 4.732 3.73 1.329 1.495 2.389 3.184 3.355 4.889.54.951 1.093 1.892 1.813 2.749.759.898 1.692 1.626 2.683 2.292 4.077 2.744 8.631 5.184 13.436 6.478 5.039 1.355 10.379 1.414 15.28.185 1.137-.284.597-1.964-.545-1.678-4.126 1.036-8.573 1.121-12.865.192-4.669-1.009-8.947-3.207-12.953-5.702-.945-.59-1.902-1.175-2.734-1.9-.832-.724-1.414-1.542-1.95-2.432-1.034-1.714-1.966-3.445-3.229-5.045-1.262-1.6-2.702-3.044-4.422-4.218a14.481 14.481 0 0 0-2.742-1.453c-.913-.369-1.948-.732-2.932-.664-1.17.084-1.945.8-2.437 1.718-.348.65-.584 1.617-1.42 1.878-.131.041-.232.052-.276.015-.09-.074-.119-.202-.142-.308-.134-.535-.121-1.108-.17-1.652-.118-1.312-.232-2.627-.35-3.94-.042-.48-.441-.849-.969-.885-1.731-.117-3.114 1.008-3.871 2.301-.44.749-.7 1.582-1.031 2.375-.155.37-.331.732-.547 1.068-.124.192-.329.574-.597.617-.435.07-.591-.888-.585-1.194.013-.859.266-1.712-.035-2.573-.273-.778-.919-1.561-1.802-1.805-.959-.264-1.81.148-2.326.843-.563.754-.865 1.72-1.252 2.565a939.02 939.02 0 0 0-1.404 3.074l.786-.402c-.311-.015-.538-.28-.703-.65-.228-.516-.219-1.044-.172-1.571.111-1.204.288-2.424-.475-3.547-.169-.248-.502-.481-.828-.455-1.227.09-2.155.661-2.841 1.56-.313.41-.533.868-.719 1.34-.17.445-.197.982-.419 1.401a.638.638 0 0 1-.204.216c.043-.03.169.1-.043-.015.11.059-.12-.076-.061-.034-.398-.266-.618-.783-.716-1.199-.224-.92-.198-1.935-.044-2.84.715-4.2 4.199-7.362 8.256-8.972 4.539-1.8 9.758-1.933 14.734-1.953 5.81-.023 11.642.274 17.457.888a160.892 160.892 0 0 1 19.382 3.268c1.176.271 1.612-1.376.429-1.65l.007.006ZM320.475 146.715a111.105 111.105 0 0 1-11.396-15.153 106.377 106.377 0 0 1-8.485-16.596 103.493 103.493 0 0 1-3.061-8.682 105.2 105.2 0 0 1-.646-2.236c-.197-.708-.333-1.442-.592-2.14-.274-.743-.772-1.386-1.591-1.683-.759-.273-1.646-.129-2.28.258-1.479.893-1.642 2.807-1.991 4.298-.206.88-.411 1.761-.62 2.636-.095.412-.195.823-.29 1.235-.046.193-.089.386-.135.578-.049.203-.172.466-.163.673.004.118.018.019.149-.036.159-.07.134.086.054-.042-.068-.114-.302-.306-.389-.496-.237-.511-.219-1.164-.247-1.698-.067-1.27.012-2.546-.191-3.818-.203-1.272-.702-2.63-1.8-3.562-1.24-1.056-2.948-1.096-3.981.047-1.034 1.143-1.285 2.616-1.698 3.979-.518 1.706-1.033 3.414-1.55 5.116-.253.839-.507 1.681-.764 2.519l1.552-.336c-.906-.95-.871-2.343-.888-3.487-.022-1.427-.122-2.812-.883-4.136-.762-1.324-2.101-2.167-3.645-2.009-1.361.137-2.32 1.099-2.889 2.165-.697 1.3-.951 2.768-1.289 4.188l-.634 2.66c-.077.326-.123.684-.262.992a2.103 2.103 0 0 1-.102.181c-.152.389-.08.041-.061.057-.023-.017.211-.002.192.011-.052.035-.225-.441-.244-.531-.084-.348-.082-.715-.105-1.065-.05-.897-.043-1.793.014-2.686.051-.796.284-1.658-.144-2.426-.427-.769-1.285-1.122-2.141-.991-1.599.245-2.496 1.702-3.15 2.914a14.09 14.09 0 0 0-1.468 4.248c-.524 3.002-.198 6.147.77 9.132 2.02 6.221 6.796 11.442 11.761 15.997 5.44 4.99 11.266 9.772 17.758 13.532.796.46 1.6.905 2.416 1.331 1.073.562 1.97-.895.897-1.456-6.424-3.367-12.115-7.797-17.469-12.505-4.885-4.293-9.779-8.942-12.534-14.672-1.279-2.658-1.992-5.545-1.989-8.387.004-2.842.682-5.659 2.435-7.785.165-.198.371-.375.602-.502.092-.053.185-.097.287-.129.008-.002.231-.05.161-.034.119-.024.082.044.059.013-.067-.089-.012.286-.016.345-.008.419-.076.831-.107 1.247-.057.836-.07 1.678-.033 2.523.034.737.046 1.515.366 2.218.319.703.984 1.368 1.879 1.353.896-.014 1.444-.623 1.726-1.331.281-.707.399-1.488.571-2.225l.613-2.578c.279-1.178.513-2.376 1.257-3.351.497-.651 1.383-1.079 2.22-.462.962.703 1.244 2.093 1.274 3.126.044 1.299-.047 2.635.392 3.913a4.782 4.782 0 0 0 1.093 1.772c.503.524 1.377.249 1.552-.336.508-1.68 1.018-3.357 1.526-5.038.48-1.592.886-3.227 1.463-4.786.149-.404.389-.879.7-1.175.284-.268.572-.404 1.031-.115.982.625 1.328 1.872 1.442 2.869.142 1.22.067 2.437.151 3.655.085 1.218.314 2.777 1.685 3.509.719.382 1.563.311 2.066-.258.529-.596.577-1.59.752-2.338.398-1.693.785-3.389 1.195-5.083.136-.567.273-1.318.807-1.679.35-.239.777-.263.993.136.31.573.395 1.297.559 1.908a100.856 100.856 0 0 0 3.549 10.655 108.479 108.479 0 0 0 8.169 16.417 112.796 112.796 0 0 0 10.98 15.074c.493.574.996 1.144 1.502 1.712.332.371.994.341 1.32.046.378-.342.299-.848-.033-1.219l.016.015ZM245.542 110.712a58.104 58.104 0 0 0 16.288 1.047c.466-.038.859-.364.85-.855-.009-.433-.413-.895-.881-.861a56.423 56.423 0 0 1-15.827-.983c-.46-.095-.93.125-1.052.593-.11.423.163.961.622 1.056v.003Z" fill="#A19994"/><path d="M300.415 112.221c4.093-.319 8.171-.713 12.229-1.189 3.467-.409 7.13-.839 9.534-3.192 2.337-2.286 3.21-5.514 3.775-8.578.64-3.5.791-7.094.669-10.692-.142-4.056-.619-8.123-1.106-12.18a.973.973 0 0 0-.94-.833c-.461-.016-.909.337-.858.774.825 6.913 1.688 13.941.752 20.753-.407 2.979-.994 6.185-2.822 8.667-.842 1.143-1.998 2.006-3.41 2.555-1.412.549-3.139.794-4.748.994-4.362.543-8.75.973-13.156 1.316-.479.036-.882.302-.859.774.018.393.458.868.94.834v-.003Z" fill="#A19994"/><path d="M310.215 106.894c1.693-6.113.496-12.67-1.223-18.93-1.72-6.26-3.509-12.493-7.429-17.985-2.056-2.878-4.682-5.472-7.892-7.382-.506-.3-1.125-.041-1.262.414a3582055.03 3582055.03 0 0 1-10.85 35.418c-.288.938 1.417 1.405 1.704.47l8.449-27.58 2.401-7.838-1.262.414c5.569 3.314 8.984 8.714 11.154 14.1 1.206 2.998 2.124 6.065 2.996 9.13.871 3.063 1.632 6.09 2.022 9.167.436 3.43.397 6.866-.508 10.132-.261.947 1.443 1.417 1.703.47h-.003ZM281.239 101.895c.16-6.2-.627-12.47-2.321-18.579-.835-3.016-1.856-6.024-3.239-8.898-1.382-2.874-3.146-5.241-5.475-7.443-2.329-2.201-5.089-4.32-6.711-7.13-.579-1.004-2.166-.19-1.59.814 1.452 2.518 3.733 4.501 5.924 6.484 1.074.975 2.14 1.97 3.084 3.057 1.009 1.166 1.839 2.466 2.55 3.79 1.46 2.712 2.461 5.632 3.323 8.518a63.334 63.334 0 0 1 1.983 8.979c.493 3.449.693 6.916.606 10.363-.031 1.106 1.84 1.148 1.866.045Z" fill="#A19994"/><path d="M279.105 55.818c-6.565-.047-13.136-.095-19.674.269-3.014.167-6.117.296-9.053.916-1.34.285-2.671.718-3.838 1.398-1.167.68-2.195 1.65-3.027 2.738-1.619 2.119-2.61 4.726-3.418 7.235a39.202 39.202 0 0 0-1.6 7.506c-.601 5.221-.223 10.541.967 15.741 1.19 5.2 3.189 10.216 5.87 14.905.336.587.683 1.166 1.04 1.745.591.953 2.105.142 1.514-.814-2.751-4.444-4.851-9.216-6.203-14.172-1.349-4.941-1.938-10.045-1.624-15.084.153-2.47.542-4.913 1.16-7.3.618-2.388 1.45-4.81 2.639-7 .603-1.115 1.322-2.17 2.27-3.039.947-.87 2.046-1.443 3.262-1.831 2.636-.836 5.538-.957 8.31-1.146 6.331-.428 12.703-.434 19.067-.395l2.388.016c1.135.007 1.093-1.682-.049-1.691l-.001.003Z" fill="#A19994"/><path d="M249.65 108.098c3.935-5.953 7.457-12.32 9.213-19.28 1.598-6.32 1.515-12.985-.441-19.35a37.112 37.112 0 0 0-4.55-9.612c-.578-.87-1.987-.108-1.406.766 3.401 5.121 5.429 11.028 5.828 17.013.451 6.779-1.328 13.366-4.186 19.395-1.687 3.562-3.714 6.951-5.888 10.237-.558.847.871 1.668 1.427.828l.003.003ZM258.925 59.152c2.152 3.376 3.643 7.03 4.439 10.813.098.462.719.74 1.165.64.522-.118.719-.576.621-1.038-.823-3.918-2.406-7.728-4.636-11.224-.628-.983-2.214-.173-1.59.813l.001-.004ZM267.072 75.549l-4.698 25.983-1.335 7.374a.938.938 0 0 0 .694 1.076c.465.128 1.04-.12 1.123-.574 1.565-8.662 3.133-17.322 4.698-25.984l1.335-7.374a.937.937 0 0 0-.694-1.075c-.465-.129-1.04.12-1.123.574Z" fill="#A19994"/><path d="M1 13.614c1.41 0 26.093 8.502 70.933 7.372 64.414-1.623 35.206-13.62 95.969-18.314C217.451.065 268.043 1.268 268.043 17.015c-4.025 32.646-88.429-.845-103.271 4.955-14.841 5.8-7.041 32.338 23.05 48.833 26.499 12.452 52.679 15.647 62.488 14.538" stroke="#A19994" stroke-width="1.024" stroke-linecap="round"/><path d="M39.577 15.09c-.09.401-.292.698-.606.892-.314.19-.718.286-1.211.29-.3.001-.567-.037-.803-.115a1.682 1.682 0 0 1-.6-.335 1.485 1.485 0 0 1-.376-.542 1.918 1.918 0 0 1-.134-.72v-.087c-.002-.277.04-.524.124-.74.085-.218.208-.4.37-.548.16-.15.359-.265.594-.343a2.5 2.5 0 0 1 .802-.124c.254-.002.485.022.693.072.21.05.392.126.546.23.156.1.285.229.384.384.1.156.166.338.2.548l-.516.004a.954.954 0 0 0-.165-.338 1.009 1.009 0 0 0-.279-.266 1.168 1.168 0 0 0-.383-.17 1.722 1.722 0 0 0-.478-.058 1.64 1.64 0 0 0-.61.109 1.2 1.2 0 0 0-.438.284 1.182 1.182 0 0 0-.265.442c-.056.169-.083.355-.082.559.001.194.031.374.09.54a1.196 1.196 0 0 0 .711.711c.176.066.38.098.612.096.354-.002.645-.07.873-.206a.914.914 0 0 0 .44-.567l.507-.003Zm.921.027.007 1.031-.444.003-.017-2.531.444-.003.007 1.093 1.849-.012-.007-1.089.444-.007.017 2.531-.44.003-.007-1.032-1.853.013Zm4.434-2.58.004.55-.597.003-.004-.55.597-.003Zm.81 3.185.002.392-2.517.016-.003-.391 1.28-.009-.011-1.748-.912.006-.003-.396 1.361-.01.014 2.145.788-.005Zm.733.387.004.559-.444.003-.006-.95h.043a.519.519 0 0 0 .243-.065.468.468 0 0 0 .166-.197c.044-.089.078-.205.103-.349.024-.146.044-.325.058-.535l.065-.999 2.197-.014.014 2.14.42-.003.002.95-.444.003-.004-.554-2.417.011Zm.598-1.384c-.032.436-.11.766-.232.99l1.633-.01-.011-1.749-1.338.009-.052.76Zm4.814.642c-.001.27-.084.476-.25.618-.16.14-.397.212-.71.214l-.162.002c-.312.002-.554-.067-.727-.206-.173-.142-.264-.358-.272-.648-.002-.283.084-.492.259-.627.174-.138.417-.208.73-.21l1.465-.01a.723.723 0 0 0-.347-.557.803.803 0 0 0-.283-.108 1.268 1.268 0 0 0-.277-.031h-.048c-.086 0-.175.008-.267.021a1.104 1.104 0 0 0-.5.209.522.522 0 0 0-.156.225l-.468.003a.731.731 0 0 1 .131-.34c.076-.102.174-.19.294-.264a1.55 1.55 0 0 1 .425-.18 2.08 2.08 0 0 1 .515-.065h.038c.248-.002.46.025.636.081s.32.143.431.26c.113.117.195.266.247.447.052.182.08.396.085.645l.008 1.223-.444.002-.008-1.189-.492-.002c.097.13.146.292.147.487Zm-1.677-.023c.004.153.05.27.136.348.087.076.226.113.417.112l.162-.001c.185-.001.32-.04.405-.117.086-.077.131-.194.137-.35-.008-.156-.053-.27-.136-.343-.084-.073-.221-.108-.412-.107l-.162.001c-.191.001-.33.039-.415.112-.086.074-.13.19-.132.345Zm3.628-.315.007 1.032-.444.003-.017-2.532.445-.003.007 1.094 1.848-.012-.007-1.089.444-.008.017 2.532-.44.003-.006-1.032-1.854.012Zm5.797-.262c-.002.232-.04.436-.115.612a1.127 1.127 0 0 1-.313.432 1.322 1.322 0 0 1-.48.26c-.185.06-.39.09-.616.09a2.091 2.091 0 0 1-.622-.081 1.273 1.273 0 0 1-.479-.25 1.168 1.168 0 0 1-.308-.433 1.65 1.65 0 0 1-.12-.615 1.592 1.592 0 0 1 .107-.617 1.16 1.16 0 0 1 .303-.441c.132-.119.291-.208.475-.266.188-.062.395-.094.62-.095.23-.002.439.026.627.082.188.056.35.143.484.26.138.113.244.259.318.437.078.178.117.386.119.625Zm-2.599.002c.01.344.105.597.287.758.186.158.448.236.785.234.338-.002.6-.084.787-.244.187-.16.282-.415.286-.762-.008-.347-.109-.6-.301-.757-.192-.161-.457-.24-.794-.239-.338.003-.597.086-.777.25-.178.16-.268.413-.273.76Zm3.505.216.007 1.032-.444.003-.017-2.532.444-.002.008 1.108 1.089-.008.704-1.112.52-.004-.817 1.267L63.037 16l-.545.003-.819-1.026-1.132.007ZM123.574 18.61l.907 2.778-.445.145-1.038-3.178 3.042-.994 1.038 3.179-.445.145-.907-2.779-2.152.703Zm6.693.13a1.09 1.09 0 0 1-.087.41 1.19 1.19 0 0 1-.236.353c-.1.106-.22.2-.36.284a2.337 2.337 0 0 1-.461.205 2.136 2.136 0 0 1-.621.113 1.32 1.32 0 0 1-.542-.09 1.185 1.185 0 0 1-.434-.315 1.645 1.645 0 0 1-.301-.55 1.538 1.538 0 0 1-.082-.621c.02-.195.078-.367.172-.519a1.38 1.38 0 0 1 .391-.404c.163-.117.352-.21.566-.28.249-.081.476-.117.684-.108a1.2 1.2 0 0 1 .556.15c.163.088.3.214.41.379.111.164.191.361.239.59l-2.452.8c.123.265.294.436.513.511.222.075.482.064.778-.033.218-.07.4-.167.544-.288a.751.751 0 0 0 .263-.442l.46-.146Zm-1.862-1.04c-.279.09-.492.227-.64.41-.146.178-.2.398-.161.66l2.016-.658a.712.712 0 0 0-.471-.44 1.017 1.017 0 0 0-.356-.044c-.129.005-.258.029-.388.072Zm4.201 1.135a1.884 1.884 0 0 1-.634.106 1.437 1.437 0 0 1-.573-.124l.345 1.058-.423.133-1.038-3.178.422-.138.073.302c.094-.174.221-.328.382-.461.164-.134.357-.237.578-.31a2.02 2.02 0 0 1 .599-.104c.192-.006.369.023.531.087.164.064.31.166.436.305.128.136.23.314.305.534.074.227.102.435.084.626a1.192 1.192 0 0 1-.54.9 2.136 2.136 0 0 1-.547.264Zm-1.508-.955c.057.166.131.297.22.396a.825.825 0 0 0 .309.21.962.962 0 0 0 .384.05c.141-.009.289-.039.443-.089.151-.05.284-.111.397-.185a.87.87 0 0 0 .27-.264.74.74 0 0 0 .117-.35 1.14 1.14 0 0 0-.056-.449 1.131 1.131 0 0 0-.22-.395.755.755 0 0 0-.297-.22.839.839 0 0 0-.372-.06 1.665 1.665 0 0 0-.429.086c-.155.05-.291.115-.409.194a.966.966 0 0 0-.283.273.795.795 0 0 0-.129.359c-.014.131.005.28.055.444Zm5.966-1.361a1.091 1.091 0 0 1-.087.41 1.19 1.19 0 0 1-.236.354c-.099.106-.219.2-.36.283-.14.083-.294.152-.46.206a2.14 2.14 0 0 1-.622.113 1.312 1.312 0 0 1-.541-.09 1.186 1.186 0 0 1-.435-.315 1.644 1.644 0 0 1-.3-.55 1.522 1.522 0 0 1-.083-.622c.021-.194.078-.367.173-.518.096-.156.226-.29.39-.404.163-.117.352-.21.567-.28.248-.082.476-.118.683-.108.211.008.396.058.557.15.162.087.299.213.41.378.11.165.19.362.238.59l-2.452.802c.123.264.294.434.514.51.222.075.481.064.778-.033.218-.071.399-.167.544-.288a.755.755 0 0 0 .262-.443l.46-.145Zm-1.862-1.04c-.279.091-.492.228-.64.41-.146.179-.2.399-.161.66l2.016-.658a.72.72 0 0 0-.47-.44 1.023 1.023 0 0 0-.356-.043 1.44 1.44 0 0 0-.389.071Zm4.201 1.135a1.884 1.884 0 0 1-.634.107 1.435 1.435 0 0 1-.573-.125l.346 1.058-.424.134-1.038-3.178.422-.138.074.302c.093-.175.221-.328.382-.461.164-.134.356-.237.577-.31a2.02 2.02 0 0 1 .599-.105c.192-.006.369.024.531.088.165.063.31.165.436.305.128.136.23.313.305.533.074.227.102.436.084.626-.018.19-.073.36-.165.511-.091.15-.216.28-.375.39a2.133 2.133 0 0 1-.547.263Zm-1.508-.954c.058.165.131.297.22.395a.82.82 0 0 0 .31.21.956.956 0 0 0 .383.051c.141-.01.289-.039.443-.09.152-.049.284-.11.397-.184a.873.873 0 0 0 .271-.264.73.73 0 0 0 .116-.35 1.122 1.122 0 0 0-.056-.45 1.13 1.13 0 0 0-.219-.395.758.758 0 0 0-.298-.219.834.834 0 0 0-.371-.06 1.677 1.677 0 0 0-.43.085c-.154.05-.291.116-.409.194a.962.962 0 0 0-.282.274.784.784 0 0 0-.13.358c-.013.132.005.28.055.445Zm5.966-1.361a1.054 1.054 0 0 1-.087.41 1.19 1.19 0 0 1-.236.354c-.099.106-.219.2-.36.283-.14.083-.293.151-.46.206a2.14 2.14 0 0 1-.621.112 1.315 1.315 0 0 1-.542-.09 1.186 1.186 0 0 1-.435-.315 1.644 1.644 0 0 1-.3-.55 1.52 1.52 0 0 1-.082-.621c.02-.194.077-.367.172-.519.096-.155.227-.29.39-.404.163-.116.352-.21.567-.28.248-.081.476-.117.683-.108.211.009.396.059.557.15.163.088.299.214.41.379.111.165.19.361.238.59l-2.452.801c.124.265.295.435.514.51.222.076.481.065.778-.032.218-.072.399-.168.544-.289a.75.75 0 0 0 .262-.442l.46-.145Zm-1.862-1.04c-.278.09-.492.227-.64.41-.146.178-.199.398-.161.66l2.016-.658a.711.711 0 0 0-.47-.44 1.017 1.017 0 0 0-.356-.044 1.44 1.44 0 0 0-.389.072Zm2.766.418.32.98-.422.139-.786-2.407.422-.138.344 1.054 1.036-.339.332-1.274.495-.162-.394 1.456 1.339.899-.518.169-1.092-.729-1.076.352Zm4.655-.656a3.26 3.26 0 0 1-.156.643c-.06.154-.13.27-.208.35a.626.626 0 0 1-.265.172c-.099.036-.212.074-.339.116l-.041.013-.126-.386c.112-.037.205-.07.279-.101a.5.5 0 0 0 .18-.124.635.635 0 0 0 .125-.217c.034-.091.067-.216.099-.374l.008-.053-.291.095-1.882-1.717.477-.155a251.027 251.027 0 0 0 1.117 1.021 43.658 43.658 0 0 1 .495.452l.114.103.335-2.25.468-.152-.389 2.563Zm3.787-1.89a.976.976 0 0 1-.223.826 1.361 1.361 0 0 1-.354.301c-.141.09-.301.164-.48.223a2.085 2.085 0 0 1-.617.11 1.23 1.23 0 0 1-.523-.095 1.12 1.12 0 0 1-.421-.32 1.713 1.713 0 0 1-.296-.551 1.64 1.64 0 0 1-.091-.618c.011-.192.059-.362.145-.51.087-.153.21-.285.367-.397.157-.115.343-.207.558-.277a2.13 2.13 0 0 1 .519-.104c.17-.012.328 0 .474.036.146.036.277.099.393.188a.944.944 0 0 1 .279.346l-.454.148a.56.56 0 0 0-.185-.196.673.673 0 0 0-.255-.102 1.045 1.045 0 0 0-.311-.014c-.11.009-.225.033-.343.072-.32.107-.536.265-.649.473-.113.208-.119.478-.017.81.113.324.278.537.494.637.22.099.491.096.812-.009.239-.078.426-.188.56-.329a.592.592 0 0 0 .168-.502l.45-.147ZM242.393 9.755a2.053 2.053 0 0 1-.301.758c-.138.2-.306.353-.504.463a1.6 1.6 0 0 1-.668.19c-.248.02-.512.002-.793-.055a2.671 2.671 0 0 1-.75-.266 1.765 1.765 0 0 1-.537-.45 1.546 1.546 0 0 1-.282-.624 1.951 1.951 0 0 1 .016-.791c.06-.297.16-.546.299-.748.139-.206.309-.366.508-.482.199-.115.423-.186.672-.213.249-.027.515-.012.795.045.281.058.531.15.749.275.218.126.396.28.533.465.138.184.231.397.28.637.048.241.043.506-.017.796Zm-3.335-.666c-.044.215-.05.412-.018.59.035.177.103.333.201.47.103.135.235.25.398.345.166.093.357.161.572.205.216.044.416.056.602.035.19-.02.356-.072.5-.156.148-.087.271-.204.37-.353.102-.152.176-.337.221-.555a1.53 1.53 0 0 0 .014-.597 1.187 1.187 0 0 0-.196-.493 1.202 1.202 0 0 0-.393-.368 1.69 1.69 0 0 0-.565-.218 1.808 1.808 0 0 0-.609-.027 1.23 1.23 0 0 0-.503.175c-.146.09-.27.215-.374.372-.1.158-.174.35-.22.575Zm6.592 1.883a1.306 1.306 0 0 1-.228.519 1.102 1.102 0 0 1-.385.33 1.397 1.397 0 0 1-.52.138 2.187 2.187 0 0 1-.62-.044 2.274 2.274 0 0 1-.574-.195 1.322 1.322 0 0 1-.427-.321 1.146 1.146 0 0 1-.236-.468 1.443 1.443 0 0 1 .008-.612l.09-.44c.033-.146.073-.284.119-.415.05-.133.11-.255.182-.367.075-.112.169-.204.281-.279.117-.077.256-.131.419-.163.166-.034.362-.04.588-.016.408.04.727.067.959.079l.363.015-.084.388a5.186 5.186 0 0 1-.564-.033c-.147-.013-.34-.033-.578-.06-.289-.032-.526-.01-.711.07a.777.777 0 0 0-.403.395c.153-.063.322-.098.509-.105.191-.01.392.007.604.05.222.045.418.111.589.198.171.084.309.19.412.319.108.126.18.274.217.444.037.167.034.358-.01.573Zm-2.543-.534c-.056.303-.009.542.141.716.154.171.396.29.726.358.328.067.597.054.808-.04.215-.096.356-.296.425-.6.059-.307.014-.538-.136-.696-.149-.16-.387-.274-.715-.341a2.215 2.215 0 0 0-.453-.049.935.935 0 0 0-.366.072.693.693 0 0 0-.272.212.933.933 0 0 0-.158.368Zm4.982-1.464-.11.539-.585-.12.11-.538.585.12Zm.133 3.284-.078.384-2.466-.504.078-.384 1.254.257.35-1.713-.893-.183.079-.388 1.334.272-.43 2.102.772.157Zm.639.53-.112.548-.435-.089.19-.931.042.008a.52.52 0 0 0 .251-.011.464.464 0 0 0 .203-.159c.062-.078.119-.185.173-.32.054-.139.11-.31.168-.512l.27-.964 2.153.44-.429 2.097.412.084-.195.93-.435-.089.111-.543-2.367-.488Zm.87-1.23c-.121.42-.265.727-.432.92l1.601.328.35-1.713-1.31-.268-.209.733ZM165.031 36.171c-.287.195-.555.245-.805.15-.246-.095-.487-.316-.723-.664l-1.25-1.836 2.765-1.881 1.174 1.725c.106.156.19.302.253.44.068.14.106.271.114.397a.617.617 0 0 1-.066.345.767.767 0 0 1-.276.298.762.762 0 0 1-.414.148.855.855 0 0 1-.375-.085.857.857 0 0 1-.01.52c-.052.156-.181.303-.387.443Zm-.852-3.095.887 1.304c.077.113.149.207.215.281.066.075.13.127.193.157.065.033.13.044.197.034a.534.534 0 0 0 .224-.095.44.44 0 0 0 .16-.172.29.29 0 0 0 .027-.198.68.68 0 0 0-.086-.236 3.535 3.535 0 0 0-.181-.293l-.882-1.295-.754.513Zm-1.315.895.986 1.45c.092.134.177.236.255.306a.56.56 0 0 0 .23.126.399.399 0 0 0 .223-.013.842.842 0 0 0 .22-.109.935.935 0 0 0 .185-.16.364.364 0 0 0 .086-.198.56.56 0 0 0-.042-.266 1.77 1.77 0 0 0-.197-.357l-.978-1.437-.968.658Zm3.948 5.266a1.09 1.09 0 0 1-.419.03 1.182 1.182 0 0 1-.405-.128 1.58 1.58 0 0 1-.372-.267 2.33 2.33 0 0 1-.326-.385 2.128 2.128 0 0 1-.281-.566 1.327 1.327 0 0 1-.065-.545c.02-.175.081-.343.182-.505.104-.16.252-.306.445-.442.195-.132.386-.216.574-.252.192-.034.374-.027.546.022.176.05.342.137.497.263.157.124.3.279.427.466.147.216.245.425.293.626a1.2 1.2 0 0 1 .011.577c-.039.18-.122.347-.249.499a1.67 1.67 0 0 1-.501.393l-1.452-2.133c-.219.192-.335.404-.347.636-.01.234.072.48.248.738.129.19.272.337.428.442a.753.753 0 0 0 .498.13l.268.4Zm.481-2.078c-.165-.242-.356-.41-.572-.5-.212-.091-.439-.082-.68.028l1.194 1.754a.714.714 0 0 0 .291-.574 1.028 1.028 0 0 0-.057-.355 1.404 1.404 0 0 0-.176-.353Zm2.706 3.544-2.09 1.428-.25-.367.696-.48-.569-.837a2.231 2.231 0 0 1-.247-.456.82.82 0 0 1-.053-.408.827.827 0 0 1 .174-.39c.099-.126.245-.254.437-.385l.419-.285.25.368-.407.276a1.397 1.397 0 0 0-.339.3.465.465 0 0 0-.099.27c0 .092.027.185.08.28.053.095.119.2.198.316l.492.723 1.058-.72.25.367Zm.526 3.99c-.14.038-.28.048-.418.031a1.195 1.195 0 0 1-.406-.129 1.623 1.623 0 0 1-.372-.266 2.328 2.328 0 0 1-.325-.385 2.13 2.13 0 0 1-.281-.566 1.31 1.31 0 0 1-.065-.545c.019-.175.08-.344.182-.505a1.64 1.64 0 0 1 .445-.442c.194-.133.386-.217.574-.252.192-.034.374-.027.546.022.176.049.341.137.496.262.158.124.3.28.427.467.147.215.245.424.294.626.05.204.054.397.011.576-.039.18-.123.347-.25.5a1.669 1.669 0 0 1-.501.392l-1.451-2.132c-.22.192-.336.404-.348.635-.01.234.073.48.248.739.129.19.272.337.428.442.16.104.326.147.499.129l.267.401Zm.481-2.078c-.165-.242-.355-.409-.572-.5-.212-.09-.438-.081-.679.029l1.193 1.753a.648.648 0 0 0 .217-.258.7.7 0 0 0 .074-.316 1.002 1.002 0 0 0-.056-.354 1.44 1.44 0 0 0-.177-.354Zm.078 4.352a1.886 1.886 0 0 1-.279-.58 1.442 1.442 0 0 1-.04-.585l-.92.627-.246-.37 2.765-1.881.249.367-.27.155c.194.041.377.12.55.238.174.12.327.277.457.469.122.179.211.36.268.546.059.183.08.361.063.534a1.13 1.13 0 0 1-.171.504c-.095.16-.237.308-.428.441a1.54 1.54 0 0 1-.578.255 1.186 1.186 0 0 1-1.014-.269 2.128 2.128 0 0 1-.406-.451Zm.498-1.714c-.143.1-.25.208-.319.32a.815.815 0 0 0-.058.74c.048.132.118.266.209.4.09.132.186.242.288.33a.87.87 0 0 0 .329.186c.117.036.24.041.368.015.131-.023.269-.083.416-.179.143-.1.249-.208.319-.32a.75.75 0 0 0 .128-.348.84.84 0 0 0-.046-.373 1.719 1.719 0 0 0-.201-.389 1.706 1.706 0 0 0-.3-.339.963.963 0 0 0-.341-.195.795.795 0 0 0-.381-.024c-.13.023-.267.082-.411.176Zm2.033 3.607-1.122.007-.307-.45 1.201.032a.725.725 0 0 1-.018-.468c.049-.148.161-.284.335-.407a.919.919 0 0 1 .328-.148.706.706 0 0 1 .311.008c.1.028.194.078.281.15.087.071.167.161.241.27l.981 1.44-2.093 1.425-.25-.367.77-.524-.658-.968Zm.338-.912c-.113.077-.177.165-.191.263-.012.1.021.209.1.325l.731 1.074.679-.462-.731-1.075a.471.471 0 0 0-.263-.208c-.098-.025-.206.002-.325.083ZM207.258 73.823l-.198.628-.446-.14.323-1.03.091.029c.158.04.306.016.443-.071.142-.09.272-.213.393-.373a3.52 3.52 0 0 0 .333-.55c.102-.209.191-.413.267-.613.079-.199.145-.38.196-.544.056-.166.099-.286.129-.36l2.533.796-.876 2.789.451.141-.323 1.03-.447-.14.198-.629-3.067-.963Zm1.837-2.487-.22.591c-.08.212-.173.422-.278.63a4.178 4.178 0 0 1-.35.57c-.126.178-.269.321-.43.43l2.182.686.751-2.387-1.655-.52Zm5.184 3.937c-.086.116-.189.21-.309.283a1.182 1.182 0 0 1-.398.15 1.6 1.6 0 0 1-.457.022 2.33 2.33 0 0 1-.494-.1 2.132 2.132 0 0 1-.571-.27 1.312 1.312 0 0 1-.389-.387 1.2 1.2 0 0 1-.171-.51 1.649 1.649 0 0 1 .076-.622c.07-.225.168-.41.294-.553.129-.147.276-.254.441-.322.169-.07.353-.105.553-.102.2 0 .408.033.624.101.249.078.455.181.619.31a1.2 1.2 0 0 1 .479.991 1.643 1.643 0 0 1-.149.62l-2.461-.774c-.053.287-.013.525.121.714.137.19.355.332.653.425.218.07.422.096.61.082a.754.754 0 0 0 .471-.207l.458.149Zm-.911-1.929c-.279-.088-.532-.1-.759-.038-.222.06-.394.208-.515.444l2.024.636a.715.715 0 0 0-.128-.63 1.018 1.018 0 0 0-.264-.244 1.427 1.427 0 0 0-.358-.168Zm3.994 2.782a.973.973 0 0 1-.661.543 1.375 1.375 0 0 1-.463.04 2.117 2.117 0 0 1-.52-.098 2.09 2.09 0 0 1-.567-.268 1.228 1.228 0 0 1-.37-.382 1.107 1.107 0 0 1-.157-.505 1.694 1.694 0 0 1 .08-.62c.07-.226.165-.411.285-.557a1.136 1.136 0 0 1 .944-.44c.194-.002.399.03.615.099.179.056.34.128.482.216.146.09.268.191.365.305.098.114.168.241.211.382a.951.951 0 0 1 .026.443l-.456-.143a.57.57 0 0 0-.036-.267.68.68 0 0 0-.148-.231 1.05 1.05 0 0 0-.245-.192 1.538 1.538 0 0 0-.321-.141c-.323-.098-.591-.096-.804.008-.213.103-.374.32-.484.649-.097.33-.086.598.032.806.121.208.343.363.665.464.24.075.456.095.648.058a.592.592 0 0 0 .428-.31l.451.141Zm3.424 1.19c-.087.117-.19.211-.31.284a1.18 1.18 0 0 1-.398.15 1.595 1.595 0 0 1-.457.022 2.33 2.33 0 0 1-.494-.1 2.132 2.132 0 0 1-.571-.27 1.314 1.314 0 0 1-.389-.387 1.2 1.2 0 0 1-.171-.51 1.649 1.649 0 0 1 .076-.622c.07-.225.168-.41.294-.553.129-.147.276-.254.441-.322.169-.07.353-.104.553-.102.2 0 .408.033.624.101.249.078.455.182.619.31.166.129.288.277.366.445.081.166.119.348.113.546a1.643 1.643 0 0 1-.149.62l-2.461-.774c-.053.287-.013.525.121.714.138.19.355.332.653.425.218.07.422.096.61.082a.754.754 0 0 0 .471-.207l.459.149Zm-.912-1.928c-.279-.088-.532-.1-.759-.038-.222.06-.394.208-.515.444l2.024.636a.715.715 0 0 0-.128-.63 1.02 1.02 0 0 0-.264-.244 1.43 1.43 0 0 0-.358-.168Zm2.759 3.365a1.884 1.884 0 0 1-.577-.281 1.43 1.43 0 0 1-.394-.434l-.334 1.061-.422-.137 1.002-3.19.424.133-.116.289c.178-.088.371-.139.579-.154a2.02 2.02 0 0 1 1.198.346c.16.108.287.234.381.38.097.148.157.315.178.502.025.185.005.389-.062.612-.072.228-.17.414-.295.558a1.193 1.193 0 0 1-.963.418 2.14 2.14 0 0 1-.599-.103Zm-.672-1.653a1.152 1.152 0 0 0-.051.45c.019.132.062.25.13.351.071.103.166.19.283.264.12.075.257.136.412.185.152.047.296.074.431.08a.866.866 0 0 0 .373-.058.741.741 0 0 0 .299-.217c.088-.099.159-.231.215-.398.049-.168.066-.318.051-.45a.75.75 0 0 0-.115-.35.831.831 0 0 0-.267-.265 1.671 1.671 0 0 0-.399-.18 1.666 1.666 0 0 0-.446-.08.967.967 0 0 0-.389.058.792.792 0 0 0-.313.217c-.088.099-.159.23-.214.393Zm4.6.56-.637 2.027-.428-.135.637-2.027-1.144-.36.122-.387 2.706.85-.121.388-1.135-.357Z" fill="#A19994"/></svg>