<svg aria-hidden="true" style="width:0;height:0;position:absolute;overflow:hidden" xmlns="http://www.w3.org/2000/svg"><defs><symbol id="icon-arrow_down" viewBox="0 0 58 32"><path d="M53.129 2.356 30.641 24.489a2.623 2.623 0 0 1-3.686 0L4.467 2.361a2.64 2.64 0 0 0-3.7 0 2.544 2.544 0 0 0 0 3.642L23.25 28.131a7.92 7.92 0 0 0 11.098 0L56.831 6.003a2.538 2.538 0 0 0 .771-1.824 2.532 2.532 0 0 0-.771-1.824 2.641 2.641 0 0 0-3.701 0z"/></symbol><symbol id="icon-arrow_left" viewBox="0 0 18 32"><path d="M16.291 28.745 4.698 16.966a1.374 1.374 0 0 1 0-1.932L16.289 3.255a1.385 1.385 0 0 0 0-1.938 1.343 1.343 0 0 0-.954-.403 1.336 1.336 0 0 0-.954.403L2.79 13.094a4.146 4.146 0 0 0 0 5.813l11.591 11.777a1.34 1.34 0 0 0 .956.404 1.34 1.34 0 0 0 .956-.404 1.385 1.385 0 0 0 0-1.938z"/></symbol><symbol id="icon-arrow_right" viewBox="0 0 18 32"><path d="m1.999 3.253 11.593 11.779a1.374 1.374 0 0 1 0 1.932L2.001 28.743a1.385 1.385 0 0 0 0 1.938 1.343 1.343 0 0 0 .954.403 1.336 1.336 0 0 0 .954-.403L15.5 18.904a4.146 4.146 0 0 0 0-5.812L3.909 1.315a1.34 1.34 0 0 0-.956-.404 1.344 1.344 0 0 0-.956.404 1.385 1.385 0 0 0 0 1.938z"/></symbol><symbol id="icon-arrow_up" viewBox="0 0 60 32"><path d="M4.654 30.213 28.079 7.158a2.728 2.728 0 0 1 3.84 0l23.425 23.05a2.75 2.75 0 0 0 3.855 0 2.648 2.648 0 0 0 0-3.796l-23.42-23.05a8.249 8.249 0 0 0-11.56 0L.799 26.412a2.647 2.647 0 0 0 0 3.8 2.751 2.751 0 0 0 3.856 0z"/></symbol><symbol id="icon-burger" viewBox="0 0 32 32"><path d="M27.167 9.333a.498.498 0 0 1-.5.5H5.334a.498.498 0 0 1-.5-.5.498.498 0 0 1 .5-.5h21.333a.498.498 0 0 1 .5.5zm0 6.667a.498.498 0 0 1-.5.5H5.334a.498.498 0 0 1-.5-.5.5.5 0 0 1 .5-.5h21.333a.498.498 0 0 1 .5.5zm0 6.667a.498.498 0 0 1-.5.5H5.334a.498.498 0 0 1-.5-.5.5.5 0 0 1 .5-.5h21.333a.498.498 0 0 1 .5.5z"/></symbol><symbol id="icon-chimney_first" viewBox="0 0 24 32"><path d="M22.488 26.993c.059-1.66.023-3.32-.106-4.972s-.347-3.264-.66-4.868c-.281-1.442-.609-2.918-1.365-4.152-.677-1.104-1.796-1.963-3.046-2.01-.297-.012-.6.023-.887.115s-.607.273-.729.608a.571.571 0 0 0 .035.477c.097.168.257.242.432.272.255.045.503.028.726.193.081.06.157.142.186.247l.078-.24c-.251.247-.654.129-.955.223-.367.114-.723.428-.656.887.011.079.073.17.147.188.482.123.966.238 1.447.369.064.017.161.033.208.087.031.034.021.047-.001.084-.098.162-.308.157-.465.169-.23.018-.449.054-.634.22-.161.145-.269.375-.227.603.091.507.724.59 1.1.664.336.066.839.183.895.632l.184-.298-.935.254c-.258.07-.594.104-.801.308-.22.216-.202.551-.037.792.154.225.38.321.621.387.167.046.402.085.444.3.046.236-.026.531-.088.759-.145.531-.416 1.003-.742 1.425s-.719.781-1.12 1.116a4.657 4.657 0 0 0-.633.608 3.36 3.36 0 0 0-.468.816c-.515 1.205-.926 2.522-1.02 3.851a8.25 8.25 0 0 0 .739 4.04c.134.287.55.065.415-.223a7.64 7.64 0 0 1-.714-3.385c.026-1.279.387-2.512.839-3.686.107-.277.213-.557.361-.811s.335-.446.543-.629c.4-.354.81-.682 1.167-1.09s.665-.857.887-1.366c.11-.254.189-.518.243-.792.05-.258.093-.549.024-.805-.082-.305-.312-.475-.58-.562-.19-.061-.458-.078-.57-.286-.018-.033-.026-.059-.018-.072.015-.027.047-.041.074-.052.135-.061.287-.084.428-.123l1.024-.278c.125-.034.202-.157.184-.298-.058-.462-.427-.774-.808-.913-.221-.081-.454-.11-.681-.16a1.859 1.859 0 0 1-.311-.094c-.057-.024-.169-.059-.194-.128-.041-.111.204-.198.286-.211.228-.037.466-.011.679-.131.192-.109.366-.316.384-.56a.58.58 0 0 0-.343-.574c-.228-.113-.499-.147-.743-.209l-.885-.225.147.188c-.012-.083.046-.155.136-.216a.815.815 0 0 1 .407-.119c.324-.028.656-.039.913-.293.057-.056.101-.155.078-.24a1.042 1.042 0 0 0-.559-.676 1.477 1.477 0 0 0-.391-.126c-.126-.024-.27-.006-.392-.044a.167.167 0 0 1-.068-.044c.01.01-.018.049.002-.012-.01.032.014-.035.006-.018.05-.118.175-.2.28-.246a1.94 1.94 0 0 1 .749-.146c1.148-.01 2.164.76 2.799 1.754.71 1.113 1.014 2.483 1.277 3.795a42.86 42.86 0 0 1 .802 9.916c-.011.323.447.361.458.035l-.001.002zM1.012 4.227C.986 5.82 2.575 15.863 2.959 17.393c.033.131.139.226.269.198.114-.026.217-.165.184-.298-.373-1.486-1.966-11.483-1.94-13.03.002-.136-.08-.259-.21-.269a.245.245 0 0 0-.249.234h-.001z"/><path d="M3.133 18.554a84.29 84.29 0 0 0 1.028 3.293c.312.93.641 1.913 1.446 2.458.783.53 1.751.614 2.655.621 1.032.007 2.064-.125 3.081-.332 1.147-.234 2.277-.561 3.405-.89a.262.262 0 0 0 .184-.298c-.022-.127-.147-.233-.269-.198-1.921.559-3.873 1.135-5.865 1.207-.871.032-1.817.026-2.626-.355-.373-.175-.684-.45-.919-.811s-.403-.822-.551-1.253c-.4-1.169-.77-2.35-1.116-3.541-.037-.129-.136-.227-.269-.198-.111.024-.221.167-.184.298h.001z"/><path d="M4.332 21.086c1.905.175 3.772-.485 5.52-1.279s3.485-1.605 4.877-2.98c.73-.721 1.342-1.589 1.717-2.587a.25.25 0 0 0-.196-.335l-8.644-1.019-2.456-.29c-.294-.035-.332.468-.039.503l8.644 1.019 2.456.29-.196-.335c-.652 1.732-2.047 2.961-3.51 3.838-.815.488-1.667.898-2.521 1.294s-1.704.76-2.59 1.022c-.988.292-2.005.451-3.023.357-.295-.027-.334.476-.039.503v-.001z"/><path d="M5.1 13.242a16.898 16.898 0 0 0 4.793-1.49c.755-.363 1.497-.774 2.186-1.275s1.224-1.078 1.686-1.796c.462-.718.88-1.547 1.539-2.107.236-.2-.061-.581-.297-.381-.591.502-.998 1.197-1.409 1.869-.202.33-.41.658-.649.958a5.436 5.436 0 0 1-.871.852c-.642.513-1.362.915-2.081 1.279s-1.496.69-2.272.947c-.887.293-1.793.509-2.709.649-.294.044-.209.54.085.494z"/><path d="M17.133 11.043c-.326-1.834-.652-3.67-1.087-5.476-.2-.832-.395-1.692-.713-2.479-.146-.359-.331-.709-.574-1s-.557-.529-.893-.706c-.653-.344-1.405-.488-2.122-.586A10.39 10.39 0 0 0 9.643.731c-1.435.098-2.846.474-4.183 1.07S2.877 3.21 1.755 4.196c-.141.124-.278.25-.416.379-.226.213.07.595.297.381a14.539 14.539 0 0 1 3.491-2.451 12.29 12.29 0 0 1 3.972-1.22c.672-.083 1.349-.098 2.023-.047s1.368.16 2.018.38c.331.112.651.259.934.479s.494.498.661.817c.361.693.543 1.496.737 2.26.442 1.745.772 3.522 1.089 5.3l.119.667c.057.317.509.219.452-.1h-.001z"/><path d="M1.38 5.01c1.925.857 3.945 1.567 6.039 1.712 1.902.133 3.811-.26 5.531-1.2a10.757 10.757 0 0 0 2.51-1.901c.218-.222-.078-.604-.297-.381-1.284 1.307-2.868 2.243-4.565 2.694-1.921.51-3.91.337-5.797-.191-1.115-.312-2.199-.735-3.261-1.209-.274-.121-.431.354-.159.476l-.001.001zM15.185 5.994a8.617 8.617 0 0 1-2.63 1.682c-.117.048-.158.225-.109.338.058.132.189.162.306.115.994-.402 1.919-1 2.729-1.753.228-.212-.069-.592-.297-.381h.001zM11.042 8.315c-2.371-.004-4.742-.009-7.114-.012l-2.019-.004a.247.247 0 0 0-.249.234c-.01.129.085.269.21.269 2.371.004 4.742.009 7.114.012l2.019.004a.247.247 0 0 0 .249-.234c.01-.129-.085-.269-.21-.269z"/></symbol><symbol id="icon-chimney_hand" viewBox="0 0 30 32"><path style="fill:var(--color1,#000)" d="M12.267 10.705c-.185-.875-.357-1.755-.537-2.633 0-.024-.019-.052-.013-.069.028-.056.062-.108.092-.161.043.041.11.073.12.12.067.288.12.579.176.86.099.493.202.983.294 1.476.024.129.09.155.215.159 1.243.076 2.49.038 3.726-.112.762-.112 1.518-.262 2.276-.402.7-.129 1.4-.269 2.1-.394.062-.011.18.032.195.077.043.125-.075.136-.161.151-1.029.191-2.064.361-3.088.579a19.529 19.529 0 0 1-4.641.344c-.155 0-.307-.013-.46-.019a.351.351 0 0 0-.064.024zm3.647 11.218a29.203 29.203 0 0 0 1.832 3.622 12.298 12.298 0 0 0 2.231 2.839 4.72 4.72 0 0 0 1.624 1.013 2.657 2.657 0 0 0 2.603-.445 6.44 6.44 0 0 0 1.742-2.179 17.948 17.948 0 0 0 1.447-3.721c.46-1.662.805-3.352 1.035-5.061.103-.746.185-1.506.275-2.25a.214.214 0 0 0-.032-.142c-.035.088-.078.176-.105.267a7.434 7.434 0 0 1-1.233 2.336 15.194 15.194 0 0 1-2.393 2.476 28.007 28.007 0 0 1-5.878 3.766 7.622 7.622 0 0 1-.921.357 1.087 1.087 0 0 1-.402.019c-.039 0-.09-.067-.101-.112s.062-.097.095-.095c.644.017 1.147-.34 1.677-.604a25.612 25.612 0 0 0 4.109-2.517 23.55 23.55 0 0 0 2.064-1.721c.745-.714 1.476-1.454 1.995-2.366a8.164 8.164 0 0 0 .767-1.643c.097-.32.215-.635.331-.951.043-.089.092-.175.148-.256l-.041-.021c-.324.23-.644.462-.973.688a9.416 9.416 0 0 1-2.706 1.31c-.621.183-1.231.413-1.862.536-.902.172-1.811.346-2.738.273-.623-.049-1.248-.093-1.864-.179-.644-.09-1.289-.228-1.946-.348-.107-.019-.215-.082-.142-.202s.174-.222.292-.299c.406-.26.816-.516 1.237-.749.698-.381 1.417-.721 2.109-1.112a16.785 16.785 0 0 0 3.316-2.51 20.619 20.619 0 0 0 2.974-3.676c.501-.77.975-1.559 1.422-2.366.4-.657.691-1.375.859-2.125.023-.129.028-.293.2-.351.017 0 .026-.062.024-.092 0-.325-.028-.645-.043-.979-.146.14-.281.271-.43.4-.722.645-1.574 1.093-2.44 1.506a20.348 20.348 0 0 1-3.883 1.338 66.453 66.453 0 0 1-3.234.753c-.876.174-1.77.26-2.652.413-1.05.181-2.094.398-3.142.587-.301.054-.608.062-.913.099-.174.019-.346.06-.52.075a.548.548 0 0 1-.195-.052c.039-.056.062-.136.114-.159a.85.85 0 0 1 .324-.08 10.31 10.31 0 0 0 1.868-.252c1.617-.284 3.239-.548 4.86-.815a36.686 36.686 0 0 0 3.814-.891c1.392-.387 2.77-.819 4.04-1.527.554-.308 1.074-.669 1.613-1.015a3.98 3.98 0 0 0 .356-.318.924.924 0 0 0 .286-.981.966.966 0 0 0-.361-.454 2.617 2.617 0 0 0-1.602-.527c-.936 0-1.875-.058-2.809.075a19.592 19.592 0 0 0-3.672.86c-.595.215-1.211.368-1.783.624-1.37.615-2.755 1.207-4.033 2.005-.644.4-1.259.841-1.632 1.532-.155.288-.305.576-.215.925 0 .039-.052.099-.077.151-.049-.037-.135-.071-.137-.108a2.168 2.168 0 0 1 .032-.658 3.077 3.077 0 0 1 .986-1.377c.7-.569 1.469-1.048 2.289-1.424.947-.462 1.888-.949 2.867-1.334 1.43-.567 2.91-.999 4.42-1.291a16.366 16.366 0 0 1 3.997-.2 2.57 2.57 0 0 1 1.802.824c.144.151.228.35.234.559.054 1.506.135 3.011.161 4.532a89.657 89.657 0 0 1-.021 4.431 70.609 70.609 0 0 1-.284 4.564 45.571 45.571 0 0 1-1.074 6.92 20.644 20.644 0 0 1-1.598 4.547 7.518 7.518 0 0 1-1.744 2.366c-.466.424-1.048.7-1.671.791a3.259 3.259 0 0 1-2.214-.561c-.971-.62-1.718-1.473-2.373-2.398a23.707 23.707 0 0 1-2.392-4.345l-.097-.215zM12.501 10.72l.037.159-.037-.159zm14.751 4.58c.459-.28.9-.591 1.319-.929.083-.06.169-.116.258-.168.259-3.432.308-6.876.146-10.314-.011.006-.021.014-.029.024s-.013.022-.016.034c-.099.645-.397 1.196-.67 1.764a22.854 22.854 0 0 1-1.735 2.921c-1.084 1.587-2.292 3.076-3.782 4.302a19.656 19.656 0 0 1-3.359 2.246c-.754.396-1.551.721-2.24 1.235-.079.06-.17.108-.292.185l.236.067a21.86 21.86 0 0 0 3.221.43c1.044.088 2.06-.099 3.069-.288.567-.134 1.126-.3 1.673-.499l.26-.084zm-1.942.925a9.91 9.91 0 0 0 1.942-.925l-1.942.925z"/><path fill="none" stroke="#231f20" style="stroke:var(--color2,#231f20)" stroke-miterlimit="10" stroke-width=".623" d="M12.267 10.705c-.185-.875-.357-1.755-.537-2.633 0-.024-.019-.052-.013-.069.028-.056.062-.108.092-.161.043.041.11.073.12.12.067.288.12.579.176.86.099.493.202.983.294 1.476.024.129.09.155.215.159 1.243.076 2.49.038 3.726-.112.762-.112 1.518-.262 2.276-.402.7-.129 1.4-.269 2.1-.394.062-.011.18.032.195.077.043.125-.075.136-.161.151-1.029.191-2.064.361-3.088.579a19.529 19.529 0 0 1-4.641.344c-.155 0-.307-.013-.46-.019a.351.351 0 0 0-.064.024m3.417 11.218a29.203 29.203 0 0 0 1.832 3.622 12.298 12.298 0 0 0 2.231 2.839 4.72 4.72 0 0 0 1.624 1.013 2.657 2.657 0 0 0 2.603-.445 6.44 6.44 0 0 0 1.742-2.179 17.948 17.948 0 0 0 1.447-3.721c.46-1.662.805-3.352 1.035-5.061.103-.746.185-1.506.275-2.25a.214.214 0 0 0-.032-.142c-.035.088-.078.176-.105.267a7.434 7.434 0 0 1-1.233 2.336 15.194 15.194 0 0 1-2.393 2.476 28.007 28.007 0 0 1-5.878 3.766 7.622 7.622 0 0 1-.921.357 1.087 1.087 0 0 1-.402.019c-.039 0-.09-.067-.101-.112s.062-.097.095-.095c.644.017 1.147-.34 1.677-.604a25.612 25.612 0 0 0 4.109-2.517 23.55 23.55 0 0 0 2.064-1.721c.745-.714 1.476-1.454 1.995-2.366a8.164 8.164 0 0 0 .767-1.643c.097-.32.215-.635.331-.951.043-.089.092-.175.148-.256l-.041-.021c-.324.23-.644.462-.973.688a9.416 9.416 0 0 1-2.706 1.31c-.621.183-1.231.413-1.862.536-.902.172-1.811.346-2.738.273-.623-.049-1.248-.093-1.864-.178-.644-.09-1.289-.228-1.946-.348-.107-.019-.215-.082-.142-.202s.174-.222.292-.299c.406-.26.816-.516 1.237-.749.698-.381 1.417-.721 2.109-1.112a16.785 16.785 0 0 0 3.316-2.51 20.619 20.619 0 0 0 2.974-3.676c.501-.77.975-1.559 1.422-2.366.4-.657.691-1.375.859-2.125.023-.129.028-.293.2-.351.017 0 .026-.062.024-.092 0-.325-.028-.645-.043-.979-.146.14-.281.271-.43.4-.722.645-1.574 1.093-2.44 1.506a20.348 20.348 0 0 1-3.883 1.338 66.453 66.453 0 0 1-3.234.753c-.876.174-1.77.26-2.652.413-1.05.181-2.094.398-3.142.587-.301.054-.608.062-.913.099-.174.019-.346.06-.52.075a.548.548 0 0 1-.195-.052c.039-.056.062-.136.114-.159a.85.85 0 0 1 .324-.08 10.31 10.31 0 0 0 1.868-.252c1.617-.284 3.239-.548 4.86-.815a36.686 36.686 0 0 0 3.814-.891c1.392-.387 2.77-.819 4.04-1.527.554-.308 1.074-.669 1.613-1.015a3.98 3.98 0 0 0 .356-.318.924.924 0 0 0 .286-.981.966.966 0 0 0-.361-.454 2.617 2.617 0 0 0-1.602-.527c-.936 0-1.875-.058-2.809.075a19.592 19.592 0 0 0-3.672.86c-.595.215-1.211.368-1.783.624-1.37.615-2.755 1.207-4.033 2.005-.644.4-1.259.841-1.632 1.532-.155.288-.305.576-.215.925 0 .039-.052.099-.077.151-.049-.037-.135-.071-.137-.108a2.168 2.168 0 0 1 .032-.658 3.077 3.077 0 0 1 .986-1.377c.7-.569 1.469-1.048 2.289-1.424.947-.462 1.888-.949 2.867-1.334 1.43-.567 2.91-.999 4.42-1.291a16.366 16.366 0 0 1 3.997-.2 2.57 2.57 0 0 1 1.802.824c.144.151.228.35.234.559.054 1.506.135 3.011.161 4.532a89.657 89.657 0 0 1-.021 4.431 70.609 70.609 0 0 1-.284 4.564 45.571 45.571 0 0 1-1.074 6.92 20.644 20.644 0 0 1-1.598 4.547 7.518 7.518 0 0 1-1.744 2.366c-.466.424-1.048.7-1.671.791a3.259 3.259 0 0 1-2.214-.561c-.971-.62-1.718-1.473-2.373-2.398a23.707 23.707 0 0 1-2.392-4.345l-.097-.215M12.501 10.72l.037.159M27.252 15.3c.459-.28.9-.591 1.319-.929.083-.06.169-.116.258-.168.259-3.432.308-6.876.146-10.314-.011.006-.021.014-.029.024s-.013.022-.016.034c-.099.645-.397 1.196-.67 1.764a22.854 22.854 0 0 1-1.735 2.921c-1.084 1.587-2.292 3.076-3.782 4.302a19.656 19.656 0 0 1-3.359 2.246c-.754.396-1.551.721-2.24 1.235-.079.06-.17.108-.292.185l.236.067a21.86 21.86 0 0 0 3.221.43c1.044.088 2.06-.099 3.069-.288.567-.134 1.126-.3 1.673-.499l.26-.084a9.91 9.91 0 0 0 1.942-.925z"/><path fill="#010101" style="fill:var(--color3,#010101)" d="M3.666 31.862a37.794 37.794 0 0 1 10.109-8.432 36.989 36.989 0 0 1 3.707-1.848c.243-.107.5-.193.737-.32a.879.879 0 0 0 .497-.626.9.9 0 0 0-.262-.744c-.43-.43-1.145-.387-1.718-.417l-1.007-.056-.47-.028-.215-.011a1.307 1.307 0 0 0-.258-.017c-.043 0 0 0 .026.049s-.021.049.019.015c.041-.034.088-.118.15-.157a1.81 1.81 0 0 1 .601-.181c.464-.07.924-.164 1.379-.282a2.033 2.033 0 0 0 1.164-.802.913.913 0 0 0-.31-1.322c-.494-.28-1.048-.277-1.576-.338l-1.978-.215-.975-.11.236.497c.279-.355.79-.43 1.205-.495a3.091 3.091 0 0 0 1.443-.529 1.177 1.177 0 0 0 .464-1.329 1.43 1.43 0 0 0-1.003-.839 6.95 6.95 0 0 0-1.619-.189l-1.018-.06a2.197 2.197 0 0 1-.38-.03l-.073-.024c-.155-.028-.021-.026-.026-.017s.015.069 0 .065c-.015-.004.144-.101.174-.112.124-.042.251-.074.38-.095.324-.069.652-.118.982-.148.294-.03.625 0 .874-.187a.648.648 0 0 0 .202-.77c-.215-.518-.803-.733-1.289-.882a5.75 5.75 0 0 0-1.658-.247 7.475 7.475 0 0 0-3.271.777c-2.12 1.028-3.67 2.917-4.965 4.831-1.417 2.095-2.732 4.302-3.623 6.685-.11.293-.215.585-.307.88-.127.389.47.607.597.215.758-2.342 1.944-4.491 3.275-6.543 1.205-1.871 2.538-3.766 4.424-5.012a7.392 7.392 0 0 1 2.91-1.14c1.037-.161 2.113-.095 3.017.368a.816.816 0 0 1 .297.26l.024.052c.017.037 0 .028 0 .019s-.105.013-.127.015c-.155.021-.309.021-.464.034-.309.03-.616.073-.921.133a2.32 2.32 0 0 0-.782.247.68.68 0 0 0-.354.704.708.708 0 0 0 .612.499c.285.041.572.063.859.065l.986.056c.449-.008.895.069 1.314.228.273.129.494.4.333.714-.187.359-.672.533-1.046.602-.47.088-.964.133-1.398.353-.22.111-.413.27-.565.465a.32.32 0 0 0-.023.316.326.326 0 0 0 .258.182l1.948.215c.616.071 1.241.112 1.853.215.169.023.332.08.479.166a.25.25 0 0 1 .134.142c.011.032.015.066.013.099s-.012.066-.029.096c-.155.363-.584.549-.939.645-.43.118-.885.161-1.321.26s-.99.262-1.155.761a.552.552 0 0 0 .245.674c.258.142.623.101.908.116.644.037 1.289.069 1.933.108a1.1 1.1 0 0 1 .672.174c.112.103.152.243.024.338a3.293 3.293 0 0 1-.655.295c-.249.108-.498.215-.745.329-.979.445-1.933.933-2.878 1.46a38.318 38.318 0 0 0-10.581 8.772.323.323 0 0 0-.052.238.335.335 0 0 0 .132.206.297.297 0 0 0 .114.049c.041.009.083.01.124.002s.08-.023.116-.046a.307.307 0 0 0 .089-.087h-.004z"/></symbol><symbol id="icon-chimney_second" viewBox="0 0 35 32"><path d="M32.777 27.137a39.196 39.196 0 0 0-.893-9.619c-.311-1.411-.673-2.855-1.493-4.066-.734-1.083-1.938-1.93-3.278-1.986-.318-.014-.643.018-.949.106s-.649.262-.777.588a.518.518 0 0 0 .041.467c.105.165.277.238.465.269.273.046.539.031.78.194.087.059.169.14.201.243l.081-.234c-.267.239-.7.121-1.021.211-.393.109-.771.413-.696.861.013.077.079.166.159.185.517.124 1.037.239 1.553.371.069.017.172.033.224.086.033.033.023.046 0 .082-.104.158-.329.152-.497.161-.246.016-.48.05-.677.211-.171.14-.285.364-.239.587.101.496.78.582 1.184.656.36.067.9.185.964.624l.195-.289-1 .241c-.276.067-.636.097-.856.295-.234.209-.212.537-.034.773.167.22.41.316.668.383.179.046.431.086.478.297.051.231-.024.519-.089.741-.152.518-.438.977-.785 1.386s-.764.757-1.191 1.082a4.782 4.782 0 0 0-.674.589 3.157 3.157 0 0 0-.495.794c-.543 1.174-.973 2.457-1.064 3.754a7.494 7.494 0 0 0 .822 3.952c.145.281.59.067.443-.215a6.98 6.98 0 0 1-.79-3.313c.018-1.25.396-2.451.872-3.595.113-.27.224-.543.381-.79s.356-.433.577-.611c.426-.343.862-.66 1.243-1.056s.707-.832.941-1.328c.116-.247.199-.504.254-.772.052-.252.096-.535.02-.786-.091-.299-.337-.467-.625-.553-.204-.061-.491-.079-.613-.283-.019-.032-.028-.057-.02-.071.016-.026.051-.04.079-.05.144-.058.307-.08.458-.117l1.095-.264a.252.252 0 0 0 .195-.289c-.066-.452-.463-.759-.873-.898-.237-.081-.488-.111-.731-.161a2.234 2.234 0 0 1-.334-.094c-.061-.023-.181-.059-.209-.127-.045-.109.217-.192.304-.204.244-.035.5-.007.726-.123.205-.105.389-.306.408-.545.02-.259-.145-.461-.372-.563-.245-.112-.536-.147-.797-.21l-.95-.227.159.185c-.013-.081.048-.151.144-.21.133-.082.283-.103.435-.114.347-.025.702-.033.976-.279.061-.055.108-.151.081-.234-.096-.313-.31-.527-.604-.664a1.71 1.71 0 0 0-.42-.126c-.135-.024-.289-.007-.42-.046-.033-.01-.052-.026-.073-.043.011.01-.019.048.002-.012-.01.031.015-.034.006-.017.052-.115.186-.194.298-.238.248-.098.536-.137.801-.137 1.229-.001 2.323.758 3.011 1.735.769 1.092 1.105 2.433 1.395 3.717a38.469 38.469 0 0 1 .931 9.692c-.009.315.482.355.491.038l-.001.002zM3.612 25.685a29.37 29.37 0 0 1 10.128-7.709c.198-.09.396-.179.596-.265.189-.082.389-.15.571-.247.195-.104.348-.261.385-.485a.693.693 0 0 0-.204-.577c-.337-.342-.888-.3-1.33-.324l-.781-.043-.366-.02-.171-.009c-.06-.004-.141-.024-.2-.012-.033.006-.004.006.019.037.029.038-.017.038.015.012.028-.023.069-.092.118-.122.131-.084.317-.108.466-.139.356-.073.721-.109 1.069-.218s.704-.298.905-.622c.228-.367.141-.809-.241-1.026s-.813-.216-1.223-.262l-1.536-.174-.756-.086.184.386c.217-.276.613-.328.936-.383.403-.069.789-.156 1.12-.411s.493-.638.36-1.03c-.117-.345-.444-.55-.778-.65-.408-.122-.838-.123-1.259-.148l-.789-.046c-.096-.005-.2-.002-.296-.024a.831.831 0 0 1-.057-.018c-.119-.022-.016-.019-.02-.013.003-.007.013.054.008.05-.013-.012.112-.077.136-.086.094-.037.198-.053.295-.074.251-.053.505-.091.761-.115.228-.022.485 0 .678-.144s.244-.381.158-.597c-.161-.402-.624-.569-1.005-.684a4.515 4.515 0 0 0-1.286-.191 5.82 5.82 0 0 0-2.54.603c-1.645.796-2.849 2.26-3.853 3.743-1.101 1.625-2.121 3.34-2.813 5.182-.085.226-.164.453-.238.682-.097.302.366.469.463.167.585-1.807 1.513-3.472 2.539-5.062.935-1.451 1.971-2.92 3.434-3.884.679-.448 1.455-.759 2.259-.884s1.64-.074 2.342.284a.643.643 0 0 1 .23.201l.019.04c.014.03-.008.023 0 .016.021-.021-.082.009-.099.011-.119.017-.239.017-.359.028-.24.022-.479.056-.716.103-.207.041-.426.079-.607.192s-.331.314-.275.545c.055.231.259.345.475.387s.444.037.662.049l.764.044c.349.02.702.027 1.02.177.213.099.384.309.258.553-.144.279-.521.413-.812.467-.365.069-.748.104-1.085.274-.174.087-.319.207-.439.36s.008.366.184.386l1.513.171c.478.054.964.086 1.438.166.123.02.271.061.373.129.092.061.147.13.091.261-.12.281-.454.426-.729.499-.337.091-.686.125-1.025.201s-.768.204-.896.59a.426.426 0 0 0 .191.522c.199.11.483.079.705.091.502.028 1.004.053 1.507.084.168.01.389.012.521.134.088.08.119.189.018.262-.145.105-.344.159-.508.229a29.783 29.783 0 0 0-2.812 1.387 29.996 29.996 0 0 0-4.178 2.834 29.564 29.564 0 0 0-4.035 3.964c-.086.102-.04.272.063.343.118.082.257.04.343-.063l-.003.005z"/><path d="M9.604 4.739a16.37 16.37 0 0 0 .608 4.607c.037.128.151.222.289.195.122-.024.231-.16.195-.289a15.892 15.892 0 0 1-.601-4.475c.001-.133-.087-.254-.227-.265-.126-.01-.263.093-.265.227h-.001zM11.98 18.751a79.855 79.855 0 0 0 1.125 3.225c.341.911.7 1.873 1.567 2.412.842.524 1.88.613 2.848.626 1.106.014 2.21-.107 3.299-.302 1.227-.221 2.436-.532 3.641-.845.129-.034.221-.153.195-.289-.024-.124-.159-.229-.289-.195-2.054.532-4.141 1.08-6.274 1.136-.933.025-1.946.012-2.816-.366-.401-.174-.736-.445-.991-.799s-.438-.806-.599-1.228a73.038 73.038 0 0 1-1.222-3.467c-.041-.127-.147-.223-.289-.195-.118.022-.236.162-.195.289h.001z"/><path d="M13.284 21.233c2.042.185 4.037-.447 5.904-1.209s3.721-1.542 5.203-2.876c.776-.699 1.425-1.542 1.821-2.515.062-.153-.06-.312-.213-.329l-9.268-1.059-2.633-.301c-.315-.036-.352.455-.038.491l9.268 1.059 2.633.301-.213-.329c-.686 1.688-2.171 2.877-3.733 3.724-.869.471-1.779.865-2.691 1.246s-1.819.73-2.767.979c-1.056.278-2.145.426-3.236.327-.316-.028-.354.463-.038.491v-.001z"/><path d="M14.049 13.576a19.256 19.256 0 0 0 5.124-1.42c.806-.349 1.598-.745 2.332-1.229s1.303-1.044 1.793-1.742.931-1.504 1.633-2.047c.251-.194-.07-.568-.321-.375-.63.486-1.06 1.162-1.496 1.816a9.17 9.17 0 0 1-.689.931 5.513 5.513 0 0 1-.927.826c-.684.497-1.453.884-2.22 1.234s-1.598.663-2.427.909c-.948.28-1.917.485-2.898.615-.314.041-.219.526.094.484z"/><path d="M26.923 11.516c-.363-1.794-.725-3.59-1.205-5.358-.221-.815-.436-1.655-.782-2.427-.159-.352-.36-.695-.622-.981s-.6-.521-.961-.696c-.702-.341-1.509-.487-2.277-.588-.747-.097-1.5-.121-2.251-.079-1.536.085-3.045.442-4.473 1.015a15.725 15.725 0 0 0-4.394 2.68c-.24.207.08.581.321.375a15.367 15.367 0 0 1 3.722-2.369 13.964 13.964 0 0 1 4.246-1.163c.719-.076 1.445-.086 2.167-.032s1.467.166 2.165.386c.355.111.7.258 1.004.475s.533.49.714.803c.391.679.593 1.466.806 2.214.486 1.708.853 3.447 1.206 5.186l.132.653c.063.31.547.218.484-.094h-.001z"/><path d="M10.003 5.507c2.068.851 4.238 1.559 6.482 1.717 2.039.143 4.08-.226 5.916-1.132.973-.479 1.879-1.1 2.675-1.838.232-.215-.088-.591-.321-.375a10.846 10.846 0 0 1-4.87 2.598c-2.054.484-4.186.301-6.212-.229-1.196-.313-2.361-.735-3.502-1.205-.294-.121-.459.343-.167.463l-.001.001zM24.859 6.435a9.196 9.196 0 0 1-2.806 1.624c-.125.046-.168.218-.114.329.063.129.204.16.329.114a9.586 9.586 0 0 0 2.911-1.693c.242-.206-.078-.579-.321-.375h.001zM20.377 8.806l-7.621-.064-2.163-.019c-.133-.001-.254.087-.265.227-.01.126.093.263.227.265l7.621.064 2.163.019c.133.001.254-.087.265-.227.01-.126-.093-.263-.227-.265z"/></symbol><symbol id="icon-chimney_third" viewBox="0 0 30 32"><path style="fill:var(--color1,#000)" d="M12.267 10.705c-.185-.875-.357-1.755-.537-2.633 0-.024-.019-.052-.013-.069.028-.056.062-.108.092-.161.043.041.11.073.12.12.067.288.12.579.176.86.099.493.202.983.294 1.476.024.129.09.155.215.159 1.243.076 2.49.038 3.726-.112.762-.112 1.518-.262 2.276-.402.7-.129 1.4-.269 2.1-.394.062-.011.18.032.195.077.043.125-.075.136-.161.151-1.029.191-2.064.361-3.088.579a19.529 19.529 0 0 1-4.641.344c-.155 0-.307-.013-.46-.019a.351.351 0 0 0-.064.024zm3.647 11.218a29.203 29.203 0 0 0 1.832 3.622 12.298 12.298 0 0 0 2.231 2.839 4.72 4.72 0 0 0 1.624 1.013 2.657 2.657 0 0 0 2.603-.445 6.44 6.44 0 0 0 1.742-2.179 17.948 17.948 0 0 0 1.447-3.721c.46-1.662.805-3.352 1.035-5.061.103-.746.185-1.506.275-2.25a.214.214 0 0 0-.032-.142c-.035.088-.078.176-.105.267a7.434 7.434 0 0 1-1.233 2.336 15.194 15.194 0 0 1-2.393 2.476 28.007 28.007 0 0 1-5.878 3.766 7.622 7.622 0 0 1-.921.357 1.087 1.087 0 0 1-.402.019c-.039 0-.09-.067-.101-.112s.062-.097.095-.095c.644.017 1.147-.34 1.677-.604a25.612 25.612 0 0 0 4.109-2.517 23.55 23.55 0 0 0 2.064-1.721c.745-.714 1.476-1.454 1.995-2.366a8.164 8.164 0 0 0 .767-1.643c.097-.32.215-.635.331-.951.043-.089.092-.175.148-.256l-.041-.021c-.324.23-.644.462-.973.688a9.416 9.416 0 0 1-2.706 1.31c-.621.183-1.231.413-1.862.536-.902.172-1.811.346-2.738.273-.623-.049-1.248-.093-1.864-.179-.644-.09-1.289-.228-1.946-.348-.107-.019-.215-.082-.142-.202s.174-.222.292-.299c.406-.26.816-.516 1.237-.749.698-.381 1.417-.721 2.109-1.112a16.785 16.785 0 0 0 3.316-2.51 20.619 20.619 0 0 0 2.974-3.676c.501-.77.975-1.559 1.422-2.366.4-.657.691-1.375.859-2.125.023-.129.028-.293.2-.351.017 0 .026-.062.024-.092 0-.325-.028-.645-.043-.979-.146.14-.281.271-.43.4-.722.645-1.574 1.093-2.44 1.506a20.348 20.348 0 0 1-3.883 1.338 66.453 66.453 0 0 1-3.234.753c-.876.174-1.77.26-2.652.413-1.05.181-2.094.398-3.142.587-.301.054-.608.062-.913.099-.174.019-.346.06-.52.075a.548.548 0 0 1-.195-.052c.039-.056.062-.136.114-.159a.85.85 0 0 1 .324-.08 10.31 10.31 0 0 0 1.868-.252c1.617-.284 3.239-.548 4.86-.815a36.686 36.686 0 0 0 3.814-.891c1.392-.387 2.77-.819 4.04-1.527.554-.308 1.074-.669 1.613-1.015a3.98 3.98 0 0 0 .356-.318.924.924 0 0 0 .286-.981.966.966 0 0 0-.361-.454 2.617 2.617 0 0 0-1.602-.527c-.936 0-1.875-.058-2.809.075a19.592 19.592 0 0 0-3.672.86c-.595.215-1.211.368-1.783.624-1.37.615-2.755 1.207-4.033 2.005-.644.4-1.259.841-1.632 1.532-.155.288-.305.576-.215.925 0 .039-.052.099-.077.151-.049-.037-.135-.071-.137-.108a2.168 2.168 0 0 1 .032-.658 3.077 3.077 0 0 1 .986-1.377c.7-.569 1.469-1.048 2.289-1.424.947-.462 1.888-.949 2.867-1.334 1.43-.567 2.91-.999 4.42-1.291a16.366 16.366 0 0 1 3.997-.2 2.57 2.57 0 0 1 1.802.824c.144.151.228.35.234.559.054 1.506.135 3.011.161 4.532a89.657 89.657 0 0 1-.021 4.431 70.609 70.609 0 0 1-.284 4.564 45.571 45.571 0 0 1-1.074 6.92 20.644 20.644 0 0 1-1.598 4.547 7.518 7.518 0 0 1-1.744 2.366c-.466.424-1.048.7-1.671.791a3.259 3.259 0 0 1-2.214-.561c-.971-.62-1.718-1.473-2.373-2.398a23.707 23.707 0 0 1-2.392-4.345l-.097-.215zM12.501 10.72l.037.159-.037-.159zm14.751 4.58c.459-.28.9-.591 1.319-.929.083-.06.169-.116.258-.168.259-3.432.308-6.876.146-10.314-.011.006-.021.014-.029.024s-.013.022-.016.034c-.099.645-.397 1.196-.67 1.764a22.854 22.854 0 0 1-1.735 2.921c-1.084 1.587-2.292 3.076-3.782 4.302a19.656 19.656 0 0 1-3.359 2.246c-.754.396-1.551.721-2.24 1.235-.079.06-.17.108-.292.185l.236.067a21.86 21.86 0 0 0 3.221.43c1.044.088 2.06-.099 3.069-.288.567-.134 1.126-.3 1.673-.499l.26-.084zm-1.942.925a9.91 9.91 0 0 0 1.942-.925l-1.942.925z"/><path fill="none" stroke="#231f20" style="stroke:var(--color2,#231f20)" stroke-miterlimit="10" stroke-width=".623" d="M12.267 10.705c-.185-.875-.357-1.755-.537-2.633 0-.024-.019-.052-.013-.069.028-.056.062-.108.092-.161.043.041.11.073.12.12.067.288.12.579.176.86.099.493.202.983.294 1.476.024.129.09.155.215.159 1.243.076 2.49.038 3.726-.112.762-.112 1.518-.262 2.276-.402.7-.129 1.4-.269 2.1-.394.062-.011.18.032.195.077.043.125-.075.136-.161.151-1.029.191-2.064.361-3.088.579a19.529 19.529 0 0 1-4.641.344c-.155 0-.307-.013-.46-.019a.351.351 0 0 0-.064.024m3.417 11.218a29.203 29.203 0 0 0 1.832 3.622 12.298 12.298 0 0 0 2.231 2.839 4.72 4.72 0 0 0 1.624 1.013 2.657 2.657 0 0 0 2.603-.445 6.44 6.44 0 0 0 1.742-2.179 17.948 17.948 0 0 0 1.447-3.721c.46-1.662.805-3.352 1.035-5.061.103-.746.185-1.506.275-2.25a.214.214 0 0 0-.032-.142c-.035.088-.078.176-.105.267a7.434 7.434 0 0 1-1.233 2.336 15.194 15.194 0 0 1-2.393 2.476 28.007 28.007 0 0 1-5.878 3.766 7.622 7.622 0 0 1-.921.357 1.087 1.087 0 0 1-.402.019c-.039 0-.09-.067-.101-.112s.062-.097.095-.095c.644.017 1.147-.34 1.677-.604a25.612 25.612 0 0 0 4.109-2.517 23.55 23.55 0 0 0 2.064-1.721c.745-.714 1.476-1.454 1.995-2.366a8.164 8.164 0 0 0 .767-1.643c.097-.32.215-.635.331-.951.043-.089.092-.175.148-.256l-.041-.021c-.324.23-.644.462-.973.688a9.416 9.416 0 0 1-2.706 1.31c-.621.183-1.231.413-1.862.536-.902.172-1.811.346-2.738.273-.623-.049-1.248-.093-1.864-.178-.644-.09-1.289-.228-1.946-.348-.107-.019-.215-.082-.142-.202s.174-.222.292-.299c.406-.26.816-.516 1.237-.749.698-.381 1.417-.721 2.109-1.112a16.785 16.785 0 0 0 3.316-2.51 20.619 20.619 0 0 0 2.974-3.676c.501-.77.975-1.559 1.422-2.366.4-.657.691-1.375.859-2.125.023-.129.028-.293.2-.351.017 0 .026-.062.024-.092 0-.325-.028-.645-.043-.979-.146.14-.281.271-.43.4-.722.645-1.574 1.093-2.44 1.506a20.348 20.348 0 0 1-3.883 1.338 66.453 66.453 0 0 1-3.234.753c-.876.174-1.77.26-2.652.413-1.05.181-2.094.398-3.142.587-.301.054-.608.062-.913.099-.174.019-.346.06-.52.075a.548.548 0 0 1-.195-.052c.039-.056.062-.136.114-.159a.85.85 0 0 1 .324-.08 10.31 10.31 0 0 0 1.868-.252c1.617-.284 3.239-.548 4.86-.815a36.686 36.686 0 0 0 3.814-.891c1.392-.387 2.77-.819 4.04-1.527.554-.308 1.074-.669 1.613-1.015a3.98 3.98 0 0 0 .356-.318.924.924 0 0 0 .286-.981.966.966 0 0 0-.361-.454 2.617 2.617 0 0 0-1.602-.527c-.936 0-1.875-.058-2.809.075a19.592 19.592 0 0 0-3.672.86c-.595.215-1.211.368-1.783.624-1.37.615-2.755 1.207-4.033 2.005-.644.4-1.259.841-1.632 1.532-.155.288-.305.576-.215.925 0 .039-.052.099-.077.151-.049-.037-.135-.071-.137-.108a2.168 2.168 0 0 1 .032-.658 3.077 3.077 0 0 1 .986-1.377c.7-.569 1.469-1.048 2.289-1.424.947-.462 1.888-.949 2.867-1.334 1.43-.567 2.91-.999 4.42-1.291a16.366 16.366 0 0 1 3.997-.2 2.57 2.57 0 0 1 1.802.824c.144.151.228.35.234.559.054 1.506.135 3.011.161 4.532a89.657 89.657 0 0 1-.021 4.431 70.609 70.609 0 0 1-.284 4.564 45.571 45.571 0 0 1-1.074 6.92 20.644 20.644 0 0 1-1.598 4.547 7.518 7.518 0 0 1-1.744 2.366c-.466.424-1.048.7-1.671.791a3.259 3.259 0 0 1-2.214-.561c-.971-.62-1.718-1.473-2.373-2.398a23.707 23.707 0 0 1-2.392-4.345l-.097-.215M12.501 10.72l.037.159M27.252 15.3c.459-.28.9-.591 1.319-.929.083-.06.169-.116.258-.168.259-3.432.308-6.876.146-10.314-.011.006-.021.014-.029.024s-.013.022-.016.034c-.099.645-.397 1.196-.67 1.764a22.854 22.854 0 0 1-1.735 2.921c-1.084 1.587-2.292 3.076-3.782 4.302a19.656 19.656 0 0 1-3.359 2.246c-.754.396-1.551.721-2.24 1.235-.079.06-.17.108-.292.185l.236.067a21.86 21.86 0 0 0 3.221.43c1.044.088 2.06-.099 3.069-.288.567-.134 1.126-.3 1.673-.499l.26-.084a9.91 9.91 0 0 0 1.942-.925z"/><path fill="#010101" style="fill:var(--color3,#010101)" d="M3.666 31.862a37.794 37.794 0 0 1 10.109-8.432 36.989 36.989 0 0 1 3.707-1.848c.243-.107.5-.193.737-.32a.879.879 0 0 0 .497-.626.9.9 0 0 0-.262-.744c-.43-.43-1.145-.387-1.718-.417l-1.007-.056-.47-.028-.215-.011a1.307 1.307 0 0 0-.258-.017c-.043 0 0 0 .026.049s-.021.049.019.015c.041-.034.088-.118.15-.157a1.81 1.81 0 0 1 .601-.181c.464-.07.924-.164 1.379-.282a2.033 2.033 0 0 0 1.164-.802.913.913 0 0 0-.31-1.322c-.494-.28-1.048-.277-1.576-.338l-1.978-.215-.975-.11.236.497c.279-.355.79-.43 1.205-.495a3.091 3.091 0 0 0 1.443-.529 1.177 1.177 0 0 0 .464-1.329 1.43 1.43 0 0 0-1.003-.839 6.95 6.95 0 0 0-1.619-.189l-1.018-.06a2.197 2.197 0 0 1-.38-.03l-.073-.024c-.155-.028-.021-.026-.026-.017s.015.069 0 .065c-.015-.004.144-.101.174-.112.124-.042.251-.074.38-.095.324-.069.652-.118.982-.148.294-.03.625 0 .874-.187a.648.648 0 0 0 .202-.77c-.215-.518-.803-.733-1.289-.882a5.75 5.75 0 0 0-1.658-.247 7.475 7.475 0 0 0-3.271.777c-2.12 1.028-3.67 2.917-4.965 4.831-1.417 2.095-2.732 4.302-3.623 6.685-.11.293-.215.585-.307.88-.127.389.47.607.597.215.758-2.342 1.944-4.491 3.275-6.543 1.205-1.871 2.538-3.766 4.424-5.012a7.392 7.392 0 0 1 2.91-1.14c1.037-.161 2.113-.095 3.017.368a.816.816 0 0 1 .297.26l.024.052c.017.037 0 .028 0 .019s-.105.013-.127.015c-.155.021-.309.021-.464.034-.309.03-.616.073-.921.133a2.32 2.32 0 0 0-.782.247.68.68 0 0 0-.354.704.708.708 0 0 0 .612.499c.285.041.572.063.859.065l.986.056c.449-.008.895.069 1.314.228.273.129.494.4.333.714-.187.359-.672.533-1.046.602-.47.088-.964.133-1.398.353-.22.111-.413.27-.565.465a.32.32 0 0 0-.023.316.326.326 0 0 0 .258.182l1.948.215c.616.071 1.241.112 1.853.215.169.023.332.08.479.166a.25.25 0 0 1 .134.142c.011.032.015.066.013.099s-.012.066-.029.096c-.155.363-.584.549-.939.645-.43.118-.885.161-1.321.26s-.99.262-1.155.761a.552.552 0 0 0 .245.674c.258.142.623.101.908.116.644.037 1.289.069 1.933.108a1.1 1.1 0 0 1 .672.174c.112.103.152.243.024.338a3.293 3.293 0 0 1-.655.295c-.249.108-.498.215-.745.329-.979.445-1.933.933-2.878 1.46a38.318 38.318 0 0 0-10.581 8.772.323.323 0 0 0-.052.238.335.335 0 0 0 .132.206.297.297 0 0 0 .114.049c.041.009.083.01.124.002s.08-.023.116-.046a.307.307 0 0 0 .089-.087h-.004z"/></symbol><symbol id="icon-clock" viewBox="0 0 32 32"><path fill="none" stroke="#fd6103" style="stroke:var(--color4,#fd6103)" stroke-linejoin="round" stroke-linecap="round" stroke-width="2" d="M29.333 16c0 7.36-5.973 13.333-13.333 13.333S2.667 23.36 2.667 16 8.64 2.667 16 2.667 29.333 8.64 29.333 16z"/><path fill="none" stroke="#fd6103" style="stroke:var(--color4,#fd6103)" stroke-linejoin="round" stroke-linecap="round" stroke-width="2" d="m20.947 20.24-4.133-2.467c-.72-.427-1.307-1.453-1.307-2.293v-5.467"/></symbol><symbol id="icon-coffee" viewBox="0 0 32 32"><path d="M4.162 30.77c1.397-1.813 2.94-3.489 4.602-5.009s3.441-2.884 5.317-4.067a37.121 37.121 0 0 1 2.877-1.639c.249-.127.5-.25.751-.371.238-.115.49-.21.72-.346.246-.145.44-.362.489-.672a1.003 1.003 0 0 0-.25-.793c-.421-.468-1.113-.405-1.668-.434-.328-.017-.655-.034-.981-.053l-.46-.025-.215-.011c-.075-.004-.177-.031-.251-.015-.042.009-.006.008.023.051.036.052-.021.053.019.016.036-.031.088-.127.15-.17.165-.117.399-.152.587-.196.447-.104.907-.158 1.346-.31s.887-.416 1.143-.865c.29-.508.185-1.116-.293-1.411s-1.02-.29-1.534-.35l-1.928-.225c-.316-.037-.633-.073-.949-.111l.227.53c.275-.382.774-.458 1.179-.537.506-.099.992-.222 1.411-.576s.625-.883.462-1.422c-.143-.474-.552-.754-.971-.888-.511-.165-1.051-.161-1.58-.191l-.991-.056c-.121-.007-.252 0-.371-.03a.671.671 0 0 1-.071-.025c-.149-.029-.02-.026-.025-.018.004-.009.015.075.01.069-.016-.016.141-.108.172-.12.118-.052.249-.075.372-.105.316-.075.635-.129.957-.166.287-.032.61-.005.853-.205s.31-.528.204-.823c-.198-.552-.779-.778-1.256-.933a5.15 5.15 0 0 0-1.614-.251c-1.105.005-2.201.321-3.197.854-2.074 1.112-3.6 3.14-4.876 5.192-1.398 2.249-2.696 4.621-3.583 7.165-.108.312-.211.625-.306.942-.125.417.455.643.581.226.752-2.495 1.934-4.797 3.237-6.997 1.188-2.007 2.503-4.04 4.351-5.383.857-.623 1.835-1.06 2.847-1.239s2.061-.117 2.94.37a.784.784 0 0 1 .286.276l.023.055c.017.041-.01.032 0 .022.027-.029-.103.014-.124.016-.15.024-.301.026-.451.041a8.118 8.118 0 0 0-.9.149c-.26.059-.536.113-.764.271s-.418.436-.351.753.322.473.593.528.557.047.832.061l.96.054c.439.024.881.031 1.28.234.266.135.48.422.319.759-.184.386-.659.574-1.024.651-.459.098-.941.151-1.365.388-.219.122-.403.289-.555.501s.007.504.227.53l1.899.221c.6.069 1.21.11 1.805.216.154.027.34.082.467.174.115.084.184.178.113.359-.154.389-.574.591-.921.694-.424.128-.863.179-1.29.286s-.966.288-1.132.821c-.086.279-.002.575.235.717.249.15.606.104.884.119.63.034 1.261.063 1.892.101.211.012.488.013.654.18.109.109.148.259.021.361-.183.147-.434.223-.64.32a35.768 35.768 0 0 0-3.546 1.938 38.461 38.461 0 0 0-5.275 3.944 39.75 39.75 0 0 0-5.107 5.499c-.109.141-.052.375.075.472.148.112.322.052.431-.089l-.004.006z"/><path d="M14.486.66V.659c.096-.472.327-.659.803-.659h13.373c.483 0 .696.175.8.66l.009.043c.092.428.185.854.266 1.284.024.133.076.17.202.168.317-.006.635-.008.955 0 .601.012.987.352 1.015.942.027.547.025 1.096-.008 1.643s-.415.877-.955.891h-.003c-.43.011-.437.012-.506.44-.069.43-.124.847-.171 1.273-.002.044.005.087.02.128s.039.078.07.109c.258.229.33.51.287.839-.22 1.528-.438 3.059-.655 4.592l-.699 4.851-.043.299c-.117.818-.235 1.637-.348 2.456-.048.348-.198.608-.527.764a.314.314 0 0 0-.139.215c-.039.238-.072.476-.106.714-.04.287-.081.575-.131.862-.134.764-.669 1.197-1.451 1.198h-9.017c-.978 0-1.497-.468-1.611-1.433-.039-.337-.088-.673-.136-1.008l-.055-.382c-.007-.049-.036-.12-.073-.134-.43-.159-.546-.502-.609-.879h.717v-.051c.043.214.152.251.361.25 2.193-.006 4.386-.006 6.58 0 .096-.002.191.001.287.009a.327.327 0 0 1 .306.313.313.313 0 0 1-.244.36 1.185 1.185 0 0 1-.33.035h-6.286c.036.254.068.478.096.706.012.102.027.206.043.311.019.131.038.264.053.395.067.573.302.789.888.789h8.925c.071.004.143.004.214 0 .331-.036.553-.208.613-.536.071-.384.126-.77.183-1.17v-.002l.072-.492h-2.77c-.094.001-.2.003-.255-.045-.101-.089-.222-.235-.212-.347s.157-.227.267-.308c.043-.032.114-.027.183-.022.025.002.05.004.073.004h3.075c.191 0 .279-.051.308-.261.193-1.402.394-2.803.594-4.204v-.003l.21-1.469.903-6.335c.052-.366.05-.367-.319-.367H14.199c-.145 0-.199.067-.178.21l.028.192h-.718l-.021-.147a.767.767 0 0 1 .264-.728.312.312 0 0 0 .112-.353 35.377 35.377 0 0 1-.201-1.461c-.018-.144-.081-.191-.217-.181a2.437 2.437 0 0 1-.382-.006.906.906 0 0 1-.834-.837c-.022-.539-.02-1.08-.012-1.624.008-.626.387-.998 1.017-1.012.255-.005.509-.004.771-.003l.347.001.31-1.493zm.386 13.573-.11-.764h-.726l.08.562.029.203h.727zm-.482-3.343h-.72l-.163-1.146h.718l.031.215.134.931zm.523-8.737h1.193c.297.005.449.146.436.382-.011.219-.15.33-.436.33h-2.98c-.299 0-.367.069-.369.362v1.337c0 .293.054.344.353.344h17.717c.32 0 .368-.05.37-.382V3.334c0-.438-.034-.471-.478-.472H18.11c-.103.004-.206 0-.309-.011a.316.316 0 0 1-.28-.309.311.311 0 0 1 .22-.353c.115-.031.233-.045.352-.041h10.954a89.17 89.17 0 0 0-.136-.654 84.511 84.511 0 0 1-.142-.683c-.026-.14-.106-.15-.22-.149H15.488c-.168 0-.282.009-.315.217-.048.268-.104.532-.162.806l-.098.47zm-.676 3.885c.059.42.116.827.184 1.229.008.049.139.109.213.109 4.893.006 9.787.009 14.681.009.18 0 .236-.063.245-.23.006-.111.025-.227.044-.343.01-.058.019-.117.027-.175.045-.327.088-.653.133-.996l-15.583.003.056.394z"/></symbol><symbol id="icon-cup" viewBox="0 0 34 32"><path fill="#4b4b4b" style="fill:var(--color5,#4b4b4b)" d="M8.598 6.466V1.725a1.186 1.186 0 0 1 2.37 0v4.741a1.186 1.186 0 0 1-2.37 0zm5.926 1.185a1.186 1.186 0 0 0 1.185-1.185V1.725a1.186 1.186 0 0 0-2.37 0v4.741a1.186 1.186 0 0 0 1.185 1.185zm4.74 0a1.186 1.186 0 0 0 1.185-1.185V1.725a1.186 1.186 0 0 0-2.37 0v4.741a1.186 1.186 0 0 0 1.185 1.185zm14.222 8.296v1.185a5.929 5.929 0 0 1-5.557 5.913 14.3 14.3 0 0 1-4 5.939h3.631a1.186 1.186 0 0 1 0 2.37H1.486a1.186 1.186 0 0 1 0-2.37h3.636A14.276 14.276 0 0 1 .301 18.318v-7.111a1.186 1.186 0 0 1 1.185-1.185H27.56a5.93 5.93 0 0 1 5.926 5.926zm-7.111-3.555H2.671v5.926a11.89 11.89 0 0 0 6.684 10.666H19.69a11.885 11.885 0 0 0 6.684-10.666v-5.926zm4.741 3.555a3.55 3.55 0 0 0-2.371-3.351v5.721c-.001.744-.06 1.487-.178 2.222a3.554 3.554 0 0 0 2.548-3.407v-1.185z"/></symbol><symbol id="icon-facebook" viewBox="0 0 33 32"><path stroke-linecap="round" stroke-miterlimit="10" stroke-width="2.462" d="M20.922 11.231v4.462h4c.308 0 .462.308.462.615l-.615 2.923c0 .154-.308.308-.462.308h-3.385V30.77h-4.615V19.693h-2.615c-.308 0-.462-.154-.462-.462v-2.923c0-.308.154-.462.462-.462h2.615v-5.077c0-2.615 2-4.615 4.615-4.615h4.154c.308 0 .462.154.462.462v3.692c0 .308-.154.462-.462.462h-3.692c-.308 0-.462.154-.462.462z"/><path stroke-linejoin="round" stroke-linecap="round" stroke-width="2.462" d="M21.353 30.769h-8.862c-7.385 0-10.338-2.954-10.338-10.338v-8.862c0-7.385 2.954-10.338 10.338-10.338h8.862c7.385 0 10.338 2.954 10.338 10.338v8.862c0 7.385-2.954 10.338-10.338 10.338z"/></symbol><symbol id="icon-hand" viewBox="0 0 26 32"><path d="M5.1 31.566c1.935-2.512 4.073-4.835 6.376-6.941s4.768-3.996 7.367-5.636a51.13 51.13 0 0 1 3.987-2.271c.345-.175.692-.347 1.04-.514.33-.16.679-.291.998-.48.34-.2.61-.502.677-.931.062-.397-.095-.821-.347-1.099-.583-.649-1.542-.561-2.311-.601-.454-.024-.908-.047-1.36-.073l-.637-.034c-.099-.006-.199-.01-.298-.015-.104-.006-.246-.044-.347-.021-.058.013-.008.011.032.07.049.072-.03.073.026.023.05-.043.122-.176.207-.235.229-.162.553-.21.814-.271.62-.145 1.256-.218 1.864-.43s1.229-.577 1.583-1.199c.402-.703.257-1.547-.406-1.955s-1.413-.402-2.125-.485c-.891-.105-1.782-.207-2.672-.312l-1.315-.154.315.734c.381-.529 1.072-.634 1.634-.744.702-.137 1.375-.307 1.955-.799s.866-1.224.64-1.97c-.199-.657-.765-1.044-1.346-1.231-.708-.228-1.456-.224-2.189-.265l-1.373-.078c-.168-.009-.349 0-.514-.042a1.194 1.194 0 0 1-.099-.034c-.207-.04-.028-.036-.034-.025.006-.013.021.104.013.095-.022-.022.195-.149.238-.167.164-.072.345-.104.515-.145.438-.104.88-.179 1.326-.23.397-.045.845-.007 1.183-.284s.43-.731.282-1.141C20.524.911 19.72.598 19.059.383a7.175 7.175 0 0 0-2.236-.348c-1.531.006-3.05.444-4.429 1.183-2.873 1.541-4.988 4.351-6.757 7.195C3.7 11.529 1.902 14.816.673 18.341c-.15.432-.292.866-.424 1.305-.173.577.631.89.805.313 1.042-3.457 2.679-6.647 4.486-9.695 1.647-2.781 3.468-5.599 6.029-7.458 1.188-.863 2.543-1.469 3.944-1.717s2.856-.163 4.073.512a1.071 1.071 0 0 1 .397.382c.001.004.047.109.032.076.023.057-.014.044-.001.03.038-.041-.142.019-.172.023-.207.033-.417.036-.625.057-.418.045-.834.113-1.247.206-.36.082-.743.156-1.059.375s-.58.605-.486 1.044c.093.439.446.655.822.732s.772.065 1.152.085l1.33.074c.608.034 1.221.043 1.773.324.369.187.665.585.442 1.051-.254.535-.912.796-1.419.902-.636.136-1.304.209-1.891.537-.304.169-.559.4-.769.694s.01.699.315.734l2.631.307c.832.096 1.677.152 2.501.299.214.037.471.114.647.241.16.116.254.246.156.497-.214.538-.796.818-1.276.962-.588.177-1.195.248-1.788.396s-1.339.399-1.568 1.138c-.119.387-.003.796.326.993.345.208.84.144 1.225.164.873.047 1.747.088 2.622.14.293.017.676.018.906.249.152.151.204.359.028.5-.253.203-.602.308-.887.443a49.563 49.563 0 0 0-4.913 2.684 53.254 53.254 0 0 0-7.309 5.465 55.184 55.184 0 0 0-6.377 6.729 62.36 62.36 0 0 0-.7.89c-.151.196-.073.519.104.654.205.155.447.072.598-.124l-.006.009z"/></symbol><symbol id="icon-instagram" viewBox="0 0 33 32"><path stroke-linejoin="round" stroke-linecap="round" stroke-width="2.462" d="M12.494 30.778h8.863c7.386 0 10.34-2.954 10.34-10.34v-8.863c0-7.386-2.954-10.34-10.34-10.34h-8.863c-7.386 0-10.34 2.954-10.34 10.34v8.863c0 7.386 2.954 10.34 10.34 10.34z"/><path stroke-linejoin="round" stroke-linecap="round" stroke-width="2.462" d="M16.925 22.161a6.155 6.155 0 0 0 0-12.31 6.155 6.155 0 0 0 0 12.31zm8.604-14.156h.023"/></symbol><symbol id="icon-telegram" viewBox="0 0 33 32"><path stroke-linejoin="round" stroke-linecap="round" stroke-width="2.462" d="m23.153 24.493 2.538-15.231-12.185 8.631M25.691 9.261 6.399 16.876M23.153 24.493l-9.646-6.6M6.399 16.877l7.108 1.015"/><path stroke-linejoin="round" stroke-linecap="round" stroke-width="2.462" d="m16.553 20.431-3.046 3.046v-5.585"/><path stroke-linejoin="round" stroke-linecap="round" stroke-width="2.462" d="M31.692 9.436v13.128a8.205 8.205 0 0 1-8.205 8.205H10.359a8.205 8.205 0 0 1-8.205-8.205V9.436a8.205 8.205 0 0 1 8.205-8.205h13.128a8.205 8.205 0 0 1 8.205 8.205z"/></symbol><symbol id="icon-tik_tok" viewBox="0 0 33 32"><path stroke-linejoin="round" stroke-linecap="round" stroke-width="2.462" d="M31.692 9.436v13.128a8.205 8.205 0 0 1-8.205 8.205H10.359a8.205 8.205 0 0 1-8.205-8.205V9.436a8.205 8.205 0 0 1 8.205-8.205h13.128a8.205 8.205 0 0 1 8.205 8.205z"/><path stroke-linejoin="round" stroke-linecap="round" stroke-width="2.462" d="M13.641 16a4.923 4.923 0 1 0 4.923 4.923V6.154c.546 1.641 2.626 4.923 6.564 4.923"/></symbol><symbol id="icon-line" viewBox="0 0 1279 32"><path stroke-linecap="round" stroke-width="3.2" d="M2.133 14.626c100.532 0 198.971 4.946 299.502 4.946 72.355 0 143.957-5.87 218.332-3.26 68.249-1.542 137.508 3.244 205.072-2.61 85.199-7.383 182.686-15.105 269.134-9.83 80.281 4.899 118.371 14.489 176.995 21.376 35.616 4.183 68.875 4.618 105.632 4.618"/></symbol><symbol id="icon-location" viewBox="0 0 32 32"><path fill="none" stroke="#fd6103" style="stroke:var(--color4,#fd6103)" stroke-width="2" d="M16 17.907a4.16 4.16 0 1 0-.001-8.321A4.16 4.16 0 0 0 16 17.907z"/><path fill="none" stroke="#fd6103" style="stroke:var(--color4,#fd6103)" stroke-width="2" d="M4.827 11.32C7.454-.227 24.56-.213 27.174 11.333c1.533 6.773-2.68 12.507-6.373 16.053a6.924 6.924 0 0 1-9.613 0c-3.68-3.547-7.893-9.293-6.36-16.067z"/></symbol><symbol id="icon-logo" viewBox="0 0 32 32"><path d="m5.356 2.806-2.66 2.286-.477-.555 3.168-2.724 2.756 3.202-3.168 2.723-.473-.55 2.662-2.286-1.808-2.096zM10.482 11.161a1.797 1.797 0 0 1-.656.222c-.233.03-.469.018-.698-.034a2.722 2.722 0 0 1-.708-.274 3.81 3.81 0 0 1-.68-.48 3.658 3.658 0 0 1-.686-.783 2.158 2.158 0 0 1-.323-.844 1.89 1.89 0 0 1 .082-.883c.116-.328.294-.631.525-.892.224-.269.503-.487.818-.64.275-.132.577-.198.881-.194.311.009.616.081.899.211.318.145.613.337.874.57.294.248.542.546.732.881.157.28.245.592.258.912.008.312-.06.621-.197.901-.157.317-.373.6-.637.835L7.764 7.866c-.271.397-.368.785-.288 1.161s.312.734.7 1.073c.253.23.549.409.87.527.273.102.573.103.847.003l.594.531h-.006zm-.093-3.517c-.364-.318-.736-.506-1.115-.562s-.74.052-1.079.328l2.633 2.305c.123-.143.206-.315.243-.499.035-.179.03-.363-.013-.541a1.726 1.726 0 0 0-.239-.539 2.423 2.423 0 0 0-.429-.492h-.002zM13.146 14.503a3.105 3.105 0 0 1-.813-.674 2.365 2.365 0 0 1-.467-.853l-.949 1.571-.624-.389 2.85-4.723.628.378-.298.418c.326-.071.663-.078.992-.019.357.064.698.195 1.006.386.289.171.55.384.777.631.204.221.362.48.465.763.097.279.128.577.091.87a2.437 2.437 0 0 1-.343.956 2.502 2.502 0 0 1-.691.781 1.927 1.927 0 0 1-.816.345 2.11 2.11 0 0 1-.891-.049 3.462 3.462 0 0 1-.919-.399l.003.005zm-.433-2.914a1.8 1.8 0 0 0-.256.705c-.026.207-.001.418.071.613.078.201.197.383.35.534.175.176.372.33.587.456.207.127.43.227.662.298.201.062.413.08.621.053a1.25 1.25 0 0 0 .563-.232c.2-.152.369-.341.497-.558.132-.216.222-.454.265-.704a1.302 1.302 0 0 0-.049-.61 1.412 1.412 0 0 0-.328-.525 2.745 2.745 0 0 0-.569-.443 2.86 2.86 0 0 0-.68-.303 1.621 1.621 0 0 0-.646-.058 1.32 1.32 0 0 0-.588.225 1.864 1.864 0 0 0-.502.548h.001zM21.768 16.754a1.772 1.772 0 0 1-.521.454 1.986 1.986 0 0 1-.66.233 2.651 2.651 0 0 1-.76.014 3.792 3.792 0 0 1-.815-.186 3.629 3.629 0 0 1-.932-.465 2.167 2.167 0 0 1-.62-.659 1.906 1.906 0 0 1-.26-.846c-.019-.348.03-.696.146-1.024.106-.334.281-.641.514-.903.204-.227.459-.402.743-.512a2.31 2.31 0 0 1 .913-.146c.349.013.695.079 1.025.194.366.118.709.3 1.012.538.251.199.452.454.587.745.125.285.18.597.159.908a2.717 2.717 0 0 1-.273 1.015l-4.027-1.379c-.101.471-.042.865.173 1.183s.568.561 1.055.729c.321.117.663.17 1.004.156.291-.01.568-.123.784-.318l.75.265.001.004zm-1.422-3.218c-.457-.156-.873-.188-1.246-.097s-.664.329-.874.713l3.313 1.132c.059-.179.071-.37.036-.555a1.259 1.259 0 0 0-.218-.495 1.761 1.761 0 0 0-.427-.408 2.321 2.321 0 0 0-.583-.291l-.001.001zM20.13 25.861c.291.264.427.545.408.841-.02.3-.153.583-.399.859l-2.35 2.626-3.116-2.783 2.169-2.425c.12-.136.258-.255.41-.353.133-.086.283-.143.44-.167a.985.985 0 0 1 .46.049c.173.061.331.158.465.284.173.161.281.317.325.465s.038.309-.016.455a.915.915 0 0 1 .579-.138c.209.019.416.115.62.288h.003zm-3.606 2.211 1.554-1.727c.154-.18.251-.347.291-.501s-.025-.31-.194-.47a.695.695 0 0 0-.303-.175.451.451 0 0 0-.262.02.779.779 0 0 0-.24.161 5.736 5.736 0 0 0-.238.247l-1.487 1.663.874.782h.003zm1.275 1.139 1.697-1.897c.178-.2.281-.369.305-.508s-.042-.284-.203-.435c-.164-.14-.311-.187-.437-.146s-.279.164-.454.361l-1.708 1.908.799.713v.002zM23.351 23.003c.285.344.4.691.343 1.042s-.281.693-.673 1.027l-.203.173c-.392.334-.773.503-1.14.509s-.711-.17-1.028-.527c-.302-.356-.416-.712-.34-1.069s.31-.702.701-1.037l1.845-1.568a1.222 1.222 0 0 0-.521-.307 1.264 1.264 0 0 0-.512-.03c-.164.026-.323.08-.468.161a2.385 2.385 0 0 0-.385.26l-.06.049a3.073 3.073 0 0 0-.315.31 1.973 1.973 0 0 0-.262.373 1.427 1.427 0 0 0-.148.421.857.857 0 0 0 .043.451l-.588.501a1.185 1.185 0 0 1-.194-.572c-.013-.22.017-.44.088-.649.082-.24.2-.467.349-.673.165-.233.36-.443.578-.627l.049-.041c.312-.267.609-.456.891-.571.258-.111.539-.155.818-.13.283.035.553.14.787.304.294.206.56.449.791.723l1.309 1.537-.556.474-1.272-1.494-.623.52c.259.062.493.214.702.458h-.005zm-2.143 1.749c.167.189.347.287.539.291s.407-.093.648-.298l.203-.173c.232-.197.361-.391.389-.578s-.039-.383-.199-.586c-.175-.189-.354-.285-.534-.289s-.394.097-.634.301l-.203.173c-.24.205-.375.399-.406.583-.03.185.036.375.201.576h-.004zM26.234 20.492c.161.307.263.567.307.777.045.182.039.374-.016.553a.945.945 0 0 1-.312.423 4.392 4.392 0 0 1-.588.383l-.342-.567a6.07 6.07 0 0 1 .319-.197.43.43 0 0 0 .187-.186.458.458 0 0 0 .015-.288 2.346 2.346 0 0 0-.199-.506l-1.211-2.389 3.201-1.929 2.157 3.576-.627.378-1.82-3.016-1.991 1.201.923 1.79-.002-.002zM25.656 16.632c-.184 0-.424-.119-.657-.249l-.093-.051c-.589-.328-1.015-.566-1.751-.566-.017 0-.034-.007-.046-.019s-.019-.029-.019-.046.007-.034.019-.046a.066.066 0 0 1 .046-.019c.77 0 1.208.243 1.814.583l.092.051c.136.075.419.232.594.232.017 0 .034.007.046.019s.019.029.019.046c0 .017-.007.034-.019.046s-.029.019-.046.019z"/></symbol><symbol id="icon-pereval" viewBox="0 0 117 32"><path style="fill:var(--color1,#000)" d="m56.408 12.259-.173.118.173-.118.002.003c3.886 5.904 8.64 10.557 12.424 13.736a68.135 68.135 0 0 0 4.715 3.63 47.366 47.366 0 0 0 1.746 1.166l.095.059.018.011.006.004.006.003.001.001-.029.049-.079.131-.109.179-.008-.005-.025-.015-.097-.06a46.154 46.154 0 0 1-1.764-1.178 68.713 68.713 0 0 1-4.745-3.652c-3.804-3.195-8.589-7.877-12.504-13.825l-.001-.002-.008-.011-.031-.044-.125-.173a19.095 19.095 0 0 0-.492-.638 25.965 25.965 0 0 0-1.871-2.085c-1.615-1.615-3.912-3.484-6.66-4.533l.15-.392c2.825 1.078 5.171 2.992 6.807 4.629a26.194 26.194 0 0 1 1.902 2.119c.22.274.388.497.502.652l.13.179.033.047.009.012.002.003.001.001zM62.752 13.934l-.035-.207-.035-.207.006-.001.015-.002.056-.008a8.333 8.333 0 0 1 .985-.051 11.78 11.78 0 0 1 2.72.352c2.233.55 5.158 1.904 7.957 5.113 2.75 3.153 6.463 5.959 9.496 7.981a74.186 74.186 0 0 0 3.821 2.382 60.018 60.018 0 0 0 1.486.833l.034.018.02.01.006.003-.097.186-.098.186-.001-.001-.005-.003-.021-.011-.081-.043a53.485 53.485 0 0 1-1.452-.816 74.86 74.86 0 0 1-3.843-2.395c-3.045-2.03-6.793-4.861-9.579-8.054-2.738-3.138-5.585-4.45-7.741-4.981a11.327 11.327 0 0 0-2.623-.34 7.899 7.899 0 0 0-.737.027c-.084.007-.149.015-.192.02l-.047.007-.011.002h-.002zM75.379 5.672l-.103-.183-.103-.183.001-.001.003-.002.01-.005.033-.017a2.75 2.75 0 0 1 .558-.184 3.758 3.758 0 0 1 1.584.017c1.334.285 3.13 1.306 5.109 4.171.721 1.043 1.403 2.099 2.084 3.153 3.04 4.705 6.05 9.363 12.291 12.648 3.849 2.026 5.574 2.973 6.338 3.414.374.216.533.319.595.372.009.008.021.018.032.031a.212.212 0 0 1 .003.295c-.057.061-.129.066-.142.067-.039.003-.073-.006-.077-.007l-.015-.004-.005-.002-.002-.001h-.001l.066-.199.066-.199h-.002l-.002-.001-.005-.001c-.002 0-.006-.002-.013-.002a.17.17 0 0 0-.04-.002h-.001c-.011.001-.079.005-.134.064a.204.204 0 0 0-.007.272l.007.007c-.027-.023-.147-.105-.532-.328-.756-.436-2.474-1.38-6.323-3.406-6.347-3.341-9.423-8.106-12.466-12.818-.676-1.047-1.35-2.091-2.058-3.116-1.938-2.807-3.653-3.744-4.851-3.999a3.36 3.36 0 0 0-1.408-.017 2.315 2.315 0 0 0-.372.111c-.041.016-.072.031-.092.04l-.021.01-.004.002zm0 0z"/><path style="fill:var(--color1,#000)" d="M94.948 20.915c-4.506.751-10 1.682-13.954 2.405-3.979.728-11.093.803-17.193.698a333.619 333.619 0 0 1-10.332-.344l-.663-.034a129.87 129.87 0 0 0-.173-.009l-.059-.003.011-.209.012-.209.058.003.172.009.662.034a332.956 332.956 0 0 0 10.317.344c6.108.105 13.179.027 17.11-.691 3.957-.724 9.454-1.655 13.96-2.406a2213.26 2213.26 0 0 1 7.405-1.22l.46-.075.16-.026.034.207.033.207-.16.026-.46.075a1730.818 1730.818 0 0 0-7.403 1.22zM82.998 17.337c-1.629.59-3.307 1.186-5.1 1.72-1.818.542-4.568.75-7.65.764-3.088.014-6.532-.167-9.748-.414a225.97 225.97 0 0 1-11.006-1.13l-.716-.093-.187-.025-.064-.009.028-.208.029-.208.063.009.186.025.714.093a225.856 225.856 0 0 0 10.985 1.127c3.21.247 6.641.427 9.714.413 3.079-.014 5.776-.224 7.533-.747 1.781-.53 3.45-1.123 5.077-1.712l.62-.225c1.411-.512 2.799-1.016 4.206-1.465 3.227-1.031 6.56-1.779 10.546-1.702l-.008.419c-3.924-.076-7.209.66-10.41 1.683-1.398.447-2.778.947-4.19 1.46l-.621.225z"/><path style="fill:var(--color1,#000)" d="M78.128 14.842c-1.216.638-2.252 1.182-3.015 1.54-.506.237-1.341.37-2.385.434-1.053.064-2.347.059-3.789.003-2.884-.111-6.377-.423-9.749-.789s-6.629-.787-9.042-1.117a355.52 355.52 0 0 1-3.7-.525l-.211-.032-.072-.011.031-.207.032-.207.072.011.21.031.802.118c.693.101 1.688.242 2.893.407 2.41.329 5.662.75 9.03 1.115s6.85.677 9.72.787c1.435.055 2.714.06 3.747-.003 1.042-.063 1.806-.195 2.232-.395.753-.354 1.778-.892 2.993-1.53l.868-.455c1.593-.833 3.436-1.784 5.361-2.684 3.84-1.796 8.041-3.412 11.247-3.49l.01.42c-3.108.075-7.236 1.653-11.079 3.45-1.916.896-3.752 1.843-5.344 2.676l-.863.452z"/><path style="fill:var(--color1,#000)" d="M86.464 5.639c-2.193 1-4.465 2.416-6.476 3.809-2.022 1.402-4.285 2.749-6.041 3.744a115.869 115.869 0 0 1-2.785 1.526l-.166.087-.043.022-.014.007h-.001l-.096-.186.096.186-.039.02-.044.003c-5.409.351-8.385-.569-10.793-1.671-.549-.251-1.065-.51-1.57-.763-1.71-.857-3.301-1.654-5.673-1.919A49.109 49.109 0 0 1 45.11 9a39.777 39.777 0 0 1-2.221-.69 28.063 28.063 0 0 1-.594-.212l-.154-.058a.634.634 0 0 0-.04-.015l-.01-.004-.003-.001h-.001l.078-.195.078-.195.002.001.009.004a39.88 39.88 0 0 0 2.969.963 48.597 48.597 0 0 0 7.642 1.491c2.452.275 4.124 1.113 5.847 1.976.497.249.998.5 1.524.741 2.34 1.071 5.238 1.976 10.547 1.637a111.331 111.331 0 0 0 2.957-1.615c1.75-.993 4.001-2.332 6.008-3.724 2.02-1.4 4.315-2.831 6.541-3.846 2.218-1.011 4.401-1.625 6.184-1.346l-.065.415c-1.656-.259-3.744.31-5.945 1.313z"/><path style="fill:var(--color1,#000)" d="M116.601 27.799c-.648-.351-1.333-.629-1.954-1.038-.182-.12-.466-.088-.644-.241-.378-.326-.885-.397-1.278-.691-.185-.138-.38-.283-.596-.355-.684-.232-1.252-.684-1.908-.974-.729-.322-1.371-.81-2.024-1.265-.27-.187-.578-.298-.846-.474-.59-.387-1.199-.746-1.792-1.127-.659-.424-1.245-.944-1.926-1.344-.515-.301-.996-.719-1.427-1.144-.758-.746-1.651-1.341-2.322-2.191-.382-.485-.74-.973-1.062-1.499-.201-.327-.329-.691-.532-1.007-.227-.354-.375-.743-.548-1.115-.288-.617-.547-1.244-.919-1.818a6.624 6.624 0 0 1-.537-.962c-.274-.639-.684-1.202-.995-1.821-.257-.512-.614-.978-.946-1.453-.554-.793-1.069-1.604-1.676-2.365-.639-.803-1.339-1.537-2.042-2.277a7.238 7.238 0 0 0-2.239-1.597c-.571-.263-1.148-.42-1.777-.406-.441.01-.881.106-1.308.117-.953.025-1.848.306-2.757.495-.855.178-1.715.411-2.51.827-.19.099-.371.231-.579.302-.95.327-1.792.862-2.626 1.402-.746.483-1.455 1.021-2.198 1.508-.687.45-1.427.814-2.082 1.319-.711.548-1.418 1.102-2.125 1.658-.403.318-.732.723-1.129 1.021-.687.515-1.209 1.202-1.937 1.677-.54.352-1.052.753-1.614 1.08-.536.312-1.091.588-1.656.837-.371.164-.719.434-1.174.347-.094-.018-.206.029-.301.069-.227.091-.478.116-.684.035-.347-.136-.711-.203-1.055-.329-.722-.266-1.339-.737-2.006-1.109-.543-.304-1.024-.727-1.554-1.048-.751-.455-1.46-.969-2.164-1.483a52.84 52.84 0 0 0-2.595-1.797c-.838-.537-1.653-1.132-2.586-1.527a8.197 8.197 0 0 1-.779-.367c-.162-.091-.229-.295-.435-.336-.478-.095-.906-.343-1.354-.516-.81-.313-1.67-.35-2.496-.568-.688-.183-1.402-.315-2.09-.519-.259-.077-.537-.021-.778-.165-.478-.288-1.041-.354-1.55-.581a15.423 15.423 0 0 0-1.448-.537c-.178-.059-.38-.013-.534-.137-.421-.337-.951-.446-1.43-.653-.477-.207-.944-.484-1.481-.54-.266-.028-.446-.283-.688-.306-.617-.063-1.13-.457-1.748-.498-.699-.045-1.326-.446-2.095-.262-.593.143-1.227.175-1.839.302-.818.171-1.541.561-2.258.951-.8.436-1.455 1.094-2.172 1.648a11.051 11.051 0 0 0-2.165 2.212c-.239.326-.462.692-.754.948-.441.386-.771.856-1.157 1.281-.28.306-.513.655-.764.986-.397.526-.793 1.055-1.188 1.582-.338.452-.692.89-1.058 1.322-.596.706-1.074 1.508-1.733 2.167-.108.108-.187.236-.281.353a14.682 14.682 0 0 1-1.477 1.586c-.196.178-.404.338-.562.551-.534.72-1.204 1.311-1.855 1.915-.712.662-1.495 1.246-2.2 1.915-.445.421-.891.845-1.322 1.274-1.037 1.034-2.265 1.849-3.255 2.929a2.958 2.958 0 0 1-.305.287c-.85.697-1.722 1.369-2.549 2.094-.643.562-1.258 1.158-1.922 1.698-.12.098-.305.178-.238.383.069.213.267.151.418.152.8.004 1.595-.052 2.392-.115 1.793-.14 3.594.043 5.398-.133 1.858-.182 3.732-.006 5.606-.137 2.803-.196 5.623.102 8.436-.157 1.558-.144 3.128.031 4.7-.123 1.858-.183 3.735.073 5.605-.152 1.276-.154 2.572.091 3.859-.14.655-.118 1.337-.074 2.007-.122 1.362-.095 2.735-.05 4.103-.164.788-.064 1.583-.013 2.375-.015.116 0 .243.021.347-.018.793-.295 1.673.082 2.448-.325 1.989.094 3.967-.221 5.956-.147.14.006.289.022.417-.018.323-.105.529.032.718.273.278.355.579.699.883 1.027.628.678 1.189 1.418 1.905 2.021.495.417.874.965 1.348 1.411.597.561 1.106.224 1.347.245-.249-.087-.737.036-1.333-.567-3.317-3.35-11.116-13.739-11.235-13.978-.147-.292-5.562-9.076-5.562-9.076l-4.977-5.781 4.977 1.83s3.338.359 5.385 1.21 11.556 6.917 11.556 6.917 2.164 1.778 4.174 1.313 6.917-4.522 6.917-4.522 5.913-5.062 8.695-6.145c2.782-1.083 6.499-2.213 8.1-1.841 0 0 3.174-.46 7.509 6.917s3.817 8.175 7.845 11.581c5.573 4.713 13.771 8.124 13.771 8.124s-25.984 1.684-29.307 2.458c-3.322.774-27.417 1.23-27.098 1.635 1.157-.071 2.315.069 3.479-.118.911-.145 1.851-.087 2.775-.125 2.483-.102 4.973-.007 7.458-.175.684-.046 1.374-.007 2.062-.01.116 0 .235.004.348-.017a16.57 16.57 0 0 1 2.374-.256c1.123-.048 2.244.025 3.374-.106 1.074-.126 2.165-.111 3.244-.291.776-.13 1.568-.046 2.367-.183.967-.165 1.972-.197 2.961-.298 1.045-.106 2.095-.151 3.139-.299.88-.126 1.77-.145 2.652-.269.807-.113 1.655.088 2.434-.292 1.002.096 1.984-.196 2.985-.154.344.015.685.007 1.034-.097.269-.08.562-.166.846-.165 1.242.007 2.47-.119 3.7-.277.572-.074 1.151-.066 1.729-.123 1.116-.111 2.248.006 3.368-.167.61-.094 1.232-.141 1.851-.014a.746.746 0 0 0 .345-.021c.627-.187 1.291-.08 1.921-.248.116 0 .233.004.35 0 .104-.004.226.003.26-.126.031-.123-.061-.199-.152-.249l-.004.004zm-63.699-2.906c.092.119.207.224.28.352.182.32.436.565.722.789.087.067.197.157.138.291-.05.116-.176.087-.277.101-1.374.183-2.754.13-4.134.141-.14 0-.28-.003-.411.059-.243.116-.495.082-.747.056-.011-.031-.022-.062-.034-.091.406-.192.811-.383 1.216-.576.434-.209.857-.441 1.302-.623.491-.201.92-.527 1.438-.676.235-.067.376.008.508.178l-.001-.001zm-3.791-4.851c.366.53.747 1.048 1.155 1.548.664.814 1.329 1.634 1.925 2.504.122.178.092.297-.087.348-.462.133-.857.407-1.273.62-.408.208-.838.368-1.242.588-.699.379-1.437.694-2.165 1.017-.13.057-.298.035-.449.035a23.294 23.294 0 0 0-3.49.266c-.104.015-.21.01-.313.01-.862.003-1.723 0-2.586.007-.297.001-.603-.055-.867.168-.066.056-.201.036-.305.038-.501.004-1.004.032-1.502-.003-1.119-.078-2.224.118-3.332.183-.645.038-1.293.071-1.939.096-.106.004-.231.045-.313-.052.692-.386 1.445-.624 2.178-.905 1.227-.469 2.49-.853 3.694-1.372.79-.341 1.614-.608 2.377-1.02.343-.185.74-.259 1.101-.425 1.22-.561 2.452-1.097 3.644-1.718.741-.386 1.512-.725 2.193-1.214.336-.242.704-.445.979-.771.252-.297.4-.264.617.05l.001.001zM40.788 7.13c.25.42.628.736.866 1.172.277.505.65.955.976 1.432.636.93 1.307 1.841 1.855 2.826.4.719.813 1.427 1.244 2.126.18.294.267.634.466.926.557.821 1.007 1.708 1.604 2.505.235.313.388.684.66.978.148.16.145.339-.05.511-.594.519-1.209.999-1.942 1.318a4.415 4.415 0 0 0-.837.494c-.388.285-.85.404-1.267.623-.491.257-.976.532-1.505.706-.596.196-1.136.525-1.744.695-.234.066-.399.274-.641.379a95.03 95.03 0 0 1-3.514 1.413c-.96.371-1.956.655-2.898 1.064-.504.22-1.035.354-1.535.596-.67.325-1.369.555-2.168.611-2.733.192-5.469-.024-8.193.141-1.209.073-2.412.049-3.616.108-.312.015-.596.224-.926.122-.183-.029-.488.11-.533-.076-.048-.196.271-.236.438-.32.704-.353 1.312-.859 2.005-1.228.653-.35 1.263-.771 1.923-1.115.49-.255.964-.547 1.412-.884.526-.397 1.091-.741 1.641-1.105 1.06-.699 2.149-1.357 3.147-2.146.916-.723 1.87-1.4 2.754-2.16.337-.29.706-.554 1.002-.899.249-.29.523-.561.88-.73.148-.07.256-.199.358-.329.855-1.084 1.585-2.253 2.353-3.396.175-.26.329-.537.459-.821.278-.611.778-1.06 1.154-1.599.418-.597.93-1.129 1.365-1.707a8.91 8.91 0 0 1 1.744-1.768c.197-.15.406-.305.575-.497.176-.199.368-.175.491.029l-.003.004zm-2.912-3.332c.464.485.946.958 1.4 1.453.35.379.596.831.965 1.186.168.162.045.285-.083.368-.441.287-.796.677-1.213.988-.492.366-.838.853-1.241 1.294-.562.615-.996 1.34-1.54 1.964-.734.842-1.193 1.844-1.803 2.754-.456.681-.9 1.372-1.381 2.04-.505.701-1.129 1.271-1.757 1.825-.874.771-1.702 1.603-2.719 2.212-.295.176-.571.431-.827.678-.246.238-.532.413-.807.602-.715.488-1.428.978-2.163 1.435-.834.519-1.62 1.109-2.456 1.627-.608.376-1.245.702-1.846 1.098-.69.455-1.358.978-2.119 1.3-.725.306-1.308.814-1.986 1.176-.168.09-.333.092-.505.092-1.701.003-3.407-.094-5.1.028-2.686.193-5.37.034-8.052.138-.512.02-1.031.122-1.553.113-.087 0-.211.035-.242-.08-.027-.099.076-.167.148-.218.694-.488 1.228-1.158 1.891-1.677a45.58 45.58 0 0 0 2.277-1.879c.309-.276.625-.54.902-.857.325-.371.744-.657 1.115-.99.484-.432 1.01-.813 1.474-1.273.821-.815 1.672-1.6 2.547-2.36.916-.796 1.797-1.638 2.593-2.564.309-.359.722-.63 1.031-.988.941-1.095 1.995-2.097 2.763-3.339.197-.32.529-.537.758-.849.595-.811 1.214-1.606 1.82-2.409.442-.586.838-1.211 1.404-1.716.368-.327.68-.751.979-1.158a9.233 9.233 0 0 1 1.203-1.334c.522-.48 1.017-.989 1.535-1.474.322-.302.729-.443 1.055-.733a6.202 6.202 0 0 1 1.393-.964c1.077-.527 2.172-.936 3.43-.776.915-.168 1.804.105 2.651.435.655.256 1.28.609 1.862 1.045.374.281.747.572 1.135.834.403.271.732.611 1.059.954h.002z"/><path style="fill:var(--color1,#000)" opacity=".49" d="M59.54 31.875c.069.024.123.027.161.003a.954.954 0 0 1-.161-.003z"/></symbol><symbol id="icon-pets" viewBox="0 0 37 32"><path fill="#4b4b4b" style="fill:var(--color5,#4b4b4b)" d="M31.685 8.248a4.483 4.483 0 0 0-4.139 2.766 4.478 4.478 0 0 0 5.853 5.853 4.486 4.486 0 0 0 2.766-4.139 4.48 4.48 0 0 0-4.48-4.48zm0 6.4a1.91 1.91 0 0 1-1.774-1.185 1.923 1.923 0 0 1 .416-2.092 1.919 1.919 0 0 1 2.954.291 1.921 1.921 0 0 1-1.596 2.987zm-22.4-1.92a4.483 4.483 0 0 0-2.766-4.139 4.478 4.478 0 0 0-5.853 5.853 4.48 4.48 0 0 0 8.619-1.714zm-4.48 1.92a1.91 1.91 0 0 1-1.774-1.185 1.923 1.923 0 0 1 .416-2.092 1.922 1.922 0 0 1 3.278 1.358 1.921 1.921 0 0 1-1.92 1.92zm7.68-5.12a4.483 4.483 0 0 0 4.139-2.766A4.478 4.478 0 0 0 10.771.909a4.486 4.486 0 0 0-2.766 4.139 4.48 4.48 0 0 0 4.48 4.48zm0-6.4a1.921 1.921 0 0 1 .375 3.803 1.923 1.923 0 0 1-2.295-1.883 1.921 1.921 0 0 1 1.92-1.92zm11.52 6.4a4.483 4.483 0 0 0 4.139-2.766A4.478 4.478 0 0 0 22.291.909a4.486 4.486 0 0 0-2.766 4.139 4.48 4.48 0 0 0 4.48 4.48zm0-6.4a1.921 1.921 0 0 1 .375 3.803 1.922 1.922 0 0 1-2.294-1.883 1.921 1.921 0 0 1 1.92-1.92zm3.7 16.138a5.656 5.656 0 0 1-2.699-3.382 7.046 7.046 0 0 0-6.76-5.075 7.04 7.04 0 0 0-6.76 5.075 5.639 5.639 0 0 1-2.68 3.376 6.397 6.397 0 0 0-3.159 7.197 6.396 6.396 0 0 0 8.682 4.331 10.251 10.251 0 0 1 7.819 0 6.396 6.396 0 0 0 8.317-3.088 6.402 6.402 0 0 0-2.76-8.432v-.002zm-3.06 9.462a3.85 3.85 0 0 1-1.512-.309 12.82 12.82 0 0 0-9.79 0 3.838 3.838 0 0 1-4.982-1.869 3.841 3.841 0 0 1 1.668-5.052 8.19 8.19 0 0 0 3.913-4.907 4.485 4.485 0 0 1 4.302-3.231 4.478 4.478 0 0 1 4.302 3.231 8.196 8.196 0 0 0 3.925 4.914 3.838 3.838 0 0 1-1.828 7.223z"/></symbol><symbol id="icon-phone" viewBox="0 0 32 32"><path fill="none" stroke="#fd6103" style="stroke:var(--color4,#fd6103)" stroke-miterlimit="10" stroke-width="2" d="M29.293 24.44c0 .48-.107.973-.333 1.453s-.52.933-.907 1.36c-.653.72-1.373 1.24-2.187 1.573-.8.333-1.667.507-2.6.507-1.36 0-2.813-.32-4.347-.973s-3.067-1.533-4.587-2.64a38.332 38.332 0 0 1-4.373-3.733 37.98 37.98 0 0 1-3.72-4.36c-1.093-1.52-1.973-3.04-2.613-4.547-.64-1.52-.96-2.973-.96-4.36 0-.907.16-1.773.48-2.573.32-.813.827-1.56 1.533-2.227.853-.84 1.787-1.253 2.773-1.253.373 0 .747.08 1.08.24.347.16.653.4.893.747l3.093 4.36c.24.333.413.64.533.933.12.28.187.56.187.813 0 .32-.093.64-.28.947a4.52 4.52 0 0 1-.747.947l-1.013 1.053a.712.712 0 0 0-.213.533c0 .107.013.2.04.307.04.107.08.187.107.267.24.44.653 1.013 1.24 1.707.6.693 1.24 1.4 1.933 2.107.72.707 1.413 1.36 2.12 1.96.693.587 1.267.987 1.72 1.227.067.027.147.067.24.107a.92.92 0 0 0 .333.053c.227 0 .4-.08.547-.227l1.013-1c.333-.333.653-.587.96-.747.307-.187.613-.28.947-.28.253 0 .52.053.813.173s.6.293.933.52l4.413 3.133c.347.24.587.52.733.853.133.333.213.667.213 1.04z"/></symbol><symbol id="icon-photo" viewBox="0 0 36 32"><path fill="#4b4b4b" style="fill:var(--color5,#4b4b4b)" d="M31.006 5.274h-4.62l-2.272-3.407a1.337 1.337 0 0 0-1.108-.593H12.339a1.346 1.346 0 0 0-1.108.593L8.958 5.274H4.34a4.003 4.003 0 0 0-4 4v18.667a4.003 4.003 0 0 0 4 4h26.667a4.003 4.003 0 0 0 4-4V9.274a4.003 4.003 0 0 0-4-4zm1.333 22.667a1.334 1.334 0 0 1-1.334 1.334H4.338a1.334 1.334 0 0 1-1.334-1.334V9.274A1.335 1.335 0 0 1 4.338 7.94h5.333a1.336 1.336 0 0 0 1.11-.593l2.27-3.407h9.238l2.272 3.407a1.334 1.334 0 0 0 1.11.593h5.333a1.335 1.335 0 0 1 1.334 1.334v18.667zM17.672 10.607a7.332 7.332 0 0 0-1.43 14.526 7.334 7.334 0 0 0 8.764-7.192 7.345 7.345 0 0 0-7.333-7.333zm0 12a4.668 4.668 0 0 1-3.301-7.966 4.668 4.668 0 1 1 3.299 7.968z"/></symbol><symbol id="icon-wi_fi" viewBox="0 0 42 32"><path fill="#4b4b4b" style="fill:var(--color5,#4b4b4b)" d="M22.915 29.754a2.179 2.179 0 0 1-2.608 2.139 2.177 2.177 0 0 1-1.714-1.714 2.186 2.186 0 0 1 .928-2.24 2.181 2.181 0 0 1 3.394 1.814zM40.566 8.482a31.27 31.27 0 0 0-39.666 0 1.453 1.453 0 0 0 .238 2.408 1.456 1.456 0 0 0 1.609-.159 28.36 28.36 0 0 1 35.97 0 1.459 1.459 0 0 0 2.049-.201c.245-.298.361-.682.324-1.066s-.226-.738-.525-.982zm-5.833 6.503a22.547 22.547 0 0 0-27.989 0 1.456 1.456 0 0 0 1.808 2.28 19.635 19.635 0 0 1 24.374 0 1.443 1.443 0 0 0 1.071.305 1.452 1.452 0 0 0 1.232-1.046 1.462 1.462 0 0 0-.128-1.106 1.442 1.442 0 0 0-.368-.432zm-5.865 6.502a13.828 13.828 0 0 0-16.258 0 1.455 1.455 0 1 0 1.713 2.353 10.91 10.91 0 0 1 12.832 0 1.467 1.467 0 0 0 1.082.261 1.454 1.454 0 0 0 .63-2.613z"/></symbol><symbol id="icon-burger1" viewBox="0 0 32 32"><path stroke-linejoin="round" stroke-linecap="round" stroke-width="2" d="M28 13.333H4M28 8H4M28 18.667H4M28 24H4"/></symbol><symbol id="icon-dessert_chimney" viewBox="0 0 31 32"><path fill="#a19994" style="fill:var(--color1,#a19994)" d="M34.243 9.805c-1.222-.273-2.457-.479-3.697-.617s-2.464-.207-3.694-.208c-1.105-.001-2.242.027-3.257.394-.907.329-1.692 1.005-1.892 1.889-.048.21-.063.43-.032.647s.122.47.354.604c.11.063.242.08.358.041.138-.045.213-.149.259-.269.067-.175.087-.354.239-.49a.359.359 0 0 1 .208-.098l-.168-.089c.15.213.009.484.039.711.036.278.222.574.57.59.06.003.135-.028.159-.078.155-.326.304-.655.465-.979.021-.043.045-.11.092-.136.029-.017.038-.009.062.012.107.093.076.241.063.354-.017.166-.019.327.079.482a.524.524 0 0 0 .417.246c.388.006.533-.434.637-.691.094-.23.247-.572.587-.549l-.196-.173.064.701c.018.193-.002.438.122.613.131.186.382.221.582.137.187-.079.288-.226.369-.388.056-.112.116-.274.281-.274.181 0 .39.093.551.168.374.177.688.436.957.727s.483.62.679.952c.109.185.221.369.367.536.154.175.342.317.543.447.825.535 1.746 1.01 2.718 1.262a6.418 6.418 0 0 0 3.091.036c.23-.055.121-.383-.11-.327a5.959 5.959 0 0 1-2.602.037c-.944-.197-1.81-.625-2.62-1.111-.191-.115-.385-.229-.553-.37s-.286-.3-.394-.474c-.209-.334-.398-.671-.653-.983s-.547-.593-.895-.822a2.929 2.929 0 0 0-.555-.283c-.185-.072-.394-.143-.593-.129-.237.016-.394.156-.493.335-.07.127-.118.315-.287.366-.027.008-.047.01-.056.003-.018-.014-.024-.039-.029-.06-.027-.104-.024-.216-.034-.322l-.071-.767c-.008-.094-.089-.166-.196-.173-.35-.023-.63.196-.783.448-.089.146-.142.308-.209.463a1.258 1.258 0 0 1-.111.208c-.025.037-.066.112-.121.12-.088.014-.12-.173-.118-.233.003-.167.054-.334-.007-.501a.563.563 0 0 0-.364-.352.441.441 0 0 0-.471.164c-.114.147-.175.335-.253.5l-.284.599.159-.078c-.063-.003-.109-.054-.142-.127a.585.585 0 0 1-.035-.306c.022-.235.058-.472-.096-.691-.034-.048-.102-.094-.168-.089a.775.775 0 0 0-.575.304c-.063.08-.108.169-.145.261-.034.087-.04.191-.085.273a.137.137 0 0 1-.041.042c.009-.006.034.019-.009-.003.022.011-.024-.015-.012-.007-.081-.052-.125-.152-.145-.233a1.357 1.357 0 0 1-.009-.553c.145-.818.849-1.434 1.67-1.748.918-.351 1.974-.376 2.98-.38a33.404 33.404 0 0 1 7.452.81c.238.053.326-.268.087-.321l.001.001zM29.692 29.001c-.861-.926-1.632-1.916-2.305-2.952s-1.249-2.119-1.716-3.233a19.62 19.62 0 0 1-.75-2.128c-.04-.138-.067-.281-.12-.417a.528.528 0 0 0-.322-.328.576.576 0 0 0-.461.05c-.299.174-.332.547-.403.837l-.125.514-.059.241-.027.113c-.01.039-.035.091-.033.131.001.023.004.004.03-.007.032-.014.027.017.011-.008-.014-.022-.061-.06-.079-.097-.048-.1-.044-.227-.05-.331-.014-.247.002-.496-.039-.744s-.142-.512-.364-.694c-.251-.206-.596-.213-.805.009s-.26.51-.343.775l-.313.997-.155.491.314-.065c-.183-.185-.176-.457-.18-.679-.004-.278-.025-.548-.179-.806s-.425-.422-.737-.392c-.275.027-.469.214-.584.422-.141.253-.192.539-.261.816l-.128.518c-.016.063-.025.133-.053.193a.29.29 0 0 1-.021.035c-.031.076-.016.008-.012.011-.005-.003.043 0 .039.002-.011.007-.045-.086-.049-.103-.017-.068-.017-.139-.021-.207-.01-.175-.009-.35.003-.523.01-.155.057-.323-.029-.473s-.26-.219-.433-.193c-.323.048-.505.331-.637.568a2.676 2.676 0 0 0-.297.828c-.106.585-.04 1.198.156 1.779.408 1.212 1.375 2.229 2.379 3.117 1.1.972 2.279 1.904 3.592 2.636.161.09.323.176.489.259.217.109.399-.174.181-.284-1.299-.656-2.451-1.519-3.534-2.436-.988-.836-1.978-1.742-2.535-2.859-.259-.518-.403-1.08-.402-1.634s.138-1.103.493-1.517a.418.418 0 0 1 .18-.123c.002 0 .047-.01.033-.006.024-.005.017.008.012.002-.013-.017-.002.056-.003.067-.002.082-.015.162-.021.243a4.231 4.231 0 0 0-.007.491c.007.144.009.295.074.432s.199.266.38.264c.181-.003.292-.121.349-.259s.081-.29.116-.434l.124-.502c.056-.23.104-.463.254-.653.1-.127.28-.21.449-.09.195.137.251.408.258.609.009.253-.01.513.079.762.046.129.119.243.221.345s.278.049.314-.065l.309-.982c.097-.31.179-.629.296-.933a.637.637 0 0 1 .141-.229c.057-.052.116-.079.209-.022.199.122.269.365.292.559.029.238.014.475.031.712s.063.541.341.684c.145.075.316.061.418-.05.107-.116.117-.31.152-.455.08-.33.159-.66.242-.99.027-.11.055-.257.163-.327.071-.047.157-.051.201.026.063.112.08.253.113.372a19.428 19.428 0 0 0 .718 2.076c.451 1.099 1.004 2.171 1.652 3.198a22.14 22.14 0 0 0 2.525 3.271c.067.072.201.066.267.009.076-.067.06-.165-.007-.237l.003.003zM14.535 21.987c1.086.216 2.196.287 3.295.204.094-.007.174-.071.172-.166-.002-.085-.084-.174-.178-.168a11.833 11.833 0 0 1-3.202-.191c-.093-.019-.188.024-.213.116-.022.082.033.187.126.206v.001z"/><path fill="#a19994" style="fill:var(--color1,#a19994)" d="M25.635 22.28a65.307 65.307 0 0 0 2.474-.232c.701-.08 1.442-.163 1.928-.622.473-.445.65-1.074.764-1.671.13-.682.16-1.382.135-2.083-.029-.79-.125-1.583-.224-2.373a.194.194 0 0 0-.19-.162c-.093-.003-.184.066-.174.151.167 1.347.341 2.716.152 4.043-.082.58-.201 1.205-.571 1.689-.17.223-.404.391-.69.498s-.635.155-.961.194c-.882.106-1.77.19-2.661.257-.097.007-.178.059-.174.151.004.076.093.169.19.162v-.001z"/><path fill="#a19994" style="fill:var(--color1,#a19994)" d="M27.617 21.242c.342-1.191.1-2.468-.247-3.688s-.71-2.434-1.503-3.504a5.245 5.245 0 0 0-1.596-1.438c-.102-.059-.228-.008-.255.081l-1.709 5.374-.486 1.527c-.058.183.287.274.345.092l1.709-5.374.486-1.527-.255.081c1.126.646 1.817 1.698 2.256 2.747.244.584.43 1.182.606 1.779s.33 1.187.409 1.786c.088.668.08 1.338-.103 1.974-.053.184.292.276.345.092h-.001zM21.756 20.269a11.943 11.943 0 0 0-.469-3.62c-.169-.588-.375-1.174-.655-1.734s-.637-1.021-1.108-1.45c-.471-.429-1.029-.842-1.357-1.389-.117-.196-.438-.037-.322.158.294.491.755.877 1.198 1.263.217.19.433.384.624.596.204.227.372.48.516.738.295.528.498 1.097.672 1.66s.313 1.161.401 1.749c.1.672.14 1.347.123 2.019-.006.215.372.224.377.009z"/><path fill="#a19994" style="fill:var(--color1,#a19994)" d="M21.324 11.291c-1.328-.009-2.657-.019-3.98.052-.61.033-1.237.058-1.831.179-.271.055-.54.14-.776.272s-.444.321-.612.534c-.327.413-.528.921-.691 1.409a7.46 7.46 0 0 0-.324 1.462c-.121 1.017-.045 2.054.196 3.067a10.438 10.438 0 0 0 1.397 3.244c.12.186.426.028.306-.159a10.324 10.324 0 0 1-1.255-2.761 8.712 8.712 0 0 1-.328-2.939c.031-.481.11-.957.235-1.422s.293-.937.534-1.364c.122-.217.268-.422.459-.592s.414-.281.66-.357c.533-.163 1.12-.187 1.681-.223 1.281-.084 2.57-.085 3.857-.077l.483.003c.23.001.221-.328-.01-.329v.001z"/><path fill="#a19994" style="fill:var(--color1,#a19994)" d="M15.366 21.477c.796-1.16 1.508-2.401 1.864-3.756a6.74 6.74 0 0 0-.089-3.77 7.136 7.136 0 0 0-.92-1.873c-.117-.17-.402-.021-.284.149a6.686 6.686 0 0 1 1.179 3.315c.091 1.321-.269 2.604-.847 3.779a15.979 15.979 0 0 1-1.191 1.994c-.113.165.176.325.289.161l.001.001zM17.242 11.941a6.23 6.23 0 0 1 .898 2.107c.02.09.145.144.236.125.106-.023.145-.112.126-.202a6.47 6.47 0 0 0-.938-2.187c-.127-.192-.448-.034-.322.158v-.001zM18.89 15.135l-.95 5.062-.27 1.437a.182.182 0 0 0 .14.209c.094.025.21-.023.227-.112l.95-5.062.27-1.437a.183.183 0 0 0-.14-.21c-.094-.025-.21.023-.227.112zM2.838 2.058c-.009.083-.043.147-.102.193s-.138.073-.237.085c-.06.007-.115.005-.164-.005s-.092-.029-.128-.054c-.036-.026-.065-.06-.087-.101s-.036-.088-.043-.142l-.002-.017c-.006-.056-.003-.106.009-.152s.033-.085.062-.118c.029-.034.067-.061.112-.082s.098-.036.158-.043c.051-.006.098-.006.141-.001s.082.017.115.034a.262.262 0 0 1 .138.175l-.104.012c-.009-.024-.023-.046-.04-.064s-.038-.035-.062-.047c-.024-.013-.05-.021-.081-.026s-.062-.005-.097-.001c-.047.005-.087.017-.12.035s-.061.04-.082.067-.035.059-.044.095a.33.33 0 0 0-.004.114c.005.039.014.075.03.106s.037.059.064.08.058.037.095.047a.363.363 0 0 0 .125.006c.071-.008.128-.028.171-.061s.069-.074.076-.124l.102-.012zm.186-.014.024.207-.089.01-.059-.509.089-.01.025.22.371-.043L3.36 1.7l.089-.011.059.509-.088.01-.024-.207-.372.043zm.836-.616.013.11-.12.014-.013-.11.12-.014zm.232.623.009.079-.506.058-.009-.079.257-.03-.041-.351-.183.021-.009-.08.274-.032.05.431.158-.018zm.156.062.013.112-.089.01-.022-.191.009-.001c.019-.003.035-.009.048-.018s.022-.024.029-.043.011-.043.013-.073a.983.983 0 0 0 0-.109l-.009-.202.442-.051.05.43.084-.01.021.191-.089.01-.013-.111-.486.055zm.09-.292a.502.502 0 0 1-.025.204l.328-.038-.04-.351-.269.031.006.154zm.982.024c.006.054-.007.098-.037.13s-.075.051-.138.059l-.033.004c-.063.007-.113-.001-.151-.025s-.061-.066-.069-.124c-.007-.057.006-.101.038-.132s.079-.051.142-.058l.295-.034c-.006-.028-.017-.05-.032-.066a.162.162 0 0 0-.109-.054.261.261 0 0 0-.056 0l-.01.001c-.017.002-.035.005-.053.01a.236.236 0 0 0-.096.053.093.093 0 0 0-.026.049l-.094.011c0-.025.007-.049.019-.071s.031-.042.053-.06c.023-.018.05-.033.081-.045s.066-.02.102-.024l.008-.001c.05-.006.093-.005.13.003s.067.022.092.043c.025.021.045.049.059.085s.025.078.031.128l.028.246-.089.01-.028-.239-.099.01a.162.162 0 0 1 .04.095zm-.338.032c.004.031.016.053.035.067s.048.018.086.013l.033-.004c.037-.004.063-.015.079-.032s.022-.042.02-.073c-.005-.031-.016-.053-.035-.066s-.047-.017-.085-.013l-.033.004c-.038.004-.065.015-.081.032s-.022.041-.019.072zm.723-.142.024.207-.089.01-.059-.509.089-.01.025.22.371-.043-.025-.219.089-.011.059.509-.088.01-.024-.207-.372.043zm1.16-.18c.005.047.001.089-.01.126a.242.242 0 0 1-.144.157.436.436 0 0 1-.249.029.263.263 0 0 1-.102-.04c-.029-.02-.053-.047-.072-.08s-.031-.074-.037-.121c-.005-.047-.003-.089.008-.126s.028-.069.051-.095c.024-.027.054-.048.09-.064a.443.443 0 0 1 .251-.03.255.255 0 0 1 .177.123.336.336 0 0 1 .038.123zm-.523.058c.009.069.034.118.074.146s.095.038.163.03.119-.03.153-.066c.034-.036.048-.089.041-.159-.009-.07-.035-.118-.077-.146s-.097-.038-.165-.031-.118.03-.151.067c-.032.036-.045.089-.038.159zm.71-.033.024.207-.089.01-.059-.509.089-.01.026.223.219-.025.117-.239.105-.012-.137.273.229.232-.109.013-.187-.189-.227.026zM16.734.33l-.22.549-.088-.035.252-.628.601.241-.252.628-.088-.035.22-.549-.425-.171zm1.021.89c-.019.022-.042.04-.067.052s-.053.021-.083.024c-.029.004-.06.003-.093-.003a.516.516 0 0 1-.209-.091.233.233 0 0 1-.098-.189.326.326 0 0 1 .025-.124c.018-.044.04-.08.068-.107s.06-.047.094-.058c.035-.012.073-.016.113-.012a.448.448 0 0 1 .244.102.24.24 0 0 1 .081.208.34.34 0 0 1-.04.123l-.484-.194c-.015.057-.011.106.013.146s.066.072.125.096c.043.017.084.026.122.026s.071-.012.098-.034l.09.037zm-.154-.403c-.055-.022-.106-.029-.152-.02s-.083.036-.111.082l.398.16c.009-.023.011-.046.007-.068S17.732.929 17.72.91c-.012-.019-.029-.037-.049-.053s-.044-.029-.07-.039zm.504.722c-.043-.016-.08-.038-.112-.066s-.056-.058-.073-.094l-.084.209-.083-.034.252-.628.083.033-.028.056c.037-.015.077-.022.119-.022s.086.01.13.027c.041.016.076.037.107.061s.054.052.071.083c.017.031.027.066.028.104s-.005.078-.022.122c-.018.045-.041.081-.068.108a.243.243 0 0 1-.201.07.416.416 0 0 1-.119-.03zm-.11-.344c-.013.033-.018.063-.017.09s.009.051.021.073c.013.022.03.041.053.058a.405.405 0 0 0 .166.067.172.172 0 0 0 .076-.006c.024-.007.045-.02.064-.039a.239.239 0 0 0 .067-.167.16.16 0 0 0-.068-.13.36.36 0 0 0-.167-.066.188.188 0 0 0-.079.006c-.024.007-.047.02-.067.039s-.036.044-.049.076zm1.102.564c-.019.022-.042.04-.067.052s-.053.021-.083.024c-.029.004-.06.003-.093-.003a.516.516 0 0 1-.209-.091.271.271 0 0 1-.072-.084c-.016-.032-.025-.067-.026-.105s.008-.08.025-.124c.018-.044.04-.08.068-.107s.06-.047.094-.058c.035-.012.073-.016.113-.012a.448.448 0 0 1 .244.102.24.24 0 0 1 .081.208.361.361 0 0 1-.04.123l-.484-.194c-.015.057-.011.106.013.146s.066.072.125.096c.043.017.084.026.122.026s.071-.012.098-.034l.09.037zm-.154-.403c-.055-.022-.106-.029-.152-.02s-.083.036-.111.081l.398.16c.009-.023.011-.046.007-.068s-.011-.042-.023-.061c-.012-.02-.029-.037-.049-.053s-.044-.029-.07-.039zm.504.722c-.043-.016-.08-.038-.112-.066s-.056-.058-.073-.094l-.084.209-.083-.034.252-.628.083.033-.028.056c.037-.015.077-.022.119-.022s.086.01.13.027c.041.016.076.037.107.061s.054.052.071.083c.017.031.027.066.028.104s-.005.078-.022.122c-.018.045-.041.081-.068.108a.243.243 0 0 1-.201.07.416.416 0 0 1-.119-.03zm-.109-.344c-.013.033-.018.063-.017.09s.008.051.021.073c.013.022.03.041.053.058a.405.405 0 0 0 .165.067.174.174 0 0 0 .076-.006c.024-.007.045-.02.064-.039a.239.239 0 0 0 .067-.167.16.16 0 0 0-.068-.13.36.36 0 0 0-.167-.066.188.188 0 0 0-.079.006c-.024.007-.046.02-.067.039s-.036.044-.049.076zm1.101.564c-.019.022-.042.04-.067.052s-.053.021-.083.024c-.029.004-.06.003-.093-.003a.516.516 0 0 1-.209-.091.271.271 0 0 1-.072-.084c-.016-.032-.025-.067-.026-.105s.008-.08.025-.124c.018-.044.04-.08.068-.107s.06-.047.094-.058c.035-.012.073-.016.113-.012a.448.448 0 0 1 .244.102.24.24 0 0 1 .081.208.34.34 0 0 1-.04.123l-.484-.194c-.015.057-.011.106.013.146s.066.072.125.096c.043.017.084.026.122.026s.071-.012.098-.034l.09.037zm-.153-.403c-.055-.022-.106-.029-.152-.02s-.083.036-.111.081l.398.16c.008-.023.011-.046.007-.068s-.011-.042-.023-.061c-.012-.02-.029-.037-.049-.053s-.044-.029-.07-.039zm.374.424-.078.194-.083-.033.191-.475.083.033-.084.208.204.082.217-.154.098.039-.25.174.091.313-.102-.041-.075-.255-.212-.085zm.807.503c-.043.037-.079.064-.108.08s-.055.025-.078.027c-.023.003-.044 0-.063-.008l-.068-.026-.008-.003.031-.076.056.021c.015.005.03.006.044.004.015-.002.03-.008.048-.017s.038-.025.064-.045l.008-.007-.057-.023-.069-.511.094.038.029.22.011.084.01.076.008.058.004.031.344-.305.092.037-.393.347zm.833.199a.198.198 0 0 1-.142.099c-.029.006-.061.006-.094.001a.467.467 0 0 1-.213-.091.258.258 0 0 1-.069-.083c-.016-.031-.024-.066-.024-.104s.009-.079.026-.124c.018-.044.04-.08.066-.108s.056-.048.089-.06c.033-.012.07-.017.109-.014s.08.012.122.029c.035.014.067.031.094.051s.051.043.069.067a.206.206 0 0 1 .034.17l-.09-.036c.003-.019.002-.037-.003-.054s-.014-.034-.026-.049a.24.24 0 0 0-.109-.076c-.064-.025-.118-.029-.162-.011s-.081.059-.108.123c-.025.065-.027.119-.006.163s.064.079.127.104c.047.019.09.026.13.022s.07-.023.091-.056l.089.036zM16.712 8.722c-.007-.062-.003-.117.011-.165s.037-.087.068-.12c.031-.033.07-.059.117-.078a.604.604 0 0 1 .317-.035c.05.009.094.028.131.053.038.026.069.06.093.102s.04.094.046.153c.007.061.003.115-.011.163a.312.312 0 0 1-.184.207.525.525 0 0 1-.317.035.315.315 0 0 1-.225-.161.398.398 0 0 1-.046-.154zm.684-.079c-.005-.044-.016-.082-.033-.115s-.04-.058-.068-.078c-.028-.02-.061-.033-.098-.042s-.079-.009-.123-.004c-.044.005-.084.015-.118.031s-.064.036-.087.061c-.023.026-.039.056-.049.091s-.013.076-.008.12c.005.044.016.083.034.116a.254.254 0 0 0 .167.129.374.374 0 0 0 .241-.026.257.257 0 0 0 .086-.065c.022-.027.039-.058.049-.095s.012-.078.007-.124zm-1.386.048c-.004-.042 0-.08.012-.114s.029-.063.053-.088c.025-.024.055-.044.092-.059a.454.454 0 0 1 .245-.028.274.274 0 0 1 .102.035c.03.019.055.044.075.075s.031.072.037.118l.01.09c.003.03.004.059.003.087-.001.029-.005.056-.012.082s-.02.05-.037.071c-.018.022-.041.041-.07.057s-.067.03-.112.04a5.306 5.306 0 0 0-.26.064l-.008-.08a.662.662 0 0 1 .041-.012l.069-.016.115-.025c.058-.012.102-.031.133-.058s.048-.06.053-.101c-.025.022-.056.039-.091.052a.519.519 0 0 1-.245.026.248.248 0 0 1-.099-.036c-.029-.018-.052-.042-.069-.072s-.029-.067-.034-.111zm.523-.056c-.008-.062-.032-.105-.072-.129s-.094-.031-.162-.024c-.067.008-.118.027-.153.058s-.05.079-.044.142c.008.063.031.104.069.125s.092.029.159.021c.033-.004.063-.01.09-.019s.048-.021.066-.037c.018-.016.031-.035.039-.058s.01-.049.008-.081zm-.868.592-.012-.11.12-.013.012.11-.12.013zm-.23-.624-.009-.079.506-.056.009.079-.257.029.039.351.183-.02.009.08-.274.03-.048-.431-.158.018zm-.156-.062-.012-.112.089-.01.021.191-.009.001c-.019.003-.035.009-.048.018s-.022.024-.029.043c-.007.019-.011.043-.013.072s-.002.066 0 .109l.008.202-.442.049-.048-.43-.085.009-.02-.191.089-.01.012.111.486-.053zm-.091.291a.502.502 0 0 1 .026-.204l-.328.037.039.351.269-.03-.005-.154zM6.82 11.505c-.069-.015-.113-.047-.134-.097s-.022-.115-.004-.198l.095-.439.661.142-.089.413c-.008.037-.018.07-.029.099s-.025.053-.042.072c-.017.019-.036.032-.06.039s-.05.008-.082.001a.152.152 0 0 1-.119-.107c-.021.034-.047.058-.078.071s-.07.016-.119.005zm.335-.557-.067.312c-.006.027-.01.051-.011.071s0 .037.004.05c.004.014.012.025.022.034s.026.016.045.02.035.004.048-.001.024-.012.033-.024c.009-.011.017-.026.023-.046s.012-.042.017-.067l.067-.31-.18-.039zm-.315-.068-.075.347c-.007.032-.01.059-.009.08s.006.039.014.051c.008.014.019.024.033.031a.2.2 0 0 0 .096.022c.014 0 .028-.006.041-.015s.024-.024.033-.043a.352.352 0 0 0 .025-.079l.074-.344-.231-.05zm-.22 1.313c-.025-.015-.046-.034-.063-.057s-.029-.049-.038-.077c-.008-.028-.013-.059-.013-.092s.003-.067.011-.101c.01-.045.024-.085.044-.12s.042-.063.071-.086c.028-.022.061-.036.099-.044s.08-.006.127.004.086.026.117.049a.25.25 0 0 1 .104.192.437.437 0 0 1-.06.258.26.26 0 0 1-.083.082c-.032.02-.068.03-.108.033s-.083-.004-.127-.019l.11-.51c-.059-.005-.106.007-.142.038s-.06.078-.073.139c-.01.045-.011.087-.005.124s.024.068.051.091l-.021.095zm.371-.219c.012-.058.01-.109-.006-.154s-.049-.076-.099-.095l-.09.419c.024.005.047.003.068-.004s.04-.018.057-.033c.017-.015.032-.035.044-.058s.021-.048.027-.075zm-.141.891-.501-.107.019-.088.167.035.043-.2c.008-.038.019-.072.032-.1s.031-.049.053-.065.049-.025.081-.029.071.001.117.01l.1.021-.019.088-.097-.021c-.038-.008-.068-.011-.091-.008s-.04.011-.053.023c-.013.013-.023.03-.03.051s-.013.045-.019.073l-.037.173.253.054-.019.088zm-.511.633c-.025-.015-.046-.034-.063-.057s-.029-.049-.038-.077c-.008-.028-.013-.059-.013-.092s.003-.067.011-.101c.01-.045.024-.085.044-.12s.042-.063.071-.086c.028-.022.061-.036.099-.044s.08-.006.127.004.086.026.117.049a.25.25 0 0 1 .104.192.437.437 0 0 1-.06.258.26.26 0 0 1-.083.082c-.032.02-.068.03-.108.033s-.083-.004-.127-.019l.11-.51c-.059-.005-.106.007-.142.038s-.06.078-.073.139c-.01.045-.011.087-.005.124s.024.068.051.091l-.021.095zm.371-.219c.012-.058.01-.109-.006-.154s-.049-.076-.099-.095l-.09.419c.024.005.047.003.068-.004s.04-.018.057-.033c.017-.015.032-.035.044-.058s.021-.048.027-.075zm-.626.618c.009-.045.024-.085.046-.122s.048-.065.08-.088l-.22-.047.02-.088.661.142-.019.088-.06-.018c.021.034.035.072.042.114s.005.086-.005.132c-.009.043-.023.081-.043.115s-.042.062-.069.084c-.028.022-.06.037-.098.045s-.078.008-.124-.001c-.047-.01-.087-.027-.118-.049a.244.244 0 0 1-.103-.186.395.395 0 0 1 .01-.122zm.321-.166c-.035-.007-.065-.008-.091-.002s-.049.017-.068.033c-.019.016-.035.037-.048.062s-.023.054-.029.087c-.007.031-.009.061-.008.088a.162.162 0 0 0 .068.13.25.25 0 0 0 .084.036c.035.007.065.008.091.002s.05-.015.069-.03c.02-.015.036-.034.048-.059a.376.376 0 0 0 .037-.175.213.213 0 0 0-.019-.077c-.011-.023-.027-.042-.05-.059s-.049-.028-.083-.036zm-.245.801-.158-.163.023-.108.163.18c.016-.031.038-.054.066-.068s.064-.016.106-.008c.027.006.05.015.067.027s.032.029.042.047c.01.019.016.039.017.062s0 .047-.006.073l-.074.345-.501-.108.019-.088.184.04.05-.231zm.181-.077c-.027-.006-.049-.003-.065.009s-.028.032-.034.06l-.055.257.162.035.055-.257c.006-.027.004-.05-.006-.068s-.029-.03-.057-.036zM8.693 19.014l.011.133-.094.008-.018-.218.019-.002c.033-.005.059-.02.078-.047s.035-.061.045-.1c.01-.04.017-.082.021-.129s.005-.092.004-.135c0-.043-.002-.082-.004-.117l-.003-.077.536-.043.047.589.095-.008.018.218-.094.008-.011-.133-.648.052zm.156-.605.004.128a1.076 1.076 0 0 1-.026.273.35.35 0 0 1-.048.113l.461-.037-.04-.505-.35.028zm1.271.344a.22.22 0 0 1-.1.135c-.025.016-.053.029-.084.039a.454.454 0 0 1-.228.012.241.241 0 0 1-.173-.126.305.305 0 0 1-.033-.122c-.004-.047.001-.09.013-.126a.245.245 0 0 1 .154-.155.409.409 0 0 1 .125-.028c.053-.004.099-.001.139.011a.247.247 0 0 1 .165.15c.014.038.02.08.019.127l-.52.042c.012.058.037.099.077.125s.092.035.155.03c.046-.004.086-.014.121-.031s.058-.043.073-.075l.097-.007zm-.317-.292c-.059.005-.107.021-.145.05s-.058.069-.063.122l.428-.034c-.003-.024-.01-.046-.024-.064s-.028-.033-.048-.045c-.02-.012-.042-.021-.068-.026s-.052-.006-.08-.004zm.96.219c-.002.032-.01.062-.025.087s-.033.047-.058.065c-.024.018-.052.032-.084.043s-.067.018-.105.021c-.046.004-.088.001-.127-.007s-.07-.022-.098-.043c-.028-.021-.051-.049-.068-.083s-.028-.075-.032-.122 0-.089.011-.126.029-.068.053-.093c.024-.026.055-.046.091-.061s.077-.025.123-.028c.038-.003.074-.002.107.004s.065.015.092.029a.207.207 0 0 1 .107.137l-.096.008c-.005-.018-.014-.034-.027-.047s-.027-.024-.045-.032c-.017-.008-.038-.014-.06-.017s-.046-.004-.071-.002c-.068.006-.118.027-.15.062s-.046.088-.042.158c.007.069.029.119.067.149s.092.042.16.037c.051-.004.093-.017.126-.038s.052-.052.057-.091l.095-.008zm.732-.037a.22.22 0 0 1-.1.135c-.024.016-.053.029-.084.039a.454.454 0 0 1-.228.012.241.241 0 0 1-.173-.126.305.305 0 0 1-.033-.122c-.004-.048.001-.09.013-.126a.252.252 0 0 1 .154-.155.409.409 0 0 1 .125-.028c.053-.004.099-.001.139.011a.247.247 0 0 1 .165.15c.014.038.02.08.019.127l-.52.042c.012.058.037.099.077.125s.092.035.155.03c.046-.004.086-.014.121-.031s.058-.043.073-.075l.097-.007zm-.317-.292c-.059.005-.107.021-.145.05s-.058.069-.063.122l.428-.034c-.003-.024-.01-.046-.024-.064s-.028-.033-.048-.045c-.02-.012-.042-.02-.068-.026s-.052-.006-.08-.004zm.772.421c-.046.004-.089.001-.13-.009s-.076-.028-.107-.052l.018.224-.09.006-.054-.674.09-.007v.063a.322.322 0 0 1 .225-.107c.044-.003.085-.001.123.008s.072.022.1.042c.029.02.053.047.071.081a.326.326 0 0 1 .022.246.239.239 0 0 1-.149.152.406.406 0 0 1-.12.026zm-.251-.259c.003.035.012.065.024.088s.03.042.051.056c.021.014.045.023.073.028s.059.006.091.003.061-.008.087-.018.048-.022.066-.039c.018-.017.031-.038.039-.063s.012-.056.01-.091c-.004-.035-.012-.065-.025-.088s-.028-.043-.048-.057c-.02-.015-.043-.024-.07-.029a.36.36 0 0 0-.178.015.207.207 0 0 0-.068.04c-.019.017-.033.039-.042.065s-.012.055-.01.09zm.905-.244.034.429-.091.007-.034-.428-.242.019-.007-.082.572-.046.007.082-.24.019z"/></symbol><symbol id="icon-salt" viewBox="0 0 35 32"><path fill="#0d0808" style="fill:var(--color1,#0d0808)" d="M33.669 11.735c-.665-.117-.938.3-.929.899a4.768 4.768 0 0 1-.599 2.397c-.839 1.498-2.193 2.143-3.895 2.065-2.074-.096-3.812-1.013-5.337-2.319-2.286-1.96-3.836-4.363-4.342-7.342-.231-1.369-.168-2.727.521-3.982.782-1.429 2.059-2.08 3.68-2.068 2.116 0 3.857.956 5.442 2.226a13.019 13.019 0 0 1 2.73 3.134c.3.482.506.539 1.058.378.365-.366.437-.647.207-1.004-1.852-2.838-4.249-5.013-7.662-5.879-1.927-.488-3.743-.258-5.379.956A6082.92 6082.92 0 0 1 4.286 12.211a9.633 9.633 0 0 0-1.699 1.534C.037 16.772-.619 20.149.585 23.858c0 .027.021.057.03.084s.048.105.069.159c.348.512.524 1.199.815 1.702.355.581.77 1.123 1.241 1.615.028.03.052.064.069.102.183.189.369.369.554.53.077.066.147.139.21.219.189.116.369.245.539.387a.56.56 0 0 1 .141.084 10.386 10.386 0 0 0 6.218 1.978 10.56 10.56 0 0 0 6.392-2.175 6201.74 6201.74 0 0 1 14.881-11.015 5.483 5.483 0 0 0 1.295-1.271 6.624 6.624 0 0 0 1.118-3.737.718.718 0 0 0-.485-.785zm-5.975 7.066a6924.84 6924.84 0 0 1-11.687 8.651 8.993 8.993 0 0 1-7.363 1.72 8.793 8.793 0 0 1-7.192-7.974c-.219-3.281 1.049-5.924 3.716-7.908l11.687-8.624a.948.948 0 0 1 .345-.222c-.491 2.742.192 5.253 1.579 7.608a13.585 13.585 0 0 0 6.194 5.694 9.114 9.114 0 0 0 2.823.764c.064.011.128.028.189.051-.063.12-.192.168-.291.24z"/><path fill="#0d0808" style="fill:var(--color1,#0d0808)" d="M27.985 18.546v-.03h.027l-.027.03z"/><path fill="#f0a19f" style="fill:var(--color2,#f0a19f)" d="M33.669 11.734c-.665-.117-.938.3-.929.899a4.768 4.768 0 0 1-.599 2.397c-.839 1.498-2.193 2.143-3.896 2.065-2.074-.096-3.812-1.013-5.337-2.319-2.286-1.96-3.836-4.363-4.342-7.342-.231-1.369-.168-2.727.521-3.982.782-1.429 2.059-2.08 3.68-2.068 2.116 0 3.857.956 5.442 2.226a13.019 13.019 0 0 1 2.73 3.134c.3.482.506.539 1.058.378l.74 1.537c-.395.228-.551.521-.455.86s.402.515.881.491c.12.465.2.939.24 1.417.006.192.153.225.267.306zm-3.245-.857a.685.685 0 0 0-.126-.526.673.673 0 0 0-.473-.262.7.7 0 0 0-.527.13.702.702 0 0 0-.273.469.7.7 0 0 0 1.387.201l.012-.012zm-5.415.216a.689.689 0 0 0-.523.133.693.693 0 0 0-.273.466.723.723 0 0 0 .62.782.712.712 0 0 0 .761-.872.686.686 0 0 0-.323-.427.683.683 0 0 0-.261-.083zm-2.202-4.941a.687.687 0 0 0-1.102-.639.73.73 0 0 0-.279.442.69.69 0 0 0 .338.701c.08.045.169.074.261.084a.68.68 0 0 0 .698-.329.68.68 0 0 0 .084-.259zm2.772.899a.708.708 0 0 0 .133.523.707.707 0 0 0 .466.273c.185.02.37-.03.518-.142s.249-.275.282-.458a.687.687 0 0 0-.599-.761.66.66 0 0 0-.523.11.67.67 0 0 0-.277.457V7.05z"/><path fill="#140b0a" style="fill:var(--color3,#140b0a)" d="M33.16 10.011c-.479.024-.779-.144-.881-.491s.06-.632.455-.86c.5-.03.794.123.899.47s-.054.644-.473.881z"/><path fill="#eb675f" style="fill:var(--color4,#eb675f)" d="M27.976 18.552c-.051.129-.18.174-.282.249a6785.626 6785.626 0 0 1-11.687 8.651 8.993 8.993 0 0 1-7.363 1.72 8.793 8.793 0 0 1-7.192-7.974c-.219-3.281 1.049-5.924 3.716-7.908l11.687-8.624a.956.956 0 0 1 .345-.222c-.491 2.742.192 5.253 1.579 7.608a13.585 13.585 0 0 0 6.194 5.694 9.114 9.114 0 0 0 2.823.764c.067.012.134.03.198.054l-.018-.012zM9.364 25.114c1.693.237 2.892-.051 3.952-.827 1.906-1.398 3.804-2.797 5.693-4.195.513-.381.53-.815.054-1.232a19.117 19.117 0 0 1-4.642-6.053c-.276-.566-.707-.668-1.223-.3a1892.607 1892.607 0 0 0-4.989 3.692c-.318.234-.647.458-.941.719-1.498 1.342-2.005 2.997-1.453 4.899a4.457 4.457 0 0 0 3.548 3.296z"/><path fill="#f0a19f" style="fill:var(--color2,#f0a19f)" d="M2.82 27.539a.39.39 0 0 0-.069-.102 9.576 9.576 0 0 1-1.241-1.615 9.188 9.188 0 0 0 1.31 1.717z"/><path fill="#eb675f" style="fill:var(--color4,#eb675f)" d="M27.982 18.558v-.042h.027l-.042.027.015.015z"/><path fill="#140b0a" style="fill:var(--color3,#140b0a)" d="M30.424 10.877a.7.7 0 0 1-1.246.308.69.69 0 0 1 .132-.978.68.68 0 0 1 .527-.13.683.683 0 0 1 .471.27.68.68 0 0 1 .117.53zM25.009 11.093a.673.673 0 0 1 .599.782.712.712 0 0 1-.77.599.721.721 0 0 1-.62-.782.686.686 0 0 1 .271-.464.705.705 0 0 1 .519-.136zM22.807 6.152a.67.67 0 0 1-.791.599c-.092-.01-.181-.038-.261-.084s-.151-.107-.207-.18a.674.674 0 0 1-.131-.521.726.726 0 0 1 .782-.582.696.696 0 0 1 .464.257.706.706 0 0 1 .144.511zM25.579 7.054a.664.664 0 0 1 .278-.46.68.68 0 0 1 .525-.11.686.686 0 0 1 .599.761.73.73 0 0 1-.8.6.687.687 0 0 1-.466-.271.692.692 0 0 1-.136-.521z"/><path fill="#100605" style="fill:var(--color5,#100605)" d="M9.364 25.114a4.469 4.469 0 0 1-3.539-3.296c-.56-1.888-.057-3.548 1.441-4.89.3-.261.623-.485.941-.719l4.989-3.692c.515-.378.947-.276 1.223.3a19.108 19.108 0 0 0 4.633 6.038c.477.417.459.851-.054 1.232a799.791 799.791 0 0 1-5.694 4.195c-1.058.782-2.256 1.07-3.941.833zm.327-1.367c1.13.159 1.987-.021 2.697-.536 1.672-1.22 3.329-2.457 4.995-3.683.135-.102.183-.162.033-.3a20.026 20.026 0 0 1-3.83-4.98c-.075-.135-.123-.189-.276-.075-1.705 1.271-3.452 2.493-5.094 3.821-1.1.881-1.411 2.119-1.022 3.458a3.154 3.154 0 0 0 2.496 2.295z"/><path fill="#f0a19f" style="fill:var(--color2,#f0a19f)" d="M9.691 23.748a3.15 3.15 0 0 1-2.511-2.305c-.39-1.339-.078-2.577 1.022-3.458 1.657-1.327 3.404-2.55 5.094-3.821.153-.114.201-.06.276.075a19.998 19.998 0 0 0 3.827 4.986c.15.141.102.201-.033.3-1.666 1.226-3.323 2.463-4.995 3.683-.692.539-1.549.707-2.679.539z"/></symbol><symbol id="icon-line_menu" viewBox="0 0 562 32"><path fill="none" stroke="#fd6103" style="stroke:var(--color1,#fd6103)" stroke-width="13.714" d="M4.571 14.398c217.143 24.459 358.857-19.787 553.143 0"/></symbol><symbol id="icon-bg_menu_first" viewBox="0 0 93 32"><path fill="#ffa573" style="fill:var(--color1,#ffa573)" d="M.387 32V0h84.246l8.489 10.24L90.576 32H.388z"/></symbol><symbol id="icon-bg_menu_second" viewBox="0 0 188 32"><path fill="#aeaeae" style="fill:var(--color2,#aeaeae)" d="M.727 23.578 9.675 0h164.369l12.865 23.578L180.944 32H.727v-8.422z"/></symbol><symbol id="icon-roze_decor_svg" viewBox="0 0 336 32"><path fill="#e4a4a4" style="fill:var(--color3,#e4a4a4)" d="M0 23.578 16.148 0h296.634L336 23.578 325.234 32H0v-8.422z"/></symbol></defs></svg>