<svg width="348" height="162" viewBox="0 0 348 162" fill="none" xmlns="http://www.w3.org/2000/svg">
<path d="M342.973 48.1882C336.933 46.7873 330.827 45.7322 324.694 45.0229C318.56 44.3137 312.513 43.9607 306.434 43.9559C300.97 43.9511 295.351 44.0944 290.334 45.9773C285.848 47.6635 281.972 51.1372 280.979 55.6714C280.742 56.7479 280.669 57.8804 280.819 58.9932C280.97 60.1059 281.422 61.4079 282.568 62.0918C283.111 62.4149 283.766 62.5036 284.34 62.3048C285.02 62.0716 285.392 61.5381 285.619 60.9218C285.95 60.0232 286.049 59.1031 286.8 58.4051C287.072 58.1514 287.421 57.933 287.826 57.9034L286.998 57.4486C287.738 58.5402 287.041 59.9318 287.19 61.0971C287.368 62.5216 288.285 64.0436 290.008 64.1267C290.305 64.1412 290.677 63.9823 290.795 63.7249C291.561 62.0519 292.297 60.3634 293.091 58.7018C293.196 58.4796 293.316 58.138 293.546 58.0034C293.689 57.9157 293.733 57.9594 293.853 58.0668C294.383 58.542 294.228 59.3051 294.166 59.8857C294.08 60.7388 294.072 61.5638 294.559 62.3591C294.983 63.0489 295.756 63.6088 296.618 63.6202C298.535 63.6504 299.254 61.3953 299.769 60.0738C300.232 58.8934 300.989 57.1399 302.669 57.2535L301.7 56.3674C301.805 57.5665 301.913 58.7666 302.018 59.9657C302.106 60.9588 302.01 62.212 302.621 63.1124C303.268 64.0687 304.507 64.2445 305.496 63.8137C306.419 63.4107 306.919 62.6544 307.319 61.8208C307.598 61.2436 307.892 60.4126 308.711 60.4121C309.607 60.4117 310.64 60.8876 311.434 61.2766C313.285 62.1867 314.837 63.5128 316.166 65.0072C317.495 66.5016 318.555 68.1906 319.521 69.896C320.061 70.8473 320.614 71.7885 321.334 72.6446C322.093 73.5435 323.026 74.271 324.017 74.9369C328.094 77.6809 332.648 80.1214 337.453 81.4151C342.492 82.7697 347.832 82.8289 352.733 81.6C353.87 81.3162 353.33 79.6363 352.188 79.9223C348.062 80.9584 343.615 81.0432 339.323 80.1137C334.654 79.105 330.376 76.9067 326.37 74.4123C325.425 73.8228 324.468 73.2368 323.636 72.5124C322.804 71.7879 322.222 70.9698 321.686 70.0796C320.652 68.366 319.72 66.6345 318.457 65.0347C317.195 63.4349 315.755 61.9913 314.035 60.8168C313.178 60.2339 312.263 59.7551 311.293 59.3639C310.38 58.9954 309.345 58.632 308.361 58.7001C307.191 58.7836 306.416 59.4998 305.924 60.4176C305.576 61.0675 305.34 62.0347 304.504 62.2957C304.373 62.3371 304.272 62.3484 304.228 62.3112C304.138 62.237 304.109 62.1088 304.086 62.0034C303.952 61.4681 303.965 60.8954 303.916 60.3514C303.798 59.039 303.684 57.7243 303.566 56.4119C303.524 55.9301 303.125 55.562 302.597 55.5259C300.866 55.4092 299.483 56.5336 298.726 57.8273C298.286 58.5756 298.026 59.409 297.695 60.2015C297.54 60.5724 297.364 60.934 297.148 61.2704C297.024 61.4624 296.819 61.8444 296.551 61.8871C296.116 61.9579 295.96 60.9993 295.966 60.6933C295.979 59.8343 296.232 58.9814 295.931 58.1203C295.658 57.3416 295.012 56.559 294.129 56.3153C293.17 56.0506 292.319 56.4628 291.803 57.1583C291.24 57.9118 290.938 58.8785 290.551 59.7227C290.082 60.7459 289.612 61.7724 289.147 62.7966L289.933 62.3948C289.622 62.3796 289.395 62.1153 289.23 61.7447C289.002 61.2292 289.011 60.7014 289.058 60.1736C289.169 58.9703 289.346 57.75 288.583 56.6272C288.414 56.3791 288.081 56.1459 287.755 56.1725C286.528 56.2618 285.6 56.8332 284.914 57.7328C284.601 58.1415 284.381 58.6003 284.195 59.0725C284.025 59.5169 283.998 60.054 283.776 60.4735C283.718 60.5777 283.649 60.6329 283.572 60.6894C283.615 60.6589 283.741 60.789 283.529 60.6741C283.639 60.7326 283.409 60.5984 283.468 60.6396C283.07 60.3741 282.85 59.8574 282.752 59.4414C282.528 58.5205 282.554 57.506 282.708 56.601C283.423 52.4003 286.907 49.2389 290.964 47.6288C295.503 45.8298 300.722 45.6964 305.698 45.6761C311.508 45.6526 317.34 45.9498 323.155 46.5642C329.661 47.2522 336.137 48.3495 342.537 49.8321C343.713 50.1035 344.149 48.4562 342.966 48.1828L342.973 48.1882Z" fill="#A19994"/>
<path d="M320.475 146.715C316.22 141.96 312.407 136.882 309.079 131.562C305.75 126.242 302.903 120.687 300.594 114.966C299.441 112.106 298.419 109.208 297.533 106.284C297.309 105.54 297.094 104.795 296.887 104.048C296.69 103.34 296.554 102.606 296.295 101.908C296.021 101.165 295.523 100.522 294.704 100.225C293.945 99.952 293.058 100.096 292.424 100.483C290.945 101.376 290.782 103.29 290.433 104.781C290.227 105.661 290.022 106.542 289.813 107.417C289.718 107.829 289.618 108.24 289.523 108.652C289.477 108.845 289.434 109.038 289.388 109.23C289.339 109.433 289.216 109.696 289.225 109.903C289.229 110.021 289.243 109.922 289.374 109.867C289.533 109.797 289.508 109.953 289.428 109.825C289.36 109.711 289.126 109.519 289.039 109.329C288.802 108.818 288.82 108.165 288.792 107.631C288.725 106.361 288.804 105.085 288.601 103.813C288.398 102.541 287.899 101.183 286.801 100.251C285.561 99.1947 283.853 99.155 282.82 100.298C281.786 101.441 281.535 102.914 281.122 104.277C280.604 105.983 280.089 107.691 279.572 109.393C279.319 110.232 279.065 111.074 278.808 111.912L280.36 111.576C279.454 110.626 279.489 109.233 279.472 108.089C279.45 106.662 279.35 105.277 278.589 103.953C277.827 102.629 276.488 101.786 274.944 101.944C273.583 102.081 272.624 103.043 272.055 104.109C271.358 105.409 271.104 106.877 270.766 108.297C270.555 109.183 270.343 110.072 270.132 110.957C270.055 111.283 270.009 111.641 269.87 111.949C269.859 111.978 269.767 112.136 269.768 112.13C269.616 112.519 269.688 112.171 269.707 112.187C269.684 112.17 269.918 112.185 269.899 112.198C269.847 112.233 269.674 111.757 269.655 111.667C269.571 111.319 269.573 110.952 269.55 110.602C269.5 109.705 269.507 108.809 269.564 107.916C269.615 107.12 269.848 106.258 269.42 105.49C268.993 104.721 268.135 104.368 267.279 104.499C265.68 104.744 264.783 106.201 264.129 107.413C263.413 108.74 262.922 110.178 262.661 111.661C262.137 114.663 262.463 117.808 263.431 120.793C265.451 127.014 270.227 132.235 275.192 136.79C280.632 141.78 286.458 146.562 292.95 150.322C293.746 150.782 294.55 151.227 295.366 151.653C296.439 152.215 297.336 150.758 296.263 150.197C289.839 146.83 284.148 142.4 278.794 137.692C273.909 133.399 269.015 128.75 266.26 123.02C264.981 120.362 264.268 117.475 264.271 114.633C264.275 111.791 264.953 108.974 266.706 106.848C266.871 106.65 267.077 106.473 267.308 106.346C267.4 106.293 267.493 106.249 267.595 106.217C267.603 106.215 267.826 106.167 267.756 106.183C267.875 106.159 267.838 106.227 267.815 106.196C267.748 106.107 267.803 106.482 267.799 106.541C267.791 106.96 267.723 107.372 267.692 107.788C267.635 108.624 267.622 109.466 267.659 110.311C267.693 111.048 267.705 111.826 268.025 112.529C268.344 113.232 269.009 113.897 269.904 113.882C270.8 113.868 271.348 113.259 271.63 112.551C271.911 111.844 272.029 111.063 272.201 110.326C272.405 109.467 272.609 108.607 272.814 107.748C273.093 106.57 273.327 105.372 274.071 104.397C274.568 103.746 275.454 103.318 276.291 103.935C277.253 104.638 277.535 106.028 277.565 107.061C277.609 108.36 277.518 109.696 277.957 110.974C278.183 111.633 278.548 112.222 279.05 112.746C279.553 113.27 280.427 112.995 280.602 112.41C281.11 110.73 281.62 109.053 282.128 107.372C282.608 105.78 283.014 104.145 283.591 102.586C283.74 102.182 283.98 101.707 284.291 101.411C284.575 101.143 284.863 101.007 285.322 101.296C286.304 101.921 286.65 103.168 286.764 104.165C286.906 105.385 286.831 106.602 286.915 107.82C287 109.038 287.229 110.597 288.6 111.329C289.319 111.711 290.163 111.64 290.666 111.071C291.195 110.475 291.243 109.481 291.418 108.733C291.816 107.04 292.203 105.344 292.613 103.65C292.749 103.083 292.886 102.332 293.42 101.971C293.77 101.732 294.197 101.708 294.413 102.107C294.723 102.68 294.808 103.404 294.972 104.015C295.169 104.737 295.374 105.462 295.588 106.182C296.437 109.043 297.413 111.876 298.521 114.67C300.75 120.309 303.486 125.812 306.69 131.087C309.893 136.365 313.575 141.407 317.67 146.161C318.163 146.735 318.666 147.305 319.172 147.873C319.504 148.244 320.166 148.214 320.492 147.919C320.87 147.577 320.791 147.071 320.459 146.7L320.475 146.715Z" fill="#A19994"/>
<path d="M245.542 110.712C250.909 111.822 256.4 112.184 261.83 111.759C262.296 111.721 262.689 111.395 262.68 110.904C262.671 110.471 262.267 110.009 261.799 110.043C256.523 110.457 251.186 110.138 245.972 109.06C245.512 108.965 245.042 109.185 244.92 109.653C244.81 110.076 245.083 110.614 245.542 110.709L245.542 110.712Z" fill="#A19994"/>
<path d="M300.415 112.221C304.508 111.902 308.586 111.508 312.644 111.032C316.111 110.623 319.774 110.193 322.178 107.84C324.515 105.554 325.388 102.326 325.953 99.262C326.593 95.7628 326.744 92.168 326.622 88.57C326.48 84.5136 326.003 80.4469 325.516 76.3905C325.464 75.956 325.082 75.5751 324.576 75.557C324.115 75.5412 323.667 75.8935 323.718 76.331C324.543 83.2441 325.406 90.2725 324.47 97.0839C324.063 100.063 323.476 103.269 321.648 105.751C320.806 106.894 319.65 107.757 318.238 108.306C316.826 108.855 315.099 109.1 313.49 109.3C309.128 109.843 304.74 110.273 300.334 110.616C299.855 110.652 299.452 110.918 299.475 111.39C299.493 111.783 299.933 112.258 300.415 112.224L300.415 112.221Z" fill="#A19994"/>
<path d="M310.215 106.894C311.908 100.781 310.711 94.2248 308.992 87.9642C307.272 81.7037 305.483 75.4714 301.563 69.979C299.507 67.1006 296.881 64.5074 293.671 62.5975C293.165 62.2967 292.546 62.556 292.409 63.0115C289.593 72.204 286.777 81.3965 283.96 90.592C283.16 93.2042 282.36 95.8164 281.559 98.4287C281.271 99.3673 282.976 99.8344 283.263 98.8987C286.079 89.7061 288.895 80.5136 291.712 71.3182C292.512 68.7059 293.313 66.0937 294.113 63.4815L292.851 63.8954C298.42 67.2086 301.835 72.6089 304.005 77.9946C305.211 80.9929 306.129 84.0602 307.001 87.1242C307.872 90.1881 308.633 93.2152 309.023 96.2917C309.459 99.7226 309.42 103.158 308.515 106.424C308.254 107.371 309.958 107.841 310.218 106.894L310.215 106.894Z" fill="#A19994"/>
<path d="M281.239 101.895C281.399 95.6956 280.612 89.4258 278.918 83.316C278.083 80.2996 277.062 77.2922 275.679 74.4183C274.297 71.5444 272.533 69.1769 270.204 66.9753C267.875 64.7737 265.115 62.6548 263.493 59.8458C262.914 58.8408 261.327 59.6546 261.903 60.6586C263.355 63.1768 265.636 65.16 267.827 67.1433C268.901 68.1185 269.967 69.1125 270.911 70.2002C271.92 71.366 272.75 72.6663 273.461 73.9903C274.921 76.7017 275.922 79.6222 276.784 82.5079C277.645 85.3937 278.333 88.4683 278.767 91.487C279.26 94.9357 279.46 98.4026 279.373 101.85C279.342 102.956 281.213 102.998 281.239 101.895Z" fill="#A19994"/>
<path d="M279.105 55.818C272.54 55.7713 265.969 55.7228 259.431 56.0868C256.417 56.2542 253.314 56.383 250.378 57.0031C249.038 57.2877 247.707 57.7208 246.54 58.4011C245.373 59.0813 244.345 60.0502 243.513 61.1395C241.894 63.2576 240.903 65.8653 240.095 68.3741C239.313 70.8133 238.788 73.3269 238.495 75.8802C237.894 81.1011 238.272 86.4215 239.462 91.6213C240.652 96.8211 242.651 101.837 245.332 106.526C245.668 107.113 246.015 107.692 246.372 108.271C246.963 109.224 248.477 108.413 247.886 107.457C245.135 103.013 243.035 98.2406 241.683 93.2847C240.334 88.3437 239.745 83.24 240.059 78.2011C240.212 75.731 240.601 73.2878 241.219 70.9006C241.837 68.5134 242.669 66.0916 243.858 63.9002C244.461 62.7859 245.18 61.7318 246.128 60.8623C247.075 59.9928 248.174 59.419 249.39 59.0307C252.026 58.1953 254.928 58.0738 257.7 57.8852C264.031 57.4569 270.403 57.4505 276.767 57.4905C277.564 57.4948 278.357 57.5013 279.155 57.5056C280.29 57.5126 280.248 55.8236 279.106 55.8147L279.105 55.818Z" fill="#A19994"/>
<path d="M249.65 108.098C253.585 102.145 257.107 95.7774 258.863 88.8185C260.461 82.4972 260.378 75.8332 258.422 69.4673C257.388 66.0944 255.852 62.8408 253.872 59.8557C253.294 58.9855 251.885 59.7479 252.466 60.622C255.867 65.7433 257.895 71.6498 258.294 77.6349C258.745 84.4138 256.966 91.0012 254.108 97.0304C252.421 100.592 250.394 103.981 248.22 107.267C247.662 108.114 249.091 108.935 249.647 108.095L249.65 108.098Z" fill="#A19994"/>
<path d="M258.925 59.1523C261.077 62.5284 262.568 66.1818 263.364 69.965C263.462 70.4268 264.083 70.7043 264.529 70.6047C265.051 70.487 265.248 70.0287 265.15 69.5668C264.327 65.6489 262.744 61.8393 260.514 58.3429C259.886 57.3599 258.3 58.1704 258.924 59.1556L258.925 59.1523Z" fill="#A19994"/>
<path d="M267.072 75.5488C265.507 84.2102 263.939 92.8706 262.374 101.532L261.039 108.906C260.956 109.361 261.217 109.839 261.733 109.982C262.198 110.11 262.773 109.862 262.856 109.408C264.421 100.746 265.989 92.0858 267.554 83.4244L268.889 76.0501C268.972 75.5957 268.711 75.1171 268.195 74.9748C267.73 74.8464 267.155 75.0944 267.072 75.5488Z" fill="#A19994"/>
<path d="M1 13.614C2.41063 13.614 27.0927 22.1156 71.9333 20.9857C136.347 19.3625 107.139 7.36645 167.902 2.67234C217.451 0.0645022 268.043 1.26773 268.043 17.0155C264.018 49.6614 179.614 16.1703 164.772 21.9704C149.931 27.7704 157.731 54.3076 187.822 70.8026C214.321 83.2546 240.501 86.4496 250.31 85.3409" stroke="#A19994" stroke-width="1.02354" stroke-linecap="round"/>
<path d="M39.5768 15.0891C39.487 15.491 39.2852 15.7884 38.9712 15.9815C38.6572 16.1715 38.2534 16.2681 37.7598 16.2713C37.4605 16.2733 37.1928 16.2352 36.9566 16.1571C36.7205 16.0791 36.5207 15.9673 36.3573 15.8219C36.194 15.6733 36.0686 15.4926 35.9812 15.2799C35.8939 15.0671 35.8493 14.8269 35.8475 14.5595L35.847 14.4735C35.8452 14.1965 35.8865 13.9494 35.9711 13.7323C36.0556 13.5152 36.1786 13.3329 36.3401 13.1854C36.5015 13.0346 36.6998 12.9203 36.9349 12.8423C37.17 12.7612 37.4372 12.7196 37.7366 12.7177C37.9913 12.716 38.2223 12.74 38.4296 12.7895C38.6401 12.8391 38.8222 12.9159 38.9757 13.02C39.1324 13.1209 39.2606 13.249 39.3603 13.4044C39.4601 13.5598 39.5265 13.7425 39.5598 13.9524L39.0439 13.9558C39.0113 13.8318 38.9564 13.7191 38.8793 13.6177C38.8054 13.5131 38.7124 13.4246 38.6005 13.3521C38.4917 13.2764 38.364 13.2199 38.2173 13.1826C38.0737 13.1422 37.9144 13.1225 37.7392 13.1236C37.5068 13.1252 37.3032 13.1615 37.1285 13.2327C36.9538 13.3007 36.808 13.3956 36.691 13.5174C36.5739 13.6392 36.4857 13.7863 36.4264 13.9586C36.3701 14.1277 36.3427 14.3142 36.344 14.518C36.3453 14.7122 36.3751 14.892 36.4335 15.0572C36.4951 15.2224 36.5852 15.3651 36.7038 15.4853C36.8224 15.6055 36.9695 15.7001 37.1451 15.769C37.3207 15.8347 37.5247 15.8668 37.7572 15.8653C38.1106 15.863 38.4016 15.7942 38.6299 15.659C38.8615 15.5205 39.0083 15.3317 39.0705 15.0924L39.5768 15.0891ZM40.4981 15.1165L40.5048 16.1482L40.0606 16.1511L40.0441 13.6197L40.4883 13.6167L40.4954 14.7105L42.3439 14.6984L42.3368 13.6094L42.7809 13.6017L42.7975 16.1332L42.3581 16.1361L42.3513 15.1044L40.4981 15.1165ZM44.9325 12.5368L44.9361 13.0861L44.339 13.09L44.3354 12.5407L44.9325 12.5368ZM45.7415 15.7223L45.744 16.1139L43.2269 16.1304L43.2243 15.7388L44.5044 15.7304L44.4929 13.9822L43.5806 13.9882L43.578 13.5917L44.9393 13.5828L44.9534 15.7274L45.7415 15.7223ZM46.4755 16.1092L46.4792 16.668L46.035 16.6709L46.0288 15.7204L46.0717 15.7201C46.1672 15.7163 46.2483 15.6951 46.3149 15.6564C46.3815 15.6146 46.4368 15.5489 46.4808 15.4595C46.5248 15.37 46.5591 15.2536 46.5836 15.1101C46.6081 14.9635 46.6277 14.785 46.6422 14.5748L46.7073 13.576L48.9045 13.5616L48.9185 15.7015L49.3388 15.6987L49.3402 16.6493L48.896 16.6522L48.8924 16.0981L46.4755 16.1092ZM47.0731 14.7248C47.0409 15.1613 46.9635 15.4914 46.8407 15.7151L48.4743 15.7044L48.4628 13.9562L47.1254 13.965L47.0731 14.7248ZM51.887 15.3668C51.8856 15.6375 51.8025 15.8434 51.6379 15.9846C51.4764 16.1258 51.2396 16.1974 50.9276 16.1994L50.7652 16.2005C50.4531 16.2025 50.2107 16.1341 50.0378 15.9951C49.8649 15.8529 49.7743 15.637 49.7661 15.3472C49.7642 15.0638 49.8504 14.8547 50.0247 14.7198C50.1989 14.5817 50.442 14.5117 50.7541 14.5096L52.2205 14.5C52.2036 14.36 52.1631 14.2457 52.0988 14.1569C52.0345 14.065 51.9592 13.9938 51.8729 13.9434C51.7866 13.8899 51.6924 13.8539 51.5904 13.8354C51.4915 13.8138 51.3991 13.8033 51.3131 13.8038L51.2654 13.8041C51.1794 13.8047 51.0903 13.8116 50.998 13.825C50.9057 13.8383 50.8167 13.8628 50.731 13.8984C50.6452 13.9308 50.5675 13.9759 50.4978 14.0337C50.4281 14.0914 50.3761 14.1666 50.3417 14.2592L49.8736 14.2622C49.8887 14.1379 49.9325 14.0246 50.0051 13.9222C50.0809 13.8198 50.179 13.7316 50.2995 13.6576C50.4232 13.5804 50.5645 13.5205 50.7235 13.4781C50.8856 13.4356 51.0574 13.4138 51.2389 13.4126L51.2771 13.4124C51.5255 13.4107 51.7374 13.438 51.9129 13.4942C52.0885 13.5504 52.2323 13.637 52.3445 13.7541C52.4568 13.8712 52.5389 14.0203 52.5911 14.2015C52.6432 14.3826 52.6717 14.5974 52.6765 14.8457L52.6845 16.0685L52.2403 16.0714L52.2325 14.8821L51.7405 14.8805C51.8369 15.0105 51.8857 15.1725 51.887 15.3668ZM50.2103 15.3443C50.2144 15.4971 50.2598 15.6131 50.3463 15.6921C50.4328 15.768 50.5715 15.8053 50.7626 15.804L50.925 15.803C51.1097 15.8018 51.2447 15.7627 51.3302 15.6857C51.4157 15.6087 51.4611 15.4922 51.4665 15.3361C51.4591 15.1801 51.4137 15.0658 51.3305 14.9931C51.2472 14.9204 51.11 14.8847 50.919 14.8859L50.7566 14.887C50.5655 14.8882 50.4272 14.9257 50.3417 14.9995C50.2563 15.0733 50.2124 15.1883 50.2103 15.3443ZM53.8384 15.0292L53.8452 16.0609L53.401 16.0638L53.3844 13.5323L53.8286 13.5294L53.8358 14.6232L55.6842 14.6111L55.6771 13.5221L56.1213 13.5144L56.1378 16.0459L55.6984 16.0488L55.6917 15.0171L53.8384 15.0292ZM59.635 14.7667C59.6333 14.9992 59.5948 15.2033 59.5196 15.3789C59.4475 15.5513 59.3433 15.6953 59.2071 15.8108C59.0742 15.9264 58.9139 16.0134 58.7264 16.0719C58.5421 16.1305 58.3369 16.1605 58.1108 16.1619C57.8816 16.1634 57.6744 16.1361 57.4893 16.08C57.3043 16.0271 57.1445 15.9438 57.01 15.83C56.8787 15.7162 56.7759 15.572 56.7015 15.3974C56.6271 15.2227 56.5876 15.0176 56.5828 14.782C56.5813 14.5463 56.6166 14.3407 56.6886 14.1651C56.7607 13.9863 56.8617 13.8391 56.9915 13.7236C57.1244 13.605 57.2831 13.5163 57.4674 13.4578C57.6549 13.3961 57.8616 13.3645 58.0877 13.363C58.317 13.3615 58.5257 13.3888 58.714 13.4449C58.9022 13.501 59.0636 13.5875 59.1981 13.7044C59.3358 13.8182 59.4418 13.9639 59.5162 14.1418C59.5938 14.3196 59.6334 14.5279 59.635 14.7667ZM57.0365 14.7694C57.0451 15.1133 57.1407 15.3658 57.3233 15.527C57.509 15.685 57.7707 15.7629 58.1082 15.7607C58.4457 15.7585 58.7079 15.6772 58.8947 15.5167C59.0816 15.3563 59.177 15.1025 59.1811 14.7554C59.1725 14.4083 59.0721 14.1558 58.88 13.9979C58.6879 13.8367 58.4231 13.7573 58.0855 13.7595C57.748 13.7617 57.489 13.8446 57.3086 14.0082C57.1313 14.1685 57.0406 14.4223 57.0365 14.7694ZM60.5412 14.9853L60.548 16.017L60.1038 16.0199L60.0872 13.4884L60.5314 13.4855L60.5387 14.5936L61.6277 14.5865L62.3321 13.4737L62.8527 13.4703L62.0347 14.7367L63.0365 16.0007L62.492 16.0043L61.6732 14.9779L60.5412 14.9853Z" fill="#A19994"/>
<path d="M123.574 18.6093L124.481 21.3881L124.036 21.5334L122.998 18.3551L126.04 17.3614L127.078 20.5397L126.633 20.6851L125.726 17.9063L123.574 18.6093ZM130.267 18.7394C130.264 18.8844 130.235 19.0212 130.18 19.1497C130.125 19.2783 130.046 19.3962 129.944 19.5033C129.844 19.6094 129.724 19.7039 129.584 19.7866C129.443 19.8693 129.29 19.9379 129.123 19.9923C128.905 20.0635 128.698 20.101 128.502 20.1048C128.307 20.1117 128.126 20.0819 127.96 20.0155C127.797 19.948 127.653 19.8429 127.526 19.7002C127.402 19.5565 127.301 19.3731 127.225 19.1501C127.152 18.9261 127.125 18.719 127.143 18.5288C127.163 18.3345 127.221 18.1617 127.315 18.0102C127.412 17.8547 127.542 17.72 127.706 17.6062C127.869 17.4894 128.058 17.3959 128.272 17.3257C128.521 17.2446 128.748 17.2087 128.956 17.218C129.166 17.2263 129.352 17.2763 129.512 17.3679C129.675 17.4555 129.812 17.5817 129.922 17.7465C130.033 17.9113 130.113 18.1081 130.161 18.337L127.709 19.1379C127.832 19.4025 128.003 19.5727 128.222 19.6485C128.444 19.7233 128.704 19.7123 129 19.6154C129.218 19.5442 129.4 19.4481 129.544 19.3272C129.688 19.2032 129.776 19.0557 129.807 18.8847L130.267 18.7394ZM128.405 17.6996C128.126 17.7905 127.913 17.9272 127.765 18.1096C127.619 18.2879 127.565 18.5082 127.604 18.7702L129.62 18.1117C129.579 17.9976 129.517 17.9041 129.432 17.8311C129.351 17.7571 129.257 17.7042 129.149 17.6723C129.041 17.6374 128.922 17.6226 128.793 17.6279C128.664 17.6331 128.535 17.657 128.405 17.6996ZM132.606 18.8347C132.392 18.9079 132.181 18.9434 131.972 18.9411C131.767 18.9379 131.576 18.8964 131.399 18.8168L131.744 19.8747L131.321 20.0081L130.283 16.8299L130.705 16.6919L130.778 16.9945C130.872 16.8198 130.999 16.666 131.16 16.533C131.324 16.3991 131.517 16.296 131.738 16.2239C131.944 16.1566 132.143 16.1216 132.337 16.1187C132.529 16.1128 132.706 16.1421 132.868 16.2065C133.032 16.2699 133.178 16.3715 133.304 16.5112C133.432 16.6469 133.534 16.8248 133.609 17.0447C133.683 17.2718 133.711 17.4804 133.693 17.6706C133.674 17.8608 133.62 18.0312 133.528 18.1817C133.436 18.3321 133.311 18.4618 133.153 18.5706C132.994 18.6794 132.812 18.7674 132.606 18.8347ZM131.098 17.88C131.155 18.0455 131.229 18.1774 131.318 18.2756C131.41 18.3728 131.513 18.4429 131.627 18.4859C131.745 18.5279 131.873 18.5448 132.011 18.5365C132.152 18.5273 132.3 18.4975 132.454 18.4471C132.605 18.3976 132.738 18.336 132.851 18.2622C132.967 18.1873 133.057 18.0993 133.121 17.9979C133.188 17.8956 133.227 17.7791 133.238 17.6482C133.252 17.5164 133.233 17.3667 133.182 17.1993C133.125 17.0338 133.051 16.9019 132.962 16.8037C132.875 16.7015 132.776 16.6284 132.665 16.5844C132.552 16.5374 132.428 16.5175 132.293 16.5248C132.158 16.532 132.015 16.5603 131.864 16.6098C131.709 16.6602 131.573 16.7248 131.455 16.8037C131.339 16.8785 131.244 16.9696 131.172 17.0769C131.102 17.1802 131.059 17.2998 131.043 17.4356C131.029 17.5674 131.048 17.7156 131.098 17.88ZM137.064 16.519C137.061 16.664 137.032 16.8008 136.977 16.9294C136.922 17.0579 136.843 17.1758 136.741 17.2829C136.642 17.389 136.522 17.4835 136.381 17.5662C136.241 17.649 136.087 17.7175 135.921 17.7719C135.703 17.8431 135.496 17.8806 135.299 17.8845C135.104 17.8913 134.923 17.8616 134.758 17.7951C134.595 17.7277 134.45 17.6226 134.323 17.4798C134.199 17.3361 134.099 17.1527 134.023 16.9297C133.949 16.7057 133.922 16.4986 133.94 16.3084C133.961 16.1142 134.018 15.9413 134.113 15.7898C134.209 15.6343 134.339 15.4997 134.503 15.3858C134.666 15.269 134.855 15.1755 135.07 15.1053C135.318 15.0242 135.546 14.9883 135.753 14.9976C135.964 15.0059 136.149 15.0559 136.31 15.1475C136.472 15.2351 136.609 15.3613 136.72 15.5261C136.83 15.6909 136.91 15.8877 136.958 16.1166L134.506 16.9175C134.629 17.1821 134.8 17.3523 135.02 17.4281C135.242 17.503 135.501 17.4919 135.798 17.395C136.016 17.3238 136.197 17.2278 136.342 17.1068C136.485 16.9828 136.573 16.8353 136.604 16.6643L137.064 16.519ZM135.202 15.4792C134.923 15.5701 134.71 15.7068 134.562 15.8892C134.416 16.0676 134.362 16.2878 134.401 16.5498L136.417 15.8913C136.376 15.7773 136.314 15.6837 136.23 15.6107C136.149 15.5367 136.054 15.4838 135.947 15.4519C135.838 15.417 135.719 15.4022 135.591 15.4075C135.462 15.4128 135.332 15.4367 135.202 15.4792ZM139.403 16.6143C139.189 16.6875 138.978 16.723 138.769 16.7207C138.564 16.7175 138.373 16.6761 138.196 16.5964L138.542 17.6544L138.118 17.7878L137.08 14.6095L137.502 14.4715L137.576 14.7741C137.669 14.5994 137.797 14.4456 137.958 14.3127C138.122 14.1787 138.314 14.0756 138.535 14.0035C138.741 13.9362 138.94 13.9012 139.134 13.8983C139.326 13.8924 139.503 13.9217 139.665 13.9861C139.83 14.0495 139.975 14.1511 140.101 14.2908C140.229 14.4265 140.331 14.6044 140.406 14.8244C140.48 15.0514 140.508 15.26 140.49 15.4502C140.472 15.6404 140.417 15.8108 140.325 15.9613C140.234 16.1118 140.109 16.2414 139.95 16.3502C139.791 16.459 139.609 16.5471 139.403 16.6143ZM137.895 15.6596C137.953 15.8251 138.026 15.957 138.115 16.0552C138.207 16.1524 138.31 16.2225 138.425 16.2655C138.542 16.3075 138.67 16.3244 138.808 16.3162C138.949 16.3069 139.097 16.2771 139.251 16.2267C139.403 16.1772 139.535 16.1156 139.648 16.0418C139.764 15.967 139.855 15.8789 139.919 15.7776C139.986 15.6752 140.025 15.5587 140.035 15.4278C140.049 15.296 140.031 15.1463 139.979 14.9789C139.922 14.8134 139.849 14.6815 139.76 14.5833C139.673 14.4811 139.573 14.408 139.462 14.364C139.349 14.317 139.226 14.2971 139.091 14.3044C138.956 14.3116 138.812 14.34 138.661 14.3894C138.507 14.4398 138.37 14.5045 138.252 14.5833C138.136 14.6581 138.042 14.7492 137.97 14.8565C137.899 14.9598 137.856 15.0794 137.84 15.2152C137.827 15.3471 137.845 15.4952 137.895 15.6596ZM143.861 14.2986C143.859 14.4436 143.83 14.5804 143.774 14.709C143.719 14.8375 143.64 14.9554 143.538 15.0625C143.439 15.1687 143.319 15.2631 143.178 15.3458C143.038 15.4286 142.885 15.4971 142.718 15.5515C142.5 15.6227 142.293 15.6602 142.097 15.6641C141.901 15.671 141.721 15.6412 141.555 15.5747C141.392 15.5073 141.247 15.4022 141.12 15.2594C140.996 15.1157 140.896 14.9323 140.82 14.7093C140.747 14.4853 140.719 14.2782 140.738 14.088C140.758 13.8938 140.815 13.7209 140.91 13.5694C141.006 13.4139 141.137 13.2793 141.3 13.1655C141.463 13.0486 141.652 12.9551 141.867 12.8849C142.115 12.8038 142.343 12.7679 142.55 12.7772C142.761 12.7856 142.946 12.8355 143.107 12.9271C143.27 13.0147 143.406 13.1409 143.517 13.3057C143.628 13.4705 143.707 13.6673 143.755 13.8962L141.303 14.6971C141.427 14.9617 141.598 15.1319 141.817 15.2077C142.039 15.2826 142.298 15.2716 142.595 15.1747C142.813 15.1035 142.994 15.0074 143.139 14.8864C143.283 14.7624 143.37 14.6149 143.401 14.4439L143.861 14.2986ZM141.999 13.2588C141.721 13.3498 141.507 13.4864 141.359 13.6688C141.213 13.8472 141.16 14.0674 141.198 14.3294L143.214 13.6709C143.174 13.5569 143.111 13.4634 143.027 13.3903C142.946 13.3163 142.852 13.2634 142.744 13.2316C142.636 13.1967 142.517 13.1818 142.388 13.1871C142.259 13.1924 142.129 13.2163 141.999 13.2588ZM144.765 13.6768L145.085 14.6576L144.663 14.7955L143.877 12.3891L144.299 12.2512L144.643 13.3045L145.679 12.9664L146.011 11.692L146.506 11.5303L146.112 12.9856L147.451 13.8848L146.933 14.0539L145.841 13.3253L144.765 13.6768ZM149.42 13.0205C149.376 13.2961 149.324 13.5108 149.264 13.6645C149.204 13.8182 149.134 13.9346 149.056 14.0137C148.979 14.0958 148.891 14.1532 148.791 14.1858C148.692 14.2215 148.579 14.26 148.452 14.3016L148.411 14.3149L148.285 13.929C148.397 13.8924 148.49 13.8587 148.564 13.8279C148.637 13.7972 148.697 13.7557 148.744 13.7037C148.794 13.6506 148.835 13.5783 148.869 13.4869C148.903 13.3955 148.936 13.2708 148.968 13.1129L148.976 13.0601L148.685 13.155L146.803 11.4383L147.28 11.2826C147.576 11.5543 147.846 11.8011 148.09 12.0231C148.194 12.1164 148.296 12.2101 148.397 12.3044C148.498 12.3956 148.591 12.4808 148.677 12.5598C148.762 12.6359 148.834 12.7012 148.892 12.756C148.949 12.8077 148.987 12.8421 149.006 12.8594L149.341 10.6092L149.809 10.4565L149.42 13.0205ZM153.207 11.1304C153.235 11.2887 153.228 11.4382 153.187 11.5789C153.148 11.7156 153.081 11.8416 152.984 11.9568C152.891 12.071 152.773 12.1715 152.63 12.2583C152.489 12.3481 152.329 12.4221 152.15 12.4805C151.932 12.5517 151.727 12.5887 151.533 12.5915C151.344 12.5964 151.169 12.5647 151.01 12.4963C150.85 12.4278 150.71 12.3212 150.589 12.1765C150.468 12.0318 150.369 11.8479 150.293 11.6249C150.22 11.4009 150.189 11.1948 150.202 11.0066C150.213 10.8153 150.261 10.6454 150.347 10.4969C150.434 10.3444 150.557 10.2122 150.714 10.1003C150.871 9.98549 151.057 9.89296 151.272 9.82275C151.451 9.76442 151.624 9.72971 151.791 9.71863C151.961 9.70657 152.119 9.71859 152.265 9.75472C152.411 9.79084 152.542 9.85356 152.658 9.94287C152.773 10.0292 152.866 10.1445 152.937 10.2889L152.483 10.4373C152.436 10.3554 152.374 10.2901 152.298 10.2413C152.225 10.1915 152.14 10.1573 152.043 10.1386C151.95 10.1189 151.846 10.1142 151.732 10.1246C151.622 10.134 151.507 10.158 151.389 10.1965C151.069 10.3044 150.853 10.4622 150.74 10.67C150.627 10.8777 150.621 11.1476 150.723 11.4795C150.836 11.8044 151.001 12.0169 151.217 12.1169C151.437 12.2159 151.708 12.213 152.029 12.1081C152.268 12.03 152.455 11.9204 152.589 11.7792C152.724 11.638 152.78 11.4707 152.757 11.2772L153.207 11.1304Z" fill="#A19994"/>
<path d="M242.393 9.7555C242.331 10.0581 242.231 10.3106 242.092 10.513C241.954 10.7123 241.786 10.8664 241.588 10.9755C241.39 11.0846 241.168 11.148 240.92 11.1657C240.672 11.1865 240.408 11.1682 240.127 11.1108C239.846 11.0534 239.596 10.9649 239.377 10.8453C239.158 10.7226 238.979 10.5723 238.84 10.3944C238.702 10.2133 238.608 10.0056 238.558 9.77118C238.509 9.53366 238.514 9.26983 238.574 8.97968C238.634 8.6833 238.734 8.43392 238.873 8.23154C239.012 8.02604 239.182 7.86563 239.381 7.75031C239.58 7.63499 239.804 7.56381 240.053 7.53676C240.302 7.50971 240.568 7.52487 240.848 7.58226C241.129 7.63965 241.379 7.73126 241.597 7.85708C241.815 7.9829 241.993 8.1379 242.13 8.32209C242.268 8.50627 242.361 8.71869 242.41 8.95932C242.458 9.19996 242.453 9.46535 242.393 9.7555ZM239.058 9.08852C239.014 9.30379 239.008 9.50079 239.04 9.67953C239.075 9.85579 239.143 10.0125 239.241 10.1497C239.344 10.2844 239.476 10.3992 239.639 10.4942C239.805 10.5867 239.996 10.655 240.211 10.699C240.427 10.743 240.627 10.7548 240.813 10.7343C241.003 10.7145 241.169 10.6624 241.313 10.5781C241.461 10.4913 241.584 10.3735 241.683 10.2246C241.785 10.0733 241.859 9.88845 241.904 9.67006C241.948 9.45479 241.953 9.25591 241.918 9.07341C241.888 8.88843 241.822 8.72391 241.722 8.57985C241.625 8.4333 241.494 8.31066 241.329 8.21192C241.168 8.11069 240.979 8.03808 240.764 7.99408C240.549 7.95008 240.346 7.94111 240.155 7.96716C239.969 7.99073 239.801 8.04904 239.652 8.14208C239.506 8.23265 239.382 8.35671 239.278 8.51427C239.178 8.67247 239.104 8.86389 239.058 9.08852ZM245.65 10.972C245.605 11.1773 245.529 11.3503 245.422 11.4909C245.318 11.6323 245.19 11.7426 245.037 11.8219C244.885 11.898 244.712 11.9438 244.517 11.9593C244.325 11.9753 244.118 11.9607 243.897 11.9154C243.688 11.8727 243.496 11.8076 243.323 11.72C243.151 11.6362 243.009 11.5292 242.896 11.3988C242.783 11.2653 242.705 11.1095 242.66 10.9313C242.619 10.7506 242.621 10.5464 242.668 10.3187C242.698 10.1721 242.728 10.0254 242.758 9.87879C242.791 9.7328 242.831 9.59464 242.877 9.46431C242.927 9.3315 242.987 9.20904 243.059 9.09693C243.134 8.98546 243.228 8.8925 243.34 8.81803C243.457 8.74108 243.596 8.68671 243.759 8.65493C243.925 8.62065 244.121 8.61524 244.347 8.63867C244.755 8.67973 245.074 8.70606 245.306 8.71765C245.542 8.72677 245.662 8.73196 245.669 8.73323L245.585 9.1207C245.539 9.12113 245.468 9.11958 245.371 9.11605C245.287 9.11195 245.171 9.10272 245.021 9.08834C244.874 9.07461 244.681 9.05475 244.443 9.02877C244.154 8.9957 243.917 9.01874 243.732 9.0979C243.55 9.17769 243.415 9.30952 243.329 9.49338C243.482 9.43033 243.651 9.39514 243.838 9.3878C244.029 9.37799 244.23 9.39476 244.442 9.43813C244.664 9.4834 244.86 9.54949 245.031 9.63639C245.202 9.72017 245.34 9.82629 245.443 9.95475C245.551 10.0807 245.623 10.2287 245.66 10.3988C245.697 10.5657 245.694 10.7567 245.65 10.972ZM243.107 10.4376C243.051 10.7415 243.098 10.9803 243.248 11.1539C243.402 11.3251 243.644 11.4444 243.974 11.512C244.302 11.579 244.571 11.5657 244.782 11.4723C244.997 11.3764 245.138 11.1762 245.207 10.8718C245.266 10.5654 245.221 10.3335 245.071 10.1761C244.922 10.0156 244.684 9.9019 244.356 9.83495C244.194 9.80179 244.043 9.78554 243.903 9.7862C243.766 9.7875 243.644 9.81134 243.537 9.85772C243.43 9.90411 243.34 9.97492 243.265 10.0702C243.194 10.1629 243.141 10.2854 243.107 10.4376ZM248.089 8.97448L247.979 9.51265L247.394 9.39309L247.504 8.85492L248.089 8.97448ZM248.222 12.2584L248.144 12.6421L245.678 12.138L245.756 11.7543L247.01 12.0106L247.36 10.2979L246.467 10.1152L246.546 9.72674L247.88 9.99934L247.45 12.1006L248.222 12.2584ZM248.861 12.7886L248.749 13.3361L248.314 13.2472L248.504 12.3159L248.546 12.3245C248.64 12.3405 248.724 12.3365 248.797 12.3125C248.871 12.2853 248.939 12.2325 249 12.1541C249.062 12.0756 249.119 11.9688 249.173 11.8335C249.227 11.6951 249.283 11.5245 249.341 11.3218L249.611 10.3581L251.764 10.7981L251.335 12.8946L251.747 12.9788L251.552 13.9091L251.117 13.8201L251.228 13.2773L248.861 12.7886ZM249.731 11.5576C249.61 11.978 249.466 12.285 249.299 12.4785L250.9 12.8056L251.25 11.0928L249.94 10.825L249.731 11.5576Z" fill="#A19994"/>
<path d="M165.031 36.171C164.744 36.3663 164.476 36.4161 164.226 36.3205C163.98 36.2257 163.739 36.0045 163.503 35.657L162.253 33.8208L165.018 31.9397L166.192 33.6653C166.298 33.8207 166.382 33.9673 166.445 34.1054C166.513 34.2443 166.551 34.3764 166.559 34.5018C166.57 34.6253 166.548 34.7403 166.493 34.8468C166.443 34.9542 166.351 35.0536 166.217 35.1449C166.074 35.2417 165.937 35.2911 165.803 35.2933C165.673 35.2936 165.547 35.2652 165.428 35.2081C165.478 35.401 165.475 35.5746 165.418 35.7288C165.366 35.8839 165.237 36.0313 165.031 36.171ZM164.179 33.0764L165.066 34.3796C165.143 34.4928 165.215 34.5866 165.281 34.661C165.347 34.7355 165.411 34.7878 165.474 34.8181C165.539 34.8511 165.604 34.8624 165.671 34.852C165.741 34.8425 165.816 34.8109 165.895 34.7572C165.974 34.7034 166.027 34.6459 166.055 34.5847C166.087 34.5244 166.096 34.4585 166.082 34.3871C166.073 34.3165 166.044 34.2377 165.996 34.1508C165.949 34.0638 165.888 33.9663 165.815 33.8584L164.933 32.5632L164.179 33.0764ZM162.864 33.9713L163.85 35.4205C163.942 35.5548 164.027 35.6569 164.105 35.7268C164.186 35.7949 164.263 35.837 164.335 35.8531C164.412 35.87 164.487 35.8658 164.558 35.8404C164.631 35.8176 164.704 35.7811 164.778 35.731C164.854 35.679 164.916 35.6254 164.963 35.5702C165.011 35.515 165.039 35.4494 165.049 35.3733C165.059 35.2973 165.045 35.2087 165.007 35.1074C164.97 35.0089 164.905 34.8898 164.81 34.7503L163.832 33.3129L162.864 33.9713ZM166.812 39.2368C166.671 39.2744 166.532 39.2845 166.393 39.2673C166.254 39.2501 166.119 39.2072 165.988 39.1387C165.858 39.0728 165.734 38.9839 165.616 38.872C165.497 38.7601 165.389 38.6317 165.29 38.4869C165.161 38.2974 165.067 38.1088 165.009 37.9212C164.948 37.7355 164.927 37.5537 164.944 37.376C164.964 37.201 165.025 37.0326 165.126 36.8709C165.23 36.7118 165.378 36.5646 165.571 36.4294C165.766 36.2968 165.957 36.2129 166.145 36.1775C166.337 36.143 166.519 36.1501 166.691 36.1988C166.867 36.2484 167.033 36.336 167.188 36.4617C167.345 36.5856 167.488 36.741 167.615 36.9279C167.762 37.1438 167.86 37.3526 167.908 37.5544C167.959 37.7589 167.962 37.9509 167.919 38.1306C167.88 38.3112 167.797 38.4776 167.67 38.6298C167.542 38.7821 167.375 38.913 167.169 39.0228L165.717 36.8904C165.498 37.0824 165.382 37.2941 165.37 37.5256C165.36 37.7598 165.442 38.0059 165.618 38.2639C165.747 38.4534 165.89 38.6009 166.046 38.7062C166.205 38.8098 166.371 38.8528 166.544 38.8353L166.812 39.2368ZM167.293 37.1589C167.128 36.9167 166.937 36.7498 166.721 36.6583C166.509 36.5675 166.282 36.5772 166.041 36.6873L167.235 38.4405C167.333 38.3698 167.405 38.2839 167.452 38.1828C167.501 38.0843 167.525 37.9789 167.526 37.8668C167.529 37.7528 167.51 37.6346 167.469 37.5122C167.429 37.3899 167.37 37.2721 167.293 37.1589ZM169.999 40.7032L167.909 42.1314L167.659 41.7641L168.355 41.2845L167.786 40.4474C167.676 40.2868 167.594 40.1348 167.539 39.9914C167.485 39.8505 167.468 39.7143 167.486 39.5825C167.504 39.4507 167.562 39.3208 167.66 39.1927C167.759 39.0672 167.905 38.939 168.097 38.8083L168.516 38.5234L168.766 38.8906L168.359 39.1674C168.201 39.2749 168.088 39.3749 168.02 39.4674C167.955 39.5581 167.921 39.6481 167.921 39.7373C167.921 39.8292 167.948 39.9225 168.001 40.0174C168.054 40.1123 168.12 40.2177 168.199 40.3335L168.691 41.0561L169.749 40.3359L169.999 40.7032ZM170.525 44.6935C170.385 44.731 170.245 44.7412 170.107 44.724C169.968 44.7067 169.833 44.6639 169.701 44.5953C169.572 44.5294 169.448 44.4405 169.329 44.3286C169.211 44.2167 169.102 44.0883 169.004 43.9436C168.875 43.754 168.781 43.5655 168.723 43.3779C168.662 43.1921 168.64 43.0104 168.658 42.8327C168.677 42.6576 168.738 42.4892 168.84 42.3275C168.943 42.1684 169.092 42.0213 169.285 41.8861C169.479 41.7535 169.671 41.6695 169.859 41.6342C170.051 41.5997 170.233 41.6068 170.405 41.6555C170.581 41.705 170.746 41.7926 170.901 41.9183C171.059 42.0423 171.201 42.1977 171.328 42.3846C171.475 42.6005 171.573 42.8093 171.622 43.0111C171.672 43.2155 171.676 43.4076 171.633 43.5873C171.594 43.7678 171.51 43.9342 171.383 44.0865C171.255 44.2387 171.088 44.3697 170.882 44.4794L169.431 42.347C169.211 42.539 169.095 42.7508 169.083 42.9823C169.073 43.2164 169.156 43.4625 169.331 43.7205C169.46 43.9101 169.603 44.0575 169.759 44.1629C169.919 44.2665 170.085 44.3095 170.258 44.2919L170.525 44.6935ZM171.006 42.6155C170.841 42.3733 170.651 42.2065 170.434 42.1149C170.222 42.0242 169.996 42.0339 169.755 42.1439L170.948 43.8972C171.046 43.8265 171.119 43.7406 171.165 43.6394C171.214 43.5409 171.239 43.4356 171.239 43.3234C171.243 43.2094 171.224 43.0913 171.183 42.9689C171.142 42.8465 171.083 42.7287 171.006 42.6155ZM171.084 46.9665C170.954 46.7814 170.861 46.5884 170.805 46.3876C170.751 46.1894 170.738 45.9943 170.765 45.8024L169.845 46.4285L169.599 46.0586L172.364 44.1775L172.613 44.5447L172.343 44.6997C172.537 44.7411 172.72 44.8206 172.893 44.9382C173.067 45.0584 173.22 45.2146 173.35 45.4068C173.472 45.5858 173.561 45.7678 173.618 45.9527C173.677 46.1359 173.698 46.3141 173.681 46.4873C173.666 46.6632 173.609 46.8312 173.51 46.9911C173.415 47.1519 173.273 47.2989 173.082 47.4324C172.885 47.5667 172.692 47.6516 172.504 47.6869C172.317 47.7223 172.138 47.7169 171.968 47.6709C171.798 47.6248 171.638 47.5406 171.49 47.4184C171.341 47.2962 171.206 47.1455 171.084 46.9665ZM171.582 45.2528C171.439 45.3539 171.332 45.4609 171.263 45.5738C171.195 45.6892 171.156 45.8079 171.147 45.9299C171.139 46.0545 171.159 46.182 171.205 46.3122C171.253 46.4451 171.323 46.5787 171.414 46.713C171.504 46.8446 171.6 46.9545 171.702 47.0428C171.806 47.1336 171.916 47.1957 172.031 47.2291C172.148 47.2651 172.271 47.2701 172.399 47.2441C172.53 47.2208 172.668 47.1612 172.815 47.0653C172.958 46.9641 173.064 46.8571 173.134 46.7443C173.208 46.6323 173.251 46.5166 173.262 46.3973C173.276 46.2761 173.26 46.1518 173.216 46.0241C173.171 45.8965 173.104 45.7668 173.015 45.6352C172.923 45.501 172.823 45.388 172.715 45.2963C172.611 45.2054 172.497 45.1403 172.374 45.1008C172.255 45.0622 172.128 45.0541 171.993 45.0766C171.863 45.0999 171.726 45.1587 171.582 45.2528ZM173.615 48.86L172.493 48.8667L172.186 48.4166L173.387 48.4488C173.329 48.2842 173.323 48.1284 173.369 47.9813C173.418 47.8325 173.53 47.6967 173.704 47.5741C173.818 47.497 173.927 47.4478 174.032 47.4265C174.141 47.4061 174.245 47.4086 174.343 47.4342C174.443 47.4624 174.537 47.5122 174.624 47.5838C174.711 47.6554 174.791 47.7452 174.865 47.8531L175.846 49.2945L173.753 50.7187L173.503 50.3515L174.273 49.8275L173.615 48.86ZM173.953 47.9479C173.84 48.025 173.776 48.1126 173.762 48.2107C173.75 48.3116 173.783 48.4199 173.862 48.5357L174.593 49.6098L175.272 49.1476L174.541 48.0735C174.464 47.9603 174.376 47.8909 174.278 47.8653C174.18 47.8398 174.072 47.8673 173.953 47.9479Z" fill="#A19994"/>
<path d="M207.258 73.8226L207.06 74.4514L206.614 74.3111L206.937 73.2813L207.028 73.3099C207.186 73.3495 207.334 73.3258 207.471 73.2388C207.613 73.1497 207.743 73.0256 207.864 72.8664C207.985 72.7042 208.096 72.5204 208.197 72.3153C208.299 72.107 208.388 71.903 208.464 71.7033C208.543 71.5045 208.609 71.3231 208.66 71.1591C208.716 70.993 208.759 70.8729 208.789 70.7988L211.322 71.5948L210.446 74.3837L210.897 74.5254L210.574 75.5553L210.127 75.415L210.325 74.7861L207.258 73.8226ZM209.095 71.3358C209.029 71.5153 208.955 71.7124 208.875 71.9273C208.795 72.1392 208.702 72.3488 208.597 72.5561C208.493 72.7603 208.376 72.9507 208.247 73.1271C208.121 73.3046 207.978 73.448 207.817 73.5576L209.999 74.2434L210.75 71.8555L209.095 71.3358ZM214.279 75.2726C214.193 75.3889 214.09 75.4834 213.97 75.556C213.851 75.6285 213.718 75.6787 213.572 75.7064C213.43 75.735 213.277 75.7422 213.115 75.7279C212.953 75.7136 212.788 75.6802 212.621 75.6277C212.402 75.559 212.212 75.4691 212.05 75.3581C211.887 75.2502 211.757 75.121 211.661 74.9706C211.568 74.8211 211.511 74.6514 211.49 74.4614C211.473 74.2724 211.498 74.065 211.566 73.8392C211.636 73.6144 211.734 73.4299 211.86 73.2857C211.989 73.1395 212.136 73.0322 212.301 72.9638C212.47 72.8934 212.654 72.8595 212.854 72.8621C213.054 72.8617 213.262 72.8953 213.478 72.9631C213.727 73.0413 213.933 73.1445 214.097 73.2726C214.263 73.4017 214.385 73.5501 214.462 73.718C214.544 73.8837 214.582 74.0659 214.576 74.2644C214.571 74.4629 214.521 74.6692 214.427 74.8833L211.966 74.1102C211.913 74.3972 211.953 74.6352 212.087 74.8242C212.224 75.0142 212.442 75.1559 212.74 75.2495C212.958 75.3182 213.162 75.3454 213.35 75.331C213.539 75.3137 213.696 75.2445 213.821 75.1235L214.279 75.2726ZM213.368 73.3442C213.089 73.2564 212.836 73.2436 212.609 73.306C212.387 73.3662 212.215 73.5142 212.094 73.75L214.118 74.3856C214.151 74.2692 214.154 74.1569 214.128 74.0486C214.105 73.9412 214.059 73.8433 213.99 73.7549C213.922 73.6634 213.834 73.5823 213.726 73.5117C213.618 73.441 213.499 73.3852 213.368 73.3442ZM217.362 76.126C217.293 76.2712 217.201 76.3891 217.086 76.4797C216.975 76.5683 216.846 76.6314 216.701 76.6692C216.558 76.7079 216.404 76.7212 216.238 76.709C216.07 76.6998 215.897 76.667 215.718 76.6107C215.499 76.542 215.31 76.4526 215.151 76.3426C214.994 76.2365 214.871 76.1092 214.781 75.9607C214.69 75.8123 214.638 75.644 214.624 75.4559C214.609 75.2678 214.636 75.0609 214.704 74.8351C214.774 74.6103 214.869 74.4249 214.989 74.2788C215.109 74.1296 215.247 74.0195 215.403 73.9483C215.563 73.875 215.739 73.8387 215.933 73.8394C216.127 73.837 216.332 73.8697 216.548 73.9375C216.727 73.9938 216.888 74.0661 217.03 74.1542C217.176 74.2433 217.298 74.345 217.395 74.4591C217.493 74.5732 217.563 74.7004 217.606 74.8407C217.649 74.9779 217.658 75.1258 217.632 75.2844L217.176 75.1412C217.185 75.0474 217.173 74.9585 217.14 74.8744C217.109 74.7914 217.06 74.7142 216.992 74.6428C216.927 74.5725 216.846 74.5084 216.747 74.4507C216.651 74.3939 216.544 74.347 216.426 74.3097C216.103 74.2116 215.835 74.2142 215.622 74.3176C215.409 74.421 215.248 74.6373 215.138 74.9666C215.041 75.2966 215.052 75.5653 215.17 75.7727C215.291 75.9811 215.513 76.1359 215.835 76.237C216.075 76.3124 216.291 76.3319 216.483 76.2953C216.675 76.2587 216.817 76.1551 216.911 75.9842L217.362 76.126ZM220.786 77.3167C220.699 77.433 220.596 77.5274 220.476 77.6C220.357 77.6726 220.224 77.7227 220.078 77.7504C219.936 77.7791 219.784 77.7862 219.621 77.7719C219.459 77.7576 219.294 77.7242 219.127 77.6717C218.908 77.603 218.718 77.5132 218.556 77.4022C218.393 77.2942 218.263 77.165 218.167 77.0146C218.074 76.8652 218.017 76.6954 217.996 76.5054C217.979 76.3164 218.004 76.109 218.072 75.8832C218.142 75.6584 218.24 75.4739 218.366 75.3298C218.495 75.1835 218.642 75.0762 218.807 75.0079C218.976 74.9375 219.16 74.9036 219.36 74.9061C219.56 74.9057 219.768 74.9393 219.984 75.0071C220.233 75.0854 220.439 75.1886 220.603 75.3167C220.769 75.4457 220.891 75.5942 220.969 75.762C221.05 75.9278 221.088 76.1099 221.082 76.3084C221.077 76.5069 221.027 76.7132 220.933 76.9274L218.472 76.1543C218.419 76.4412 218.459 76.6792 218.593 76.8682C218.731 77.0582 218.948 77.2 219.246 77.2935C219.464 77.3622 219.668 77.3894 219.856 77.3751C220.045 77.3577 220.202 77.2885 220.327 77.1675L220.786 77.3167ZM219.874 75.3882C219.595 75.3004 219.342 75.2877 219.115 75.35C218.893 75.4103 218.721 75.5583 218.6 75.794L220.624 76.4297C220.657 76.3133 220.66 76.2009 220.634 76.0926C220.611 75.9852 220.565 75.8873 220.496 75.7989C220.428 75.7074 220.34 75.6264 220.232 75.5557C220.124 75.4851 220.005 75.4292 219.874 75.3882ZM222.633 78.7534C222.417 78.6887 222.224 78.5948 222.056 78.4718C221.891 78.3498 221.759 78.2051 221.662 78.0376L221.328 79.0993L220.906 78.9616L221.908 75.7718L222.332 75.9049L222.216 76.194C222.394 76.1063 222.587 76.0551 222.795 76.0404C223.006 76.0267 223.223 76.0546 223.444 76.1243C223.651 76.1892 223.834 76.2767 223.993 76.3867C224.153 76.4937 224.28 76.6204 224.374 76.7669C224.471 76.9142 224.531 77.0814 224.552 77.2683C224.577 77.4532 224.557 77.657 224.49 77.8797C224.418 78.1076 224.32 78.2936 224.195 78.4378C224.069 78.582 223.926 78.6887 223.764 78.758C223.602 78.8272 223.424 78.86 223.232 78.8563C223.04 78.8526 222.84 78.8183 222.633 78.7534ZM221.961 77.1003C221.912 77.2683 221.895 77.4182 221.91 77.5498C221.929 77.6824 221.972 77.7995 222.04 77.9011C222.111 78.0036 222.206 78.0916 222.323 78.1651C222.443 78.2395 222.58 78.3011 222.735 78.3498C222.887 78.3975 223.031 78.4242 223.166 78.4299C223.304 78.4366 223.428 78.4173 223.539 78.3721C223.653 78.3278 223.753 78.2556 223.838 78.1554C223.926 78.0562 223.997 77.9235 224.053 77.7574C224.102 77.5894 224.119 77.4395 224.104 77.3078C224.093 77.1741 224.054 77.0569 223.989 76.9563C223.925 76.8527 223.836 76.7646 223.722 76.6921C223.608 76.6195 223.475 76.5594 223.323 76.5117C223.168 76.463 223.019 76.4363 222.877 76.4318C222.739 76.4251 222.61 76.4445 222.488 76.4899C222.371 76.5332 222.267 76.6055 222.175 76.7068C222.087 76.806 222.016 76.9372 221.961 77.1003ZM226.561 77.6592L225.924 79.6871L225.496 79.5525L226.133 77.5247L224.989 77.1653L225.111 76.778L227.817 77.6284L227.696 78.0157L226.561 77.6592Z" fill="#A19994"/>
</svg>
