<svg width="360" height="158" viewBox="0 0 360 158" fill="none" xmlns="http://www.w3.org/2000/svg">
<g clip-path="url(#clip0_742_9581)">
<path d="M341.973 48.1882C335.933 46.7873 329.827 45.7322 323.694 45.0229C317.56 44.3137 311.513 43.9607 305.434 43.9559C299.97 43.9511 294.351 44.0944 289.334 45.9773C284.848 47.6635 280.972 51.1372 279.979 55.6714C279.741 56.7479 279.669 57.8804 279.819 58.9932C279.97 60.1059 280.422 61.4079 281.568 62.0918C282.111 62.4149 282.766 62.5036 283.34 62.3048C284.02 62.0716 284.392 61.5381 284.619 60.9218C284.95 60.0232 285.049 59.1031 285.8 58.4051C286.072 58.1514 286.421 57.933 286.826 57.9034L285.998 57.4486C286.738 58.5402 286.041 59.9318 286.19 61.0971C286.368 62.5216 287.285 64.0436 289.008 64.1267C289.305 64.1412 289.677 63.9823 289.795 63.7249C290.561 62.0519 291.297 60.3634 292.091 58.7018C292.196 58.4796 292.316 58.138 292.546 58.0034C292.689 57.9157 292.733 57.9594 292.853 58.0668C293.383 58.542 293.228 59.3051 293.166 59.8857C293.08 60.7388 293.072 61.5638 293.559 62.3591C293.983 63.0489 294.756 63.6088 295.618 63.6202C297.535 63.6504 298.254 61.3953 298.769 60.0738C299.232 58.8934 299.989 57.1399 301.669 57.2535L300.7 56.3674C300.805 57.5665 300.913 58.7666 301.018 59.9657C301.106 60.9588 301.01 62.212 301.621 63.1124C302.268 64.0687 303.507 64.2445 304.496 63.8137C305.419 63.4107 305.919 62.6544 306.319 61.8208C306.598 61.2436 306.892 60.4126 307.711 60.4121C308.607 60.4117 309.64 60.8876 310.434 61.2766C312.285 62.1867 313.837 63.5128 315.166 65.0072C316.495 66.5016 317.555 68.1906 318.521 69.896C319.061 70.8473 319.614 71.7885 320.334 72.6446C321.093 73.5435 322.026 74.271 323.017 74.9369C327.094 77.6809 331.648 80.1214 336.453 81.4151C341.491 82.7697 346.832 82.8289 351.733 81.6C352.87 81.3162 352.33 79.6363 351.188 79.9223C347.062 80.9584 342.615 81.0432 338.322 80.1137C333.654 79.105 329.376 76.9067 325.37 74.4123C324.425 73.8228 323.468 73.2368 322.636 72.5124C321.804 71.7879 321.222 70.9698 320.686 70.0796C319.652 68.366 318.72 66.6345 317.457 65.0347C316.195 63.4349 314.755 61.9913 313.035 60.8168C312.178 60.2339 311.263 59.7551 310.293 59.3639C309.38 58.9954 308.345 58.632 307.361 58.7001C306.191 58.7836 305.416 59.4998 304.924 60.4176C304.576 61.0675 304.339 62.0347 303.504 62.2957C303.373 62.3371 303.272 62.3484 303.227 62.3112C303.138 62.237 303.109 62.1088 303.086 62.0034C302.952 61.4681 302.965 60.8954 302.916 60.3514C302.798 59.039 302.684 57.7243 302.566 56.4119C302.524 55.9301 302.125 55.562 301.597 55.5259C299.866 55.4092 298.483 56.5336 297.726 57.8273C297.286 58.5756 297.026 59.409 296.695 60.2015C296.54 60.5724 296.364 60.934 296.148 61.2704C296.024 61.4624 295.819 61.8444 295.551 61.8871C295.116 61.9579 294.96 60.9993 294.966 60.6933C294.979 59.8343 295.232 58.9814 294.93 58.1203C294.658 57.3416 294.012 56.559 293.129 56.3153C292.17 56.0506 291.319 56.4628 290.803 57.1583C290.24 57.9118 289.938 58.8785 289.551 59.7227C289.082 60.7459 288.612 61.7724 288.147 62.7966L288.933 62.3948C288.622 62.3796 288.394 62.1153 288.23 61.7447C288.002 61.2292 288.011 60.7014 288.058 60.1736C288.169 58.9703 288.346 57.75 287.583 56.6272C287.414 56.3791 287.081 56.1459 286.755 56.1725C285.528 56.2618 284.6 56.8332 283.914 57.7328C283.601 58.1415 283.381 58.6003 283.195 59.0725C283.025 59.5169 282.998 60.054 282.776 60.4735C282.718 60.5777 282.649 60.6329 282.572 60.6894C282.615 60.6589 282.741 60.789 282.529 60.6741C282.639 60.7326 282.409 60.5984 282.468 60.6396C282.07 60.3741 281.85 59.8574 281.752 59.4414C281.528 58.5205 281.554 57.506 281.708 56.601C282.423 52.4003 285.907 49.2389 289.964 47.6288C294.503 45.8298 299.722 45.6964 304.698 45.6761C310.508 45.6526 316.34 45.9498 322.155 46.5642C328.66 47.2522 335.137 48.3495 341.537 49.8321C342.713 50.1035 343.149 48.4562 341.966 48.1828L341.973 48.1882Z" fill="#A19994"/>
<path d="M319.475 146.715C315.22 141.96 311.408 136.881 308.079 131.561C304.75 126.242 301.903 120.687 299.594 114.966C298.441 112.106 297.419 109.208 296.533 106.283C296.31 105.54 296.094 104.794 295.888 104.048C295.69 103.339 295.554 102.605 295.295 101.908C295.021 101.164 294.523 100.521 293.704 100.225C292.945 99.9518 292.059 100.096 291.424 100.483C289.945 101.376 289.782 103.29 289.433 104.781C289.227 105.661 289.022 106.541 288.813 107.417C288.718 107.829 288.618 108.24 288.523 108.652C288.477 108.845 288.434 109.038 288.388 109.23C288.339 109.432 288.216 109.695 288.225 109.903C288.229 110.021 288.243 109.922 288.374 109.866C288.533 109.797 288.508 109.953 288.428 109.825C288.36 109.71 288.126 109.519 288.039 109.328C287.802 108.818 287.82 108.165 287.792 107.63C287.725 106.36 287.804 105.085 287.601 103.812C287.399 102.54 286.899 101.183 285.801 100.251C284.561 99.1944 282.854 99.1547 281.82 100.298C280.786 101.441 280.535 102.913 280.122 104.277C279.604 105.983 279.09 107.69 278.572 109.393C278.319 110.232 278.065 111.074 277.808 111.912L279.36 111.576C278.454 110.626 278.49 109.232 278.472 108.089C278.45 106.662 278.35 105.277 277.589 103.953C276.827 102.629 275.488 101.786 273.944 101.943C272.584 102.081 271.624 103.043 271.055 104.109C270.358 105.409 270.104 106.877 269.766 108.297C269.555 109.182 269.343 110.071 269.132 110.957C269.055 111.282 269.009 111.641 268.87 111.949C268.859 111.978 268.767 112.136 268.769 112.13C268.617 112.519 268.688 112.171 268.707 112.187C268.684 112.17 268.918 112.185 268.899 112.197C268.847 112.232 268.675 111.757 268.655 111.667C268.571 111.318 268.573 110.951 268.551 110.602C268.5 109.704 268.507 108.808 268.564 107.916C268.615 107.12 268.848 106.258 268.42 105.489C267.993 104.721 267.135 104.368 266.279 104.499C264.68 104.744 263.783 106.201 263.129 107.413C262.413 108.739 261.922 110.177 261.661 111.661C261.137 114.663 261.463 117.807 262.431 120.793C264.451 127.014 269.227 132.235 274.192 136.79C279.632 141.78 285.458 146.562 291.95 150.322C292.746 150.782 293.55 151.227 294.366 151.653C295.439 152.214 296.336 150.758 295.263 150.197C288.839 146.83 283.148 142.4 277.794 137.692C272.909 133.399 268.015 128.75 265.26 123.02C263.981 120.362 263.268 117.474 263.271 114.633C263.275 111.791 263.953 108.973 265.706 106.848C265.871 106.649 266.077 106.473 266.308 106.346C266.4 106.293 266.493 106.248 266.595 106.216C266.603 106.215 266.826 106.167 266.756 106.183C266.875 106.159 266.838 106.227 266.815 106.196C266.748 106.107 266.803 106.482 266.799 106.541C266.791 106.96 266.723 107.372 266.693 107.788C266.635 108.624 266.622 109.466 266.659 110.31C266.693 111.048 266.705 111.826 267.025 112.529C267.344 113.232 268.009 113.896 268.905 113.882C269.8 113.867 270.348 113.258 270.63 112.551C270.911 111.844 271.029 111.063 271.201 110.326C271.405 109.466 271.61 108.607 271.814 107.748C272.093 106.57 272.327 105.372 273.071 104.397C273.568 103.745 274.455 103.318 275.291 103.934C276.253 104.638 276.535 106.027 276.565 107.061C276.609 108.36 276.519 109.696 276.957 110.973C277.183 111.633 277.548 112.222 278.05 112.746C278.553 113.27 279.427 112.995 279.602 112.41C280.11 110.729 280.62 109.053 281.128 107.372C281.608 105.78 282.014 104.145 282.592 102.586C282.74 102.181 282.98 101.707 283.291 101.411C283.575 101.143 283.863 101.007 284.322 101.296C285.305 101.92 285.65 103.168 285.764 104.165C285.906 105.385 285.831 106.602 285.915 107.82C286 109.038 286.229 110.597 287.6 111.329C288.319 111.711 289.163 111.64 289.666 111.071C290.195 110.475 290.243 109.48 290.418 108.733C290.816 107.04 291.203 105.344 291.613 103.65C291.749 103.083 291.886 102.332 292.42 101.971C292.77 101.731 293.197 101.708 293.413 102.107C293.723 102.68 293.808 103.403 293.972 104.014C294.169 104.737 294.374 105.462 294.588 106.182C295.437 109.043 296.413 111.875 297.521 114.67C299.75 120.309 302.486 125.811 305.69 131.086C308.893 136.365 312.575 141.407 316.67 146.161C317.163 146.735 317.666 147.305 318.172 147.872C318.504 148.243 319.166 148.214 319.493 147.918C319.87 147.577 319.791 147.071 319.459 146.7L319.475 146.715Z" fill="#A19994"/>
<path d="M244.542 110.712C249.909 111.822 255.4 112.184 260.83 111.759C261.295 111.721 261.689 111.395 261.68 110.904C261.671 110.47 261.267 110.009 260.799 110.043C255.523 110.457 250.186 110.138 244.972 109.06C244.512 108.965 244.042 109.185 243.92 109.653C243.81 110.076 244.083 110.614 244.542 110.709L244.542 110.712Z" fill="#A19994"/>
<path d="M299.415 112.221C303.508 111.902 307.586 111.508 311.644 111.032C315.111 110.623 318.774 110.193 321.178 107.84C323.515 105.554 324.389 102.326 324.953 99.2617C325.594 95.7625 325.744 92.1677 325.622 88.5697C325.48 84.5134 325.003 80.4466 324.516 76.3902C324.464 75.9557 324.082 75.5748 323.577 75.5567C323.115 75.541 322.667 75.8932 322.718 76.3308C323.543 83.2438 324.406 90.2723 323.47 97.0836C323.063 100.063 322.476 103.268 320.648 105.751C319.806 106.894 318.65 107.756 317.238 108.305C315.827 108.855 314.099 109.1 312.49 109.299C308.129 109.842 303.74 110.273 299.334 110.616C298.855 110.652 298.452 110.918 298.475 111.39C298.493 111.782 298.933 112.258 299.415 112.224L299.415 112.221Z" fill="#A19994"/>
<path d="M309.215 106.893C310.908 100.78 309.711 94.2244 307.992 87.9639C306.272 81.7033 304.483 75.471 300.563 69.9786C298.507 67.1003 295.881 64.5071 292.671 62.5972C292.165 62.2963 291.546 62.5556 291.409 63.0111C288.593 72.2036 285.777 81.3961 282.96 90.5916C282.16 93.2038 281.36 95.8161 280.559 98.4283C280.271 99.367 281.976 99.834 282.263 98.8983C285.079 89.7058 287.895 80.5133 290.712 71.3178C291.512 68.7056 292.313 66.0933 293.113 63.4811L291.851 63.895C297.42 67.2082 300.835 72.6086 303.005 77.9942C304.211 80.9925 305.129 84.0598 306.001 87.1238C306.872 90.1878 307.633 93.2148 308.023 96.2914C308.459 99.7222 308.42 103.158 307.515 106.424C307.254 107.37 308.958 107.84 309.219 106.894L309.215 106.893Z" fill="#A19994"/>
<path d="M280.239 101.895C280.399 95.6954 279.612 89.4256 277.918 83.3159C277.083 80.2995 276.062 77.2921 274.679 74.4182C273.297 71.5442 271.533 69.1768 269.204 66.9752C266.875 64.7736 264.115 62.6547 262.493 59.8457C261.914 58.8407 260.327 59.6545 260.903 60.6584C262.355 63.1767 264.636 65.1599 266.827 67.1432C267.901 68.1184 268.967 69.1124 269.911 70.2001C270.92 71.3659 271.75 72.6662 272.461 73.9901C273.922 76.7016 274.922 79.6221 275.784 82.5078C276.645 85.3935 277.333 88.4682 277.767 91.4868C278.26 94.9356 278.46 98.4024 278.373 101.85C278.342 102.955 280.213 102.998 280.239 101.895Z" fill="#A19994"/>
<path d="M278.105 55.8184C271.54 55.7717 264.969 55.7231 258.431 56.0872C255.417 56.2546 252.314 56.3834 249.378 57.0035C248.038 57.288 246.707 57.7212 245.54 58.4014C244.373 59.0817 243.345 60.0506 242.513 61.1399C240.894 63.2579 239.903 65.8656 239.095 68.3744C238.313 70.8137 237.788 73.3273 237.495 75.8806C236.894 81.1015 237.272 86.4219 238.462 91.6216C239.652 96.8214 241.651 101.837 244.332 106.526C244.668 107.113 245.015 107.693 245.372 108.271C245.963 109.224 247.477 108.413 246.886 107.457C244.135 103.013 242.035 98.241 240.683 93.2851C239.334 88.3441 238.745 83.2404 239.059 78.2014C239.212 75.7314 239.601 73.2882 240.219 70.901C240.837 68.5138 241.669 66.092 242.858 63.9005C243.461 62.7863 244.18 61.7321 245.128 60.8626C246.076 59.9932 247.174 59.4194 248.39 59.0311C251.026 58.1957 253.928 58.0742 256.7 57.8856C263.031 57.4572 269.403 57.4509 275.767 57.4909C276.564 57.4951 277.357 57.5017 278.155 57.5059C279.29 57.5129 279.248 55.824 278.106 55.8151L278.105 55.8184Z" fill="#A19994"/>
<path d="M248.65 108.098C252.585 102.145 256.107 95.777 257.863 88.8182C259.461 82.4969 259.379 75.8328 257.422 69.4669C256.388 66.094 254.852 62.8404 252.872 59.8553C252.294 58.9851 250.886 59.7475 251.466 60.6216C254.867 65.743 256.895 71.6494 257.294 77.6346C257.745 84.4134 255.966 91.0009 253.108 97.03C251.422 100.591 249.394 103.98 247.22 107.267C246.662 108.114 248.091 108.935 248.647 108.094L248.65 108.098Z" fill="#A19994"/>
<path d="M257.925 59.1528C260.077 62.5288 261.568 66.1823 262.364 69.9655C262.462 70.4273 263.083 70.7047 263.529 70.6052C264.051 70.4874 264.248 70.0292 264.15 69.5673C263.327 65.6494 261.744 61.8398 259.514 58.3433C258.886 57.3604 257.3 58.1709 257.924 59.1561L257.925 59.1528Z" fill="#A19994"/>
<path d="M266.072 75.5483C264.507 84.2097 262.939 92.8702 261.374 101.532L260.039 108.906C259.956 109.36 260.217 109.839 260.733 109.981C261.198 110.11 261.773 109.862 261.856 109.407C263.421 100.746 264.989 92.0853 266.554 83.4239L267.889 76.0496C267.972 75.5952 267.711 75.1167 267.195 74.9743C266.73 74.8459 266.155 75.0939 266.072 75.5483Z" fill="#A19994"/>
<path d="M0 13.614C1.41063 13.614 26.0927 22.1156 70.9333 20.9857C135.347 19.3625 106.139 7.36645 166.902 2.67234C216.451 0.0645023 267.043 1.26773 267.043 17.0155C263.018 49.6614 178.614 16.1703 163.772 21.9704C148.931 27.7704 156.731 54.3076 186.822 70.8026C213.321 83.2547 239.501 86.4496 249.31 85.3409" stroke="#A19994" stroke-width="1.02354" stroke-linecap="round"/>
<path d="M38.5768 15.0889C38.4871 15.4907 38.2852 15.7882 37.9713 15.9813C37.6572 16.1712 37.2535 16.2678 36.7599 16.2711C36.4606 16.273 36.1928 16.235 35.9567 16.1569C35.7205 16.0788 35.5208 15.9671 35.3574 15.8217C35.194 15.6731 35.0687 15.4924 34.9813 15.2796C34.8939 15.0668 34.8494 14.8267 34.8476 14.5592L34.847 14.4732C34.8452 14.1962 34.8866 13.9492 34.9712 13.7321C35.0557 13.515 35.1787 13.3326 35.3401 13.1851C35.5016 13.0344 35.6998 12.92 35.935 12.8421C36.1701 12.7609 36.4373 12.7194 36.7366 12.7174C36.9914 12.7157 37.2224 12.7397 37.4297 12.7893C37.6402 12.8389 37.8222 12.9157 37.9758 13.0198C38.1324 13.1207 38.2607 13.2488 38.3604 13.4042C38.4601 13.5595 38.5266 13.7422 38.5598 13.9522L38.044 13.9555C38.0113 13.8316 37.9564 13.7189 37.8794 13.6175C37.8054 13.5129 37.7125 13.4243 37.6006 13.3518C37.4918 13.2761 37.3641 13.2196 37.2173 13.1824C37.0738 13.1419 36.9144 13.1223 36.7393 13.1234C36.5068 13.1249 36.3033 13.1613 36.1286 13.2325C35.9539 13.3005 35.808 13.3954 35.691 13.5172C35.574 13.6389 35.4858 13.786 35.4264 13.9584C35.3702 14.1275 35.3428 14.314 35.3441 14.5178C35.3454 14.712 35.3752 14.8917 35.4336 15.0569C35.4952 15.2221 35.5853 15.3648 35.7039 15.4851C35.8225 15.6053 35.9696 15.6999 36.1452 15.7688C36.3208 15.8345 36.5248 15.8666 36.7572 15.8651C37.1107 15.8627 37.4016 15.794 37.63 15.6587C37.8616 15.5203 38.0084 15.3314 38.0705 15.0922L38.5768 15.0889ZM39.4981 15.1163L39.5049 16.148L39.0607 16.1509L39.0441 13.6194L39.4883 13.6165L39.4955 14.7103L41.3439 14.6982L41.3368 13.6092L41.781 13.6015L41.7976 16.133L41.3581 16.1359L41.3514 15.1042L39.4981 15.1163ZM43.9325 12.5366L43.9361 13.0858L43.3391 13.0897L43.3355 12.5405L43.9325 12.5366ZM44.7415 15.722L44.7441 16.1137L42.2269 16.1302L42.2244 15.7385L43.5044 15.7301L43.493 13.982L42.5807 13.9879L42.5781 13.5915L43.9394 13.5826L43.9534 15.7272L44.7415 15.722ZM45.4756 16.1089L45.4792 16.6677L45.035 16.6707L45.0288 15.7201L45.0718 15.7199C45.1673 15.7161 45.2484 15.6948 45.315 15.6562C45.3816 15.6143 45.4369 15.5487 45.4809 15.4593C45.5249 15.3698 45.5591 15.2533 45.5837 15.1099C45.6082 14.9632 45.6277 14.7848 45.6423 14.5745L45.7074 13.5758L47.9045 13.5614L47.9185 15.7012L48.3389 15.6985L48.3403 16.649L47.8961 16.6519L47.8925 16.0979L45.4756 16.1089ZM46.0731 14.7246C46.041 15.161 45.9635 15.4911 45.8408 15.7148L47.4743 15.7041L47.4629 13.956L46.1255 13.9647L46.0731 14.7246ZM50.8871 15.3665C50.8856 15.6372 50.8026 15.8432 50.6379 15.9844C50.4765 16.1255 50.2397 16.1971 49.9276 16.1992L49.7652 16.2002C49.4532 16.2023 49.2107 16.1338 49.0378 15.9948C48.865 15.8527 48.7744 15.6367 48.7661 15.347C48.7643 15.0636 48.8505 14.8544 49.0247 14.7196C49.199 14.5815 49.4421 14.5114 49.7542 14.5094L51.2205 14.4998C51.2037 14.3598 51.1631 14.2454 51.0989 14.1567C51.0346 14.0647 50.9593 13.9936 50.873 13.9432C50.7866 13.8896 50.6925 13.8536 50.5904 13.8352C50.4916 13.8135 50.3992 13.803 50.3132 13.8036L50.2654 13.8039C50.1794 13.8044 50.0903 13.8114 49.9981 13.8247C49.9058 13.8381 49.8168 13.8625 49.7311 13.8981C49.6453 13.9305 49.5676 13.9756 49.4979 14.0334C49.4282 14.0912 49.3762 14.1664 49.3417 14.2589L48.8736 14.262C48.8888 14.1377 48.9326 14.0244 49.0052 13.922C49.0809 13.8196 49.1791 13.7314 49.2996 13.6574C49.4233 13.5801 49.5646 13.5203 49.7235 13.4778C49.8857 13.4354 50.0575 13.4136 50.239 13.4124L50.2772 13.4121C50.5256 13.4105 50.7375 13.4378 50.913 13.4939C51.0885 13.5501 51.2324 13.6367 51.3446 13.7538C51.4568 13.8709 51.539 14.02 51.5911 14.2012C51.6433 14.3824 51.6717 14.5971 51.6766 14.8455L51.6846 16.0683L51.2404 16.0712L51.2326 14.8818L50.7406 14.8803C50.837 15.0102 50.8858 15.1723 50.8871 15.3665ZM49.2103 15.3441C49.2145 15.4969 49.2598 15.6128 49.3463 15.6919C49.4328 15.7677 49.5716 15.805 49.7626 15.8038L49.925 15.8027C50.1097 15.8015 50.2448 15.7624 50.3303 15.6854C50.4158 15.6085 50.4612 15.4919 50.4665 15.3359C50.4591 15.1799 50.4138 15.0655 50.3305 14.9928C50.2473 14.9201 50.1101 14.8844 49.919 14.8857L49.7566 14.8867C49.5656 14.888 49.4273 14.9255 49.3418 14.9993C49.2563 15.0731 49.2125 15.188 49.2103 15.3441ZM52.8385 15.029L52.8452 16.0607L52.401 16.0636L52.3845 13.5321L52.8287 13.5292L52.8358 14.623L54.6843 14.6109L54.6772 13.5218L55.1213 13.5142L55.1379 16.0456L54.6985 16.0485L54.6917 15.0168L52.8385 15.029ZM58.635 14.7665C58.6334 14.999 58.5949 15.203 58.5196 15.3787C58.4475 15.5511 58.3434 15.6951 58.2072 15.8106C58.0742 15.9261 57.914 16.0131 57.7265 16.0717C57.5422 16.1302 57.337 16.1602 57.1109 16.1617C56.8816 16.1632 56.6744 16.1359 56.4894 16.0798C56.3043 16.0269 56.1446 15.9435 56.0101 15.8298C55.8788 15.716 55.7759 15.5718 55.7016 15.3971C55.6272 15.2225 55.5876 15.0173 55.5829 14.7817C55.5813 14.5461 55.6166 14.3404 55.6887 14.1648C55.7608 13.986 55.8617 13.8389 55.9915 13.7234C56.1245 13.6047 56.2831 13.5161 56.4674 13.4576C56.6549 13.3958 56.8617 13.3642 57.0878 13.3628C57.317 13.3613 57.5258 13.3885 57.7141 13.4446C57.9023 13.5007 58.0637 13.5872 58.1982 13.7042C58.3359 13.8179 58.4419 13.9637 58.5163 14.1415C58.5939 14.3194 58.6335 14.5277 58.635 14.7665ZM56.0366 14.7692C56.0452 15.113 56.1408 15.3656 56.3234 15.5268C56.5091 15.6848 56.7707 15.7627 57.1083 15.7605C57.4458 15.7583 57.708 15.6769 57.8948 15.5165C58.0816 15.3561 58.1771 15.1023 58.1812 14.7551C58.1725 14.4081 58.0722 14.1556 57.8801 13.9976C57.688 13.8365 57.4231 13.757 57.0856 13.7592C56.7481 13.7614 56.4891 13.8443 56.3086 14.0079C56.1314 14.1683 56.0407 14.4221 56.0366 14.7692ZM59.5413 14.9851L59.5481 16.0168L59.1038 16.0197L59.0873 13.4882L59.5315 13.4853L59.5387 14.5934L60.6278 14.5863L61.3322 13.4735L61.8528 13.4701L61.0347 14.7365L62.0366 16.0005L61.492 16.004L60.6733 14.9777L59.5413 14.9851Z" fill="#A19994"/>
<path d="M122.574 18.6092L123.481 21.3879L123.036 21.5333L121.998 18.355L125.04 17.3613L126.079 20.5396L125.634 20.6849L124.726 17.9062L122.574 18.6092ZM129.267 18.7393C129.264 18.8843 129.235 19.0211 129.18 19.1496C129.125 19.2782 129.046 19.396 128.944 19.5032C128.844 19.6093 128.724 19.7037 128.584 19.7865C128.444 19.8692 128.29 19.9378 128.124 19.9922C127.906 20.0633 127.698 20.1009 127.502 20.1047C127.307 20.1116 127.126 20.0818 126.96 20.0154C126.798 19.9479 126.653 19.8428 126.526 19.7001C126.402 19.5563 126.302 19.373 126.225 19.15C126.152 18.926 126.125 18.7189 126.143 18.5286C126.163 18.3344 126.221 18.1616 126.315 18.0101C126.412 17.8546 126.542 17.7199 126.706 17.6061C126.869 17.4893 127.058 17.3958 127.273 17.3255C127.521 17.2445 127.749 17.2086 127.956 17.2179C128.166 17.2262 128.352 17.2762 128.512 17.3678C128.675 17.4553 128.812 17.5815 128.923 17.7463C129.033 17.9111 129.113 18.108 129.161 18.3369L126.709 19.1378C126.832 19.4023 127.003 19.5725 127.222 19.6484C127.444 19.7232 127.704 19.7122 128 19.6153C128.218 19.5441 128.4 19.448 128.544 19.3271C128.688 19.2031 128.776 19.0555 128.807 18.8845L129.267 18.7393ZM127.405 17.6994C127.126 17.7904 126.913 17.9271 126.765 18.1095C126.619 18.2878 126.565 18.508 126.604 18.7701L128.62 18.1116C128.579 17.9975 128.517 17.904 128.433 17.831C128.351 17.757 128.257 17.7041 128.15 17.6722C128.041 17.6373 127.922 17.6225 127.793 17.6278C127.664 17.633 127.535 17.6569 127.405 17.6994ZM131.606 18.8345C131.392 18.9078 131.181 18.9433 130.972 18.941C130.767 18.9378 130.576 18.8963 130.399 18.8167L130.745 19.8746L130.321 20.008L129.283 16.8297L129.705 16.6918L129.779 16.9943C129.872 16.8197 130 16.6659 130.161 16.5329C130.324 16.399 130.517 16.2959 130.738 16.2237C130.944 16.1565 131.143 16.1214 131.337 16.1186C131.529 16.1127 131.706 16.1419 131.868 16.2064C132.033 16.2698 132.178 16.3714 132.304 16.5111C132.432 16.6468 132.534 16.8246 132.609 17.0446C132.683 17.2716 132.711 17.4803 132.693 17.6705C132.675 17.8607 132.62 18.031 132.528 18.1815C132.437 18.332 132.311 18.4617 132.153 18.5705C131.994 18.6793 131.812 18.7673 131.606 18.8345ZM130.098 17.8799C130.155 18.0454 130.229 18.1773 130.318 18.2755C130.41 18.3727 130.513 18.4428 130.628 18.4858C130.745 18.5278 130.873 18.5447 131.011 18.5364C131.152 18.5272 131.3 18.4974 131.454 18.447C131.605 18.3975 131.738 18.3359 131.851 18.262C131.967 18.1872 132.057 18.0991 132.121 17.9978C132.188 17.8955 132.227 17.7789 132.238 17.6481C132.252 17.5163 132.233 17.3666 132.182 17.1991C132.125 17.0336 132.051 16.9018 131.962 16.8036C131.875 16.7013 131.776 16.6282 131.665 16.5843C131.552 16.5373 131.428 16.5174 131.293 16.5246C131.158 16.5319 131.015 16.5602 130.864 16.6097C130.71 16.6601 130.573 16.7247 130.455 16.8036C130.339 16.8784 130.245 16.9695 130.172 17.0768C130.102 17.1801 130.059 17.2996 130.043 17.4355C130.029 17.5673 130.048 17.7155 130.098 17.8799ZM136.064 16.5189C136.061 16.6639 136.032 16.8007 135.977 16.9292C135.922 17.0578 135.843 17.1756 135.741 17.2828C135.642 17.3889 135.522 17.4834 135.381 17.5661C135.241 17.6488 135.087 17.7174 134.921 17.7718C134.703 17.843 134.496 17.8805 134.299 17.8843C134.104 17.8912 133.923 17.8614 133.758 17.795C133.595 17.7275 133.45 17.6224 133.323 17.4797C133.199 17.3359 133.099 17.1526 133.023 16.9296C132.95 16.7056 132.922 16.4985 132.94 16.3083C132.961 16.114 133.018 15.9412 133.113 15.7897C133.209 15.6342 133.339 15.4995 133.503 15.3857C133.666 15.2689 133.855 15.1754 134.07 15.1052C134.318 15.0241 134.546 14.9882 134.753 14.9975C134.964 15.0058 135.149 15.0558 135.31 15.1474C135.472 15.2349 135.609 15.3611 135.72 15.526C135.831 15.6908 135.91 15.8876 135.958 16.1165L133.506 16.9174C133.629 17.182 133.801 17.3522 134.02 17.428C134.242 17.5028 134.501 17.4918 134.798 17.3949C135.016 17.3237 135.197 17.2276 135.342 17.1067C135.485 16.9827 135.573 16.8352 135.604 16.6642L136.064 16.5189ZM134.202 15.479C133.924 15.57 133.71 15.7067 133.562 15.8891C133.416 16.0674 133.362 16.2876 133.401 16.5497L135.417 15.8912C135.376 15.7771 135.314 15.6836 135.23 15.6106C135.149 15.5366 135.054 15.4837 134.947 15.4518C134.838 15.4169 134.72 15.4021 134.591 15.4074C134.462 15.4126 134.332 15.4365 134.202 15.479ZM138.403 16.6142C138.189 16.6874 137.978 16.7229 137.77 16.7206C137.564 16.7174 137.373 16.6759 137.196 16.5963L137.542 17.6542L137.118 17.7876L136.08 14.6094L136.502 14.4714L136.576 14.774C136.67 14.5993 136.797 14.4455 136.958 14.3125C137.122 14.1786 137.314 14.0755 137.535 14.0033C137.741 13.9361 137.941 13.9011 138.134 13.8982C138.326 13.8923 138.503 13.9216 138.665 13.986C138.83 14.0494 138.975 14.151 139.101 14.2907C139.229 14.4264 139.331 14.6043 139.406 14.8242C139.48 15.0513 139.508 15.2599 139.49 15.4501C139.472 15.6403 139.417 15.8106 139.325 15.9611C139.234 16.1116 139.109 16.2413 138.95 16.3501C138.791 16.4589 138.609 16.5469 138.403 16.6142ZM136.895 15.6595C136.953 15.825 137.026 15.9569 137.115 16.0551C137.207 16.1523 137.31 16.2224 137.425 16.2654C137.542 16.3074 137.67 16.3243 137.808 16.316C137.949 16.3068 138.097 16.277 138.251 16.2266C138.403 16.1771 138.535 16.1155 138.648 16.0417C138.764 15.9668 138.855 15.8788 138.919 15.7774C138.986 15.6751 139.025 15.5586 139.036 15.4277C139.049 15.2959 139.031 15.1462 138.979 14.9788C138.922 14.8133 138.849 14.6814 138.76 14.5832C138.673 14.481 138.573 14.4079 138.462 14.3639C138.349 14.3169 138.226 14.297 138.091 14.3043C137.956 14.3115 137.813 14.3398 137.661 14.3893C137.507 14.4397 137.371 14.5043 137.252 14.5832C137.136 14.658 137.042 14.7491 136.97 14.8564C136.9 14.9597 136.857 15.0793 136.841 15.2151C136.827 15.3469 136.845 15.4951 136.895 15.6595ZM142.862 14.2985C142.859 14.4435 142.83 14.5803 142.775 14.7089C142.719 14.8374 142.641 14.9553 142.538 15.0624C142.439 15.1685 142.319 15.263 142.179 15.3457C142.038 15.4284 141.885 15.497 141.718 15.5514C141.5 15.6226 141.293 15.6601 141.097 15.664C140.901 15.6708 140.721 15.641 140.555 15.5746C140.392 15.5072 140.247 15.4021 140.12 15.2593C139.996 15.1156 139.896 14.9322 139.82 14.7092C139.747 14.4852 139.719 14.2781 139.738 14.0879C139.758 13.8937 139.815 13.7208 139.91 13.5693C140.007 13.4138 140.137 13.2792 140.301 13.1653C140.463 13.0485 140.652 12.955 140.867 12.8848C141.115 12.8037 141.343 12.7678 141.551 12.7771C141.761 12.7854 141.946 12.8354 142.107 12.927C142.27 13.0146 142.406 13.1408 142.517 13.3056C142.628 13.4704 142.707 13.6672 142.755 13.8961L140.303 14.697C140.427 14.9616 140.598 15.1318 140.817 15.2076C141.039 15.2825 141.298 15.2714 141.595 15.1745C141.813 15.1033 141.994 15.0073 142.139 14.8863C142.283 14.7623 142.37 14.6148 142.402 14.4438L142.862 14.2985ZM140.999 13.2587C140.721 13.3496 140.508 13.4863 140.359 13.6687C140.213 13.8471 140.16 14.0673 140.198 14.3293L142.214 13.6708C142.174 13.5568 142.111 13.4632 142.027 13.3902C141.946 13.3162 141.852 13.2633 141.744 13.2314C141.636 13.1965 141.517 13.1817 141.388 13.187C141.259 13.1923 141.13 13.2161 140.999 13.2587ZM143.765 13.6767L144.086 14.6574L143.663 14.7954L142.877 12.389L143.3 12.251L143.644 13.3044L144.679 12.9662L145.011 11.6919L145.506 11.5302L145.112 12.9855L146.451 13.8847L145.934 14.0538L144.841 13.3252L143.765 13.6767ZM148.42 13.0203C148.376 13.296 148.324 13.5107 148.264 13.6644C148.204 13.8181 148.134 13.9345 148.056 14.0136C147.979 14.0957 147.891 14.153 147.791 14.1857C147.692 14.2213 147.579 14.2599 147.452 14.3014L147.411 14.3148L147.285 13.9289C147.397 13.8923 147.49 13.8586 147.564 13.8278C147.637 13.7971 147.698 13.7556 147.744 13.7035C147.794 13.6505 147.836 13.5782 147.869 13.4868C147.903 13.3954 147.936 13.2707 147.968 13.1128L147.976 13.06L147.686 13.1549L145.803 11.4382L146.28 11.2825C146.576 11.5541 146.846 11.801 147.09 12.023C147.194 12.1162 147.296 12.21 147.398 12.3043C147.498 12.3955 147.591 12.4806 147.677 12.5597C147.762 12.6357 147.834 12.7011 147.892 12.7558C147.949 12.8075 147.987 12.842 148.006 12.8592L148.341 10.6091L148.809 10.4564L148.42 13.0203ZM152.207 11.1303C152.235 11.2885 152.229 11.438 152.187 11.5788C152.148 11.7155 152.081 11.8415 151.984 11.9567C151.891 12.0709 151.773 12.1714 151.631 12.2582C151.489 12.3479 151.329 12.422 151.15 12.4803C150.932 12.5515 150.727 12.5886 150.533 12.5914C150.344 12.5963 150.17 12.5646 150.01 12.4961C149.85 12.4277 149.71 12.3211 149.589 12.1764C149.468 12.0317 149.369 11.8478 149.293 11.6248C149.22 11.4008 149.189 11.1947 149.202 11.0065C149.213 10.8152 149.261 10.6453 149.347 10.4968C149.434 10.3442 149.557 10.2121 149.715 10.1002C149.871 9.98536 150.057 9.89283 150.272 9.82263C150.451 9.76429 150.624 9.72959 150.791 9.71851C150.961 9.70644 151.119 9.71847 151.265 9.75459C151.411 9.79072 151.542 9.85344 151.658 9.94275C151.773 10.029 151.866 10.1444 151.937 10.2888L151.483 10.4371C151.436 10.3553 151.375 10.29 151.298 10.2412C151.225 10.1914 151.14 10.1571 151.044 10.1384C150.95 10.1187 150.846 10.1141 150.733 10.1245C150.622 10.1339 150.507 10.1579 150.389 10.1964C150.069 10.3043 149.853 10.4621 149.74 10.6698C149.627 10.8776 149.621 11.1474 149.723 11.4794C149.836 11.8043 150.001 12.0167 150.218 12.1167C150.437 12.2157 150.708 12.2128 151.029 12.108C151.268 12.0299 151.455 11.9203 151.59 11.7791C151.724 11.6379 151.78 11.4706 151.757 11.2771L152.207 11.1303Z" fill="#A19994"/>
<path d="M241.393 9.75562C241.331 10.0582 241.231 10.3107 241.092 10.5131C240.954 10.7124 240.786 10.8666 240.588 10.9756C240.39 11.0847 240.168 11.1481 239.92 11.1658C239.672 11.1866 239.408 11.1683 239.127 11.1109C238.846 11.0535 238.596 10.965 238.377 10.8455C238.158 10.7228 237.979 10.5724 237.84 10.3945C237.702 10.2134 237.608 10.0057 237.558 9.7713C237.509 9.53378 237.514 9.26995 237.574 8.9798C237.634 8.68342 237.734 8.43404 237.873 8.23166C238.012 8.02616 238.182 7.86575 238.381 7.75043C238.58 7.63512 238.804 7.56393 239.053 7.53688C239.302 7.50983 239.568 7.525 239.848 7.58239C240.129 7.63978 240.379 7.73138 240.597 7.8572C240.815 7.98302 240.993 8.13802 241.13 8.32221C241.268 8.5064 241.361 8.71881 241.41 8.95945C241.458 9.20008 241.453 9.46548 241.393 9.75562ZM238.058 9.08864C238.014 9.30391 238.008 9.50091 238.04 9.67966C238.075 9.85592 238.143 10.0126 238.241 10.1498C238.344 10.2845 238.476 10.3994 238.639 10.4943C238.805 10.5869 238.996 10.6551 239.211 10.6991C239.427 10.7431 239.627 10.7549 239.813 10.7344C240.003 10.7146 240.169 10.6626 240.313 10.5782C240.461 10.4914 240.584 10.3736 240.683 10.2248C240.785 10.0734 240.859 9.88857 240.904 9.67019C240.948 9.45492 240.953 9.25603 240.918 9.07353C240.888 8.88855 240.822 8.72403 240.722 8.57997C240.625 8.43343 240.494 8.31078 240.329 8.21204C240.168 8.11082 239.979 8.0382 239.764 7.9942C239.549 7.95021 239.346 7.94123 239.155 7.96728C238.969 7.99085 238.801 8.04916 238.652 8.1422C238.506 8.23277 238.382 8.35683 238.278 8.5144C238.178 8.6726 238.104 8.86401 238.058 9.08864ZM244.65 10.9721C244.605 11.1774 244.529 11.3504 244.422 11.4911C244.318 11.6324 244.19 11.7427 244.037 11.822C243.885 11.8982 243.712 11.944 243.517 11.9594C243.325 11.9754 243.118 11.9608 242.897 11.9155C242.688 11.8728 242.496 11.8077 242.323 11.7202C242.151 11.6364 242.009 11.5293 241.896 11.3989C241.783 11.2654 241.705 11.1096 241.66 10.9314C241.619 10.7508 241.621 10.5466 241.668 10.3188C241.698 10.1722 241.728 10.0255 241.758 9.87892C241.791 9.73292 241.831 9.59476 241.877 9.46443C241.927 9.33162 241.987 9.20917 242.059 9.09706C242.134 8.98559 242.228 8.89262 242.34 8.81815C242.457 8.7412 242.596 8.68684 242.759 8.65505C242.925 8.62078 243.121 8.61536 243.347 8.63879C243.755 8.67986 244.074 8.70618 244.306 8.71778C244.542 8.72689 244.662 8.73208 244.669 8.73336L244.585 9.12082C244.539 9.12125 244.468 9.1197 244.371 9.11617C244.287 9.11207 244.171 9.10284 244.021 9.08847C243.874 9.07473 243.681 9.05487 243.443 9.02889C243.154 8.99582 242.917 9.01886 242.732 9.09802C242.55 9.17781 242.415 9.30964 242.329 9.49351C242.482 9.43045 242.651 9.39526 242.838 9.38793C243.029 9.37811 243.23 9.39489 243.442 9.43825C243.664 9.48352 243.86 9.54961 244.031 9.63651C244.202 9.72029 244.34 9.82641 244.443 9.95488C244.551 10.0809 244.623 10.2289 244.66 10.3989C244.697 10.5658 244.694 10.7569 244.65 10.9721ZM242.107 10.4378C242.051 10.7417 242.098 10.9804 242.248 11.154C242.402 11.3252 242.644 11.4445 242.974 11.5121C243.302 11.5791 243.571 11.5659 243.782 11.4724C243.997 11.3766 244.138 11.1764 244.207 10.8719C244.266 10.5655 244.221 10.3336 244.071 10.1763C243.922 10.0158 243.684 9.90202 243.356 9.83507C243.194 9.80191 243.043 9.78566 242.903 9.78632C242.766 9.78762 242.644 9.81146 242.537 9.85785C242.43 9.90423 242.34 9.97504 242.265 10.0703C242.194 10.163 242.141 10.2855 242.107 10.4378ZM247.089 8.9746L246.979 9.51277L246.394 9.39321L246.504 8.85504L247.089 8.9746ZM247.222 12.2585L247.144 12.6422L244.678 12.1382L244.756 11.7544L246.01 12.0108L246.36 10.298L245.467 10.1153L245.546 9.72687L246.88 9.99947L246.45 12.1007L247.222 12.2585ZM247.861 12.7887L247.749 13.3363L247.314 13.2473L247.504 12.316L247.546 12.3246C247.64 12.3406 247.724 12.3366 247.797 12.3126C247.871 12.2854 247.939 12.2326 248 12.1542C248.062 12.0758 248.119 11.9689 248.173 11.8336C248.227 11.6952 248.283 11.5246 248.341 11.3219L248.611 10.3582L250.764 10.7982L250.335 12.8947L250.747 12.9789L250.552 13.9092L250.117 13.8202L250.228 13.2774L247.861 12.7887ZM248.731 11.5577C248.61 11.9782 248.466 12.2851 248.299 12.4786L249.9 12.8058L250.25 11.093L248.94 10.8251L248.731 11.5577Z" fill="#A19994"/>
<path d="M164.031 36.1714C163.744 36.3667 163.476 36.4165 163.226 36.3208C162.98 36.226 162.739 36.0049 162.503 35.6574L161.253 33.8212L164.017 31.9401L165.192 33.6657C165.298 33.821 165.382 33.9677 165.445 34.1058C165.513 34.2447 165.551 34.3768 165.559 34.5021C165.57 34.6257 165.548 34.7407 165.493 34.8472C165.443 34.9546 165.351 35.0539 165.217 35.1453C165.074 35.242 164.937 35.2915 164.803 35.2936C164.673 35.294 164.547 35.2656 164.428 35.2085C164.478 35.4014 164.475 35.575 164.418 35.7292C164.366 35.8843 164.237 36.0317 164.031 36.1714ZM163.179 33.0768L164.066 34.3799C164.143 34.4931 164.215 34.5869 164.281 34.6614C164.347 34.7358 164.411 34.7882 164.474 34.8185C164.539 34.8515 164.604 34.8628 164.671 34.8524C164.741 34.8429 164.816 34.8113 164.895 34.7575C164.974 34.7038 165.027 34.6463 165.055 34.5851C165.087 34.5247 165.096 34.4589 165.082 34.3874C165.073 34.3169 165.044 34.2381 164.996 34.1511C164.949 34.0641 164.888 33.9667 164.815 33.8587L163.933 32.5635L163.179 33.0768ZM161.864 33.9717L162.85 35.4209C162.942 35.5552 163.027 35.6572 163.105 35.7272C163.186 35.7953 163.263 35.8374 163.335 35.8535C163.412 35.8704 163.487 35.8662 163.558 35.8407C163.631 35.818 163.704 35.7815 163.778 35.7313C163.854 35.6794 163.916 35.6258 163.963 35.5706C164.011 35.5154 164.039 35.4497 164.049 35.3737C164.059 35.2976 164.045 35.209 164.007 35.1078C163.97 35.0092 163.905 34.8902 163.81 34.7507L162.832 33.3133L161.864 33.9717ZM165.811 39.2372C165.671 39.2747 165.532 39.2849 165.393 39.2677C165.254 39.2504 165.119 39.2076 164.988 39.1391C164.858 39.0732 164.734 38.9843 164.616 38.8723C164.497 38.7604 164.389 38.6321 164.29 38.4873C164.161 38.2977 164.067 38.1092 164.009 37.9216C163.948 37.7358 163.927 37.5541 163.944 37.3764C163.964 37.2013 164.024 37.0329 164.126 36.8712C164.23 36.7121 164.378 36.565 164.571 36.4298C164.766 36.2972 164.957 36.2132 165.145 36.1779C165.337 36.1434 165.519 36.1505 165.691 36.1992C165.867 36.2487 166.033 36.3364 166.188 36.4621C166.345 36.586 166.488 36.7414 166.615 36.9283C166.762 37.1442 166.86 37.353 166.908 37.5548C166.959 37.7592 166.962 37.9513 166.919 38.131C166.88 38.3115 166.797 38.4779 166.669 38.6302C166.542 38.7824 166.375 38.9134 166.168 39.0231L164.717 36.8908C164.497 37.0827 164.382 37.2945 164.37 37.526C164.36 37.7602 164.442 38.0062 164.618 38.2642C164.747 38.4538 164.89 38.6012 165.046 38.7066C165.205 38.8102 165.371 38.8532 165.544 38.8357L165.811 39.2372ZM166.292 37.1592C166.128 36.9171 165.937 36.7502 165.721 36.6586C165.509 36.5679 165.282 36.5776 165.041 36.6876L166.234 38.4409C166.333 38.3702 166.405 38.2843 166.452 38.1831C166.5 38.0846 166.525 37.9793 166.526 37.8671C166.529 37.7532 166.51 37.635 166.469 37.5126C166.428 37.3902 166.369 37.2724 166.292 37.1592ZM168.999 40.7035L166.909 42.1318L166.659 41.7645L167.355 41.2849L166.786 40.4478C166.676 40.2872 166.594 40.1352 166.539 39.9917C166.485 39.8509 166.468 39.7146 166.486 39.5829C166.504 39.4511 166.562 39.3211 166.66 39.193C166.759 39.0675 166.905 38.9394 167.097 38.8086L167.516 38.5238L167.766 38.891L167.359 39.1678C167.201 39.2753 167.088 39.3753 167.02 39.4678C166.955 39.5585 166.921 39.6485 166.921 39.7377C166.921 39.8295 166.948 39.9229 167.001 40.0178C167.054 40.1127 167.12 40.218 167.199 40.3338L167.691 41.0565L168.749 40.3363L168.999 40.7035ZM169.525 44.6938C169.385 44.7314 169.245 44.7415 169.107 44.7243C168.968 44.7071 168.833 44.6642 168.701 44.5957C168.572 44.5298 168.448 44.4409 168.329 44.329C168.211 44.2171 168.102 44.0887 168.003 43.9439C167.874 43.7544 167.781 43.5658 167.723 43.3783C167.662 43.1925 167.64 43.0107 167.658 42.833C167.677 42.658 167.738 42.4896 167.84 42.3279C167.943 42.1688 168.092 42.0216 168.285 41.8864C168.479 41.7539 168.671 41.6699 168.858 41.6345C169.051 41.6 169.233 41.6071 169.405 41.6558C169.581 41.7054 169.746 41.793 169.901 41.9187C170.059 42.0426 170.201 42.198 170.328 42.385C170.475 42.6008 170.573 42.8097 170.622 43.0114C170.672 43.2159 170.676 43.4079 170.633 43.5876C170.594 43.7682 170.51 43.9346 170.383 44.0868C170.255 44.2391 170.088 44.3701 169.882 44.4798L168.431 42.3474C168.211 42.5394 168.095 42.7511 168.083 42.9827C168.073 43.2168 168.156 43.4629 168.331 43.7209C168.46 43.9104 168.603 44.0579 168.759 44.1633C168.918 44.2668 169.084 44.3099 169.257 44.2923L169.525 44.6938ZM170.006 42.6159C169.841 42.3737 169.65 42.2068 169.434 42.1153C169.222 42.0246 168.996 42.0342 168.755 42.1443L169.948 43.8976C170.046 43.8268 170.119 43.7409 170.165 43.6398C170.214 43.5413 170.238 43.436 170.239 43.3238C170.243 43.2098 170.224 43.0916 170.183 42.9693C170.142 42.8469 170.083 42.7291 170.006 42.6159ZM170.084 46.9669C169.954 46.7818 169.861 46.5888 169.805 46.388C169.751 46.1897 169.738 45.9947 169.765 45.8028L168.845 46.4289L168.599 46.059L171.364 44.1779L171.613 44.5451L171.343 44.7C171.537 44.7415 171.72 44.821 171.893 44.9386C172.067 45.0588 172.22 45.215 172.35 45.4072C172.472 45.5862 172.561 45.7681 172.618 45.9531C172.677 46.1362 172.698 46.3144 172.681 46.4877C172.666 46.6636 172.609 46.8315 172.51 46.9915C172.415 47.1522 172.273 47.2993 172.082 47.4327C171.885 47.5671 171.692 47.6519 171.504 47.6873C171.316 47.7227 171.138 47.7173 170.968 47.6712C170.798 47.6252 170.638 47.541 170.49 47.4188C170.341 47.2965 170.206 47.1459 170.084 46.9669ZM170.582 45.2531C170.439 45.3543 170.332 45.4613 170.263 45.5741C170.195 45.6896 170.156 45.8083 170.147 45.9303C170.139 46.0549 170.158 46.1823 170.205 46.3126C170.253 46.4455 170.323 46.5791 170.414 46.7134C170.504 46.845 170.6 46.9549 170.702 47.0431C170.806 47.134 170.916 47.1961 171.031 47.2295C171.148 47.2654 171.271 47.2704 171.399 47.2445C171.53 47.2212 171.668 47.1615 171.815 47.0656C171.958 46.9645 172.064 46.8575 172.134 46.7446C172.208 46.6327 172.25 46.517 172.262 46.3976C172.276 46.2765 172.26 46.1521 172.216 46.0245C172.171 45.8968 172.104 45.7672 172.015 45.6356C171.923 45.5013 171.823 45.3883 171.715 45.2966C171.61 45.2058 171.497 45.1406 171.374 45.1012C171.255 45.0626 171.128 45.0545 170.993 45.077C170.863 45.1003 170.725 45.159 170.582 45.2531ZM172.615 48.8604L171.493 48.8671L171.186 48.4169L172.387 48.4492C172.329 48.2846 172.323 48.1287 172.369 47.9817C172.418 47.8328 172.53 47.6971 172.704 47.5744C172.818 47.4974 172.927 47.4482 173.031 47.4269C173.141 47.4064 173.245 47.409 173.343 47.4345C173.443 47.4627 173.537 47.5126 173.624 47.5842C173.711 47.6558 173.791 47.7456 173.865 47.8535L174.846 49.2948L172.753 50.7191L172.503 50.3519L173.273 49.8278L172.615 48.8604ZM172.953 47.9483C172.84 48.0253 172.776 48.1129 172.762 48.2111C172.75 48.3119 172.783 48.4202 172.862 48.5361L173.593 49.6102L174.272 49.1479L173.541 48.0739C173.464 47.9607 173.376 47.8913 173.278 47.8657C173.18 47.8402 173.071 47.8677 172.953 47.9483Z" fill="#A19994"/>
<path d="M206.258 73.8226L206.06 74.4514L205.614 74.3111L205.937 73.2813L206.028 73.3099C206.186 73.3495 206.334 73.3258 206.471 73.2388C206.613 73.1497 206.743 73.0256 206.863 72.8664C206.985 72.7042 207.096 72.5204 207.197 72.3153C207.299 72.107 207.388 71.903 207.464 71.7033C207.543 71.5045 207.609 71.3231 207.66 71.1591C207.716 70.993 207.758 70.8729 207.788 70.7988L210.322 71.5948L209.446 74.3837L209.897 74.5254L209.573 75.5553L209.127 75.415L209.324 74.7861L206.258 73.8226ZM208.095 71.3358C208.029 71.5153 207.955 71.7124 207.874 71.9273C207.795 72.1392 207.702 72.3488 207.597 72.5561C207.493 72.7603 207.376 72.9507 207.247 73.1271C207.121 73.3046 206.978 73.448 206.817 73.5576L208.999 74.2434L209.749 71.8555L208.095 71.3358ZM213.279 75.2726C213.193 75.3889 213.09 75.4834 212.97 75.556C212.85 75.6285 212.718 75.6787 212.572 75.7064C212.43 75.735 212.277 75.7422 212.115 75.7279C211.953 75.7136 211.788 75.6802 211.621 75.6277C211.402 75.559 211.212 75.4691 211.05 75.3581C210.887 75.2502 210.757 75.121 210.661 74.9706C210.567 74.8211 210.511 74.6514 210.49 74.4614C210.473 74.2724 210.498 74.065 210.565 73.8392C210.636 73.6144 210.734 73.4299 210.86 73.2857C210.989 73.1395 211.136 73.0322 211.301 72.9638C211.47 72.8934 211.654 72.8595 211.854 72.8621C212.054 72.8617 212.262 72.8953 212.478 72.9631C212.727 73.0413 212.933 73.1445 213.097 73.2726C213.263 73.4017 213.385 73.5501 213.462 73.718C213.544 73.8837 213.582 74.0659 213.576 74.2644C213.57 74.4629 213.521 74.6692 213.427 74.8833L210.966 74.1102C210.913 74.3972 210.953 74.6352 211.087 74.8242C211.224 75.0142 211.442 75.1559 211.74 75.2495C211.958 75.3182 212.162 75.3454 212.35 75.331C212.539 75.3137 212.696 75.2445 212.821 75.1235L213.279 75.2726ZM212.368 73.3442C212.089 73.2564 211.836 73.2436 211.609 73.306C211.387 73.3662 211.215 73.5142 211.094 73.75L213.117 74.3856C213.151 74.2692 213.154 74.1569 213.128 74.0486C213.105 73.9412 213.059 73.8433 212.99 73.7549C212.922 73.6634 212.834 73.5823 212.726 73.5117C212.618 73.441 212.499 73.3852 212.368 73.3442ZM216.362 76.126C216.293 76.2712 216.201 76.3891 216.086 76.4797C215.974 76.5683 215.846 76.6314 215.701 76.6692C215.558 76.7079 215.404 76.7212 215.238 76.709C215.07 76.6998 214.897 76.667 214.718 76.6107C214.499 76.542 214.31 76.4526 214.151 76.3426C213.994 76.2365 213.871 76.1092 213.78 75.9607C213.69 75.8123 213.638 75.644 213.624 75.4559C213.609 75.2678 213.636 75.0609 213.703 74.8351C213.774 74.6103 213.869 74.4249 213.988 74.2788C214.109 74.1296 214.247 74.0195 214.403 73.9483C214.563 73.875 214.739 73.8387 214.933 73.8394C215.127 73.837 215.332 73.8697 215.548 73.9375C215.727 73.9938 215.888 74.0661 216.03 74.1542C216.176 74.2433 216.297 74.345 216.395 74.4591C216.493 74.5732 216.563 74.7004 216.606 74.8407C216.649 74.9779 216.658 75.1258 216.631 75.2844L216.176 75.1412C216.185 75.0474 216.173 74.9585 216.139 74.8744C216.109 74.7914 216.06 74.7142 215.992 74.6428C215.927 74.5725 215.846 74.5084 215.747 74.4507C215.651 74.3939 215.544 74.347 215.426 74.3097C215.103 74.2116 214.835 74.2142 214.622 74.3176C214.409 74.421 214.248 74.6373 214.138 74.9666C214.041 75.2966 214.052 75.5653 214.17 75.7727C214.291 75.9811 214.513 76.1359 214.835 76.237C215.075 76.3124 215.291 76.3319 215.483 76.2953C215.674 76.2587 215.817 76.1551 215.911 75.9842L216.362 76.126ZM219.785 77.3167C219.699 77.433 219.596 77.5274 219.476 77.6C219.356 77.6726 219.224 77.7227 219.078 77.7504C218.936 77.7791 218.783 77.7862 218.621 77.7719C218.459 77.7576 218.294 77.7242 218.127 77.6717C217.908 77.603 217.718 77.5132 217.556 77.4022C217.393 77.2942 217.263 77.165 217.167 77.0146C217.073 76.8652 217.017 76.6954 216.996 76.5054C216.979 76.3164 217.004 76.109 217.072 75.8832C217.142 75.6584 217.24 75.4739 217.366 75.3298C217.495 75.1835 217.642 75.0762 217.807 75.0079C217.976 74.9375 218.16 74.9036 218.36 74.9061C218.56 74.9057 218.768 74.9393 218.984 75.0071C219.233 75.0854 219.439 75.1886 219.603 75.3167C219.769 75.4457 219.891 75.5942 219.968 75.762C220.05 75.9278 220.088 76.1099 220.082 76.3084C220.077 76.5069 220.027 76.7132 219.933 76.9274L217.472 76.1543C217.419 76.4412 217.459 76.6792 217.593 76.8682C217.73 77.0582 217.948 77.2 218.246 77.2935C218.464 77.3622 218.668 77.3894 218.856 77.3751C219.045 77.3577 219.202 77.2885 219.327 77.1675L219.785 77.3167ZM218.874 75.3882C218.595 75.3004 218.342 75.2877 218.115 75.35C217.893 75.4103 217.721 75.5583 217.6 75.794L219.623 76.4297C219.657 76.3133 219.66 76.2009 219.634 76.0926C219.611 75.9852 219.565 75.8873 219.496 75.7989C219.428 75.7074 219.34 75.6264 219.232 75.5557C219.124 75.4851 219.005 75.4292 218.874 75.3882ZM221.633 78.7534C221.417 78.6887 221.224 78.5948 221.056 78.4718C220.891 78.3498 220.759 78.2051 220.662 78.0376L220.328 79.0993L219.906 78.9616L220.908 75.7718L221.332 75.9049L221.216 76.194C221.394 76.1063 221.587 76.0551 221.795 76.0404C222.006 76.0267 222.223 76.0546 222.444 76.1243C222.651 76.1892 222.834 76.2767 222.993 76.3867C223.153 76.4937 223.28 76.6204 223.374 76.7669C223.471 76.9142 223.53 77.0814 223.552 77.2683C223.577 77.4532 223.557 77.657 223.49 77.8797C223.418 78.1076 223.32 78.2936 223.194 78.4378C223.069 78.582 222.925 78.6887 222.763 78.758C222.601 78.8272 222.424 78.86 222.232 78.8563C222.039 78.8526 221.84 78.8183 221.633 78.7534ZM220.961 77.1003C220.912 77.2683 220.895 77.4182 220.91 77.5498C220.928 77.6824 220.972 77.7995 221.04 77.9011C221.111 78.0036 221.205 78.0916 221.323 78.1651C221.443 78.2395 221.58 78.3011 221.735 78.3498C221.887 78.3975 222.031 78.4242 222.166 78.4299C222.304 78.4366 222.428 78.4173 222.539 78.3721C222.653 78.3278 222.753 78.2556 222.838 78.1554C222.926 78.0562 222.997 77.9235 223.053 77.7574C223.102 77.5894 223.119 77.4395 223.104 77.3078C223.092 77.1741 223.054 77.0569 222.989 76.9563C222.925 76.8527 222.836 76.7646 222.722 76.6921C222.608 76.6195 222.475 76.5594 222.323 76.5117C222.168 76.463 222.019 76.4363 221.877 76.4318C221.739 76.4251 221.609 76.4445 221.488 76.4899C221.371 76.5332 221.267 76.6055 221.175 76.7068C221.087 76.806 221.016 76.9372 220.961 77.1003ZM225.561 77.6592L224.924 79.6871L224.496 79.5525L225.133 77.5247L223.989 77.1653L224.111 76.778L226.817 77.6284L226.696 78.0157L225.561 77.6592Z" fill="#A19994"/>
</g>
<defs>
<clipPath id="clip0_742_9581">
<rect width="360" height="158" fill="white"/>
</clipPath>
</defs>
</svg>
