<svg width="523" height="419" viewBox="0 0 523 419" fill="none" xmlns="http://www.w3.org/2000/svg">
<g clip-path="url(#clip0_742_9605)">
<path d="M466.142 126.752C449.727 123.085 433.13 120.322 416.458 118.465C399.786 116.609 383.35 115.684 366.825 115.672C351.974 115.659 336.7 116.035 323.065 120.964C310.871 125.379 300.335 134.473 297.636 146.344C296.991 149.162 296.793 152.127 297.202 155.04C297.612 157.954 298.84 161.362 301.956 163.153C303.432 163.999 305.212 164.231 306.771 163.71C308.62 163.1 309.632 161.703 310.248 160.09C311.149 157.737 311.418 155.328 313.458 153.501C314.199 152.837 315.147 152.265 316.248 152.187L313.997 150.997C316.009 153.855 314.114 157.498 314.518 160.548C315.003 164.278 317.495 168.263 322.179 168.48C322.984 168.518 323.997 168.102 324.317 167.428C326.4 163.048 328.399 158.628 330.559 154.277C330.844 153.696 331.17 152.801 331.794 152.449C332.185 152.22 332.302 152.334 332.628 152.615C334.071 153.859 333.648 155.857 333.481 157.377C333.248 159.61 333.225 161.77 334.547 163.853C335.7 165.658 337.803 167.124 340.145 167.154C345.354 167.233 347.31 161.329 348.711 157.869C349.969 154.779 352.025 150.188 356.593 150.486L353.958 148.166C354.243 151.305 354.537 154.447 354.822 157.587C355.062 160.186 354.8 163.468 356.461 165.825C358.219 168.328 361.589 168.789 364.276 167.661C366.785 166.606 368.146 164.626 369.233 162.443C369.991 160.932 370.79 158.757 373.014 158.755C375.449 158.754 378.257 160 380.417 161.018C385.449 163.401 389.667 166.873 393.279 170.785C396.891 174.698 399.773 179.12 402.399 183.585C403.865 186.075 405.37 188.539 407.326 190.781C409.39 193.134 411.925 195.039 414.62 196.782C425.702 203.966 438.078 210.355 451.139 213.742C464.835 217.289 479.351 217.444 492.672 214.226C495.763 213.483 494.294 209.085 491.191 209.834C479.976 212.547 467.888 212.769 456.221 210.335C443.53 207.694 431.903 201.939 421.015 195.408C418.447 193.865 415.844 192.331 413.582 190.434C411.321 188.538 409.739 186.396 408.283 184.065C405.472 179.579 402.938 175.046 399.507 170.857C396.075 166.669 392.162 162.89 387.487 159.815C385.157 158.289 382.669 157.035 380.034 156.011C377.553 155.046 374.739 154.095 372.065 154.273C368.883 154.492 366.777 156.367 365.44 158.77C364.493 160.471 363.851 163.003 361.581 163.686C361.223 163.795 360.95 163.824 360.828 163.727C360.585 163.533 360.506 163.197 360.443 162.921C360.08 161.52 360.115 160.02 359.981 158.596C359.66 155.16 359.351 151.718 359.03 148.283C358.916 147.021 357.831 146.057 356.396 145.963C351.693 145.657 347.933 148.601 345.874 151.988C344.678 153.947 343.972 156.129 343.072 158.204C342.651 159.175 342.173 160.122 341.585 161.002C341.248 161.505 340.692 162.505 339.963 162.617C338.78 162.802 338.357 160.293 338.373 159.491C338.408 157.242 339.097 155.009 338.276 152.755C337.535 150.716 335.781 148.667 333.38 148.03C330.772 147.337 328.459 148.416 327.056 150.237C325.528 152.209 324.706 154.74 323.654 156.95C322.379 159.629 321.103 162.316 319.838 164.998L321.975 163.946C321.128 163.906 320.511 163.214 320.063 162.244C319.443 160.894 319.467 159.512 319.597 158.131C319.898 154.98 320.38 151.786 318.305 148.846C317.845 148.196 316.941 147.586 316.054 147.656C312.719 147.89 310.197 149.385 308.332 151.741C307.482 152.811 306.882 154.012 306.379 155.248C305.916 156.412 305.843 157.818 305.24 158.916C305.081 159.189 304.894 159.333 304.685 159.481C304.801 159.401 305.143 159.742 304.568 159.441C304.866 159.594 304.241 159.243 304.402 159.351C303.319 158.656 302.721 157.303 302.455 156.214C301.846 153.803 301.918 151.147 302.336 148.777C304.28 137.78 313.748 129.503 324.776 125.288C337.113 120.578 351.3 120.229 364.825 120.176C380.617 120.114 396.469 120.892 412.276 122.501C429.959 124.302 447.563 127.175 464.958 131.056C468.154 131.767 469.341 127.454 466.125 126.738L466.142 126.752Z" fill="#A19994"/>
<path d="M404.99 384.701C393.425 372.252 383.063 358.956 374.015 345.028C364.967 331.1 357.228 316.558 350.952 301.58C347.819 294.093 345.041 286.505 342.631 278.849C342.024 276.901 341.44 274.95 340.877 272.996C340.341 271.141 339.971 269.219 339.268 267.394C338.523 265.447 337.168 263.763 334.942 262.987C332.88 262.272 330.47 262.65 328.745 263.664C324.726 266.002 324.282 271.012 323.333 274.915C322.774 277.22 322.215 279.524 321.649 281.817C321.389 282.896 321.119 283.972 320.86 285.05C320.734 285.554 320.618 286.06 320.493 286.564C320.361 287.093 320.026 287.782 320.049 288.325C320.061 288.633 320.099 288.375 320.456 288.229C320.886 288.047 320.818 288.455 320.602 288.12C320.418 287.821 319.781 287.318 319.545 286.821C318.9 285.483 318.949 283.775 318.872 282.375C318.69 279.05 318.905 275.71 318.354 272.38C317.803 269.049 316.445 265.495 313.462 263.055C310.091 260.289 305.449 260.185 302.64 263.178C299.83 266.171 299.148 270.026 298.025 273.596C296.617 278.063 295.218 282.532 293.813 286.99C293.124 289.186 292.433 291.39 291.735 293.584L295.953 292.705C293.491 290.218 293.588 286.569 293.539 283.576C293.479 279.839 293.209 276.213 291.139 272.748C289.068 269.282 285.43 267.075 281.231 267.486C277.534 267.846 274.927 270.365 273.378 273.156C271.485 276.559 270.796 280.402 269.876 284.119C269.302 286.438 268.727 288.766 268.153 291.085C267.944 291.936 267.817 292.875 267.441 293.682C267.41 293.757 267.16 294.172 267.165 294.154C266.752 295.174 266.945 294.263 266.997 294.304C266.935 294.26 267.57 294.299 267.519 294.332C267.378 294.424 266.909 293.179 266.857 292.943C266.627 292.031 266.632 291.07 266.572 290.156C266.434 287.805 266.454 285.459 266.609 283.122C266.749 281.039 267.38 278.782 266.219 276.77C265.057 274.759 262.724 273.833 260.397 274.177C256.052 274.819 253.614 278.632 251.835 281.806C249.89 285.279 248.556 289.043 247.845 292.927C246.42 300.786 247.309 309.019 249.94 316.836C255.428 333.123 268.411 346.791 281.907 358.716C296.694 371.781 312.528 384.3 330.176 394.145C332.339 395.349 334.523 396.513 336.741 397.63C339.658 399.099 342.097 395.285 339.18 393.816C321.719 385.002 306.25 373.404 291.698 361.077C278.419 349.839 265.116 337.668 257.629 322.665C254.152 315.706 252.213 308.147 252.222 300.708C252.231 293.269 254.077 285.891 258.841 280.327C259.289 279.807 259.848 279.344 260.478 279.012C260.727 278.874 260.981 278.757 261.257 278.673C261.28 278.67 261.885 278.544 261.694 278.585C262.018 278.523 261.917 278.7 261.854 278.619C261.674 278.386 261.821 279.369 261.811 279.524C261.79 280.62 261.604 281.699 261.522 282.788C261.365 284.977 261.331 287.18 261.432 289.391C261.524 291.323 261.556 293.358 262.425 295.2C263.293 297.041 265.1 298.78 267.534 298.742C269.969 298.704 271.459 297.11 272.224 295.258C272.989 293.406 273.308 291.362 273.777 289.432C274.332 287.182 274.887 284.933 275.442 282.683C276.201 279.599 276.837 276.463 278.861 273.909C280.211 272.204 282.62 271.086 284.895 272.699C287.51 274.541 288.274 278.178 288.358 280.885C288.477 284.286 288.23 287.784 289.423 291.127C290.036 292.855 291.028 294.396 292.394 295.767C293.76 297.139 296.135 296.419 296.612 294.889C297.992 290.489 299.379 286.1 300.759 281.699C302.065 277.53 303.169 273.25 304.737 269.169C305.14 268.11 305.793 266.867 306.638 266.092C307.41 265.39 308.195 265.034 309.441 265.791C312.112 267.426 313.05 270.693 313.361 273.302C313.748 276.496 313.543 279.682 313.772 282.871C314.001 286.06 314.624 290.141 318.352 292.057C320.305 293.058 322.6 292.871 323.966 291.383C325.404 289.822 325.536 287.219 326.012 285.262C327.093 280.829 328.145 276.388 329.258 271.954C329.627 270.47 330 268.504 331.452 267.557C332.405 266.931 333.565 266.869 334.151 267.914C334.995 269.415 335.224 271.309 335.671 272.908C336.208 274.8 336.764 276.698 337.345 278.583C339.652 286.073 342.307 293.489 345.317 300.805C351.376 315.568 358.812 329.974 367.522 343.784C376.229 357.603 386.235 370.804 397.367 383.25C398.708 384.754 400.073 386.245 401.45 387.731C402.353 388.702 404.152 388.625 405.039 387.852C406.064 386.958 405.85 385.633 404.948 384.662L404.99 384.701Z" fill="#A19994"/>
<path d="M201.313 290.444C215.903 293.349 230.827 294.297 245.586 293.183C246.852 293.085 247.922 292.23 247.898 290.947C247.873 289.811 246.775 288.603 245.503 288.691C231.161 289.776 216.656 288.939 202.482 286.117C201.232 285.869 199.954 286.445 199.623 287.672C199.324 288.777 200.065 290.187 201.315 290.435L201.313 290.444Z" fill="#A19994"/>
<path d="M350.467 294.393C361.59 293.559 372.676 292.526 383.707 291.281C393.129 290.211 403.087 289.084 409.619 282.924C415.971 276.938 418.347 268.487 419.881 260.466C421.622 251.305 422.032 241.893 421.7 232.473C421.314 221.854 420.018 211.207 418.693 200.587C418.551 199.449 417.515 198.452 416.14 198.405C414.885 198.364 413.667 199.286 413.806 200.431C416.049 218.53 418.393 236.931 415.851 254.763C414.743 262.563 413.149 270.956 408.179 277.454C405.89 280.446 402.749 282.705 398.912 284.143C395.074 285.581 390.38 286.224 386.004 286.745C374.15 288.166 362.223 289.293 350.245 290.192C348.944 290.285 347.848 290.982 347.911 292.219C347.96 293.246 349.154 294.491 350.465 294.401L350.467 294.393Z" fill="#A19994"/>
<path d="M377.103 280.445C381.705 264.442 378.452 247.278 373.778 230.887C369.104 214.497 364.242 198.18 353.585 183.801C347.998 176.265 340.859 169.476 332.135 164.476C330.759 163.688 329.077 164.367 328.705 165.559C321.051 189.626 313.396 213.693 305.74 237.767C303.564 244.606 301.389 251.445 299.213 258.284C298.43 260.741 303.063 261.964 303.844 259.514C311.498 235.448 319.153 211.381 326.809 187.307C328.985 180.468 331.16 173.629 333.336 166.79L329.906 167.874C345.043 176.548 354.325 190.686 360.223 204.786C363.502 212.636 365.998 220.666 368.367 228.688C370.736 236.71 372.803 244.635 373.863 252.689C375.049 261.671 374.941 270.666 372.482 279.217C371.773 281.694 376.403 282.925 377.112 280.448L377.103 280.445Z" fill="#A19994"/>
<path d="M298.342 267.359C298.779 251.129 296.639 234.714 292.035 218.718C289.765 210.821 286.99 202.948 283.231 195.424C279.473 187.9 274.678 181.701 268.348 175.938C262.017 170.174 254.516 164.626 250.109 157.272C248.532 154.641 244.219 156.772 245.785 159.4C249.732 165.993 255.931 171.185 261.887 176.377C264.807 178.931 267.704 181.533 270.27 184.381C273.013 187.433 275.27 190.837 277.203 194.303C281.171 201.402 283.891 209.048 286.233 216.603C288.575 224.158 290.445 232.207 291.623 240.111C292.963 249.139 293.507 258.216 293.271 267.242C293.188 270.136 298.272 270.247 298.342 267.359Z" fill="#A19994"/>
<path d="M292.541 146.728C274.699 146.606 256.838 146.479 239.065 147.432C230.874 147.87 222.44 148.208 214.459 149.831C210.817 150.576 207.199 151.71 204.027 153.491C200.855 155.272 198.059 157.809 195.798 160.661C191.399 166.206 188.704 173.033 186.509 179.601C184.383 185.987 182.955 192.568 182.159 199.253C180.527 212.921 181.555 226.85 184.788 240.464C188.022 254.077 193.456 267.209 200.743 279.485C201.658 281.022 202.599 282.538 203.57 284.053C205.176 286.548 209.291 284.426 207.686 281.922C200.207 270.287 194.5 257.793 190.824 244.819C187.157 231.883 185.556 218.521 186.41 205.329C186.826 198.862 187.885 192.465 189.563 186.216C191.242 179.966 193.505 173.625 196.736 167.888C198.375 164.971 200.331 162.211 202.907 159.935C205.482 157.658 208.469 156.156 211.775 155.14C218.938 152.953 226.826 152.634 234.362 152.141C251.57 151.019 268.89 151.002 286.187 151.107C288.354 151.118 290.51 151.136 292.678 151.147C295.764 151.165 295.648 146.743 292.544 146.72L292.541 146.728Z" fill="#A19994"/>
<path d="M212.48 283.6C223.176 268.013 232.748 251.342 237.523 233.124C241.865 216.574 241.641 199.127 236.324 182.461C233.513 173.631 229.339 165.112 223.956 157.297C222.385 155.019 218.557 157.015 220.134 159.303C229.379 172.712 234.892 188.175 235.975 203.844C237.202 221.592 232.366 238.838 224.599 254.623C220.013 263.946 214.503 272.819 208.593 281.423C207.077 283.641 210.961 285.791 212.473 283.589L212.48 283.6Z" fill="#A19994"/>
<path d="M237.69 155.458C243.539 164.297 247.593 173.862 249.756 183.766C250.022 184.975 251.71 185.702 252.924 185.441C254.342 185.133 254.878 183.933 254.611 182.724C252.375 172.467 248.071 162.493 242.011 153.339C240.303 150.765 235.992 152.887 237.688 155.467L237.69 155.458Z" fill="#A19994"/>
<path d="M259.835 198.383C255.582 221.059 251.319 243.732 247.066 266.408L243.437 285.715C243.211 286.904 243.921 288.157 245.323 288.53C246.588 288.866 248.15 288.217 248.376 287.027C252.63 264.351 256.893 241.677 261.146 219.001L264.774 199.695C265 198.506 264.291 197.253 262.888 196.88C261.624 196.544 260.061 197.193 259.835 198.383Z" fill="#A19994"/>
<path d="M8 36.0873C11.8343 36.0873 27.9384 43.8795 51.3839 43.8795C95.6766 43.8795 139.781 26.5141 185.484 26.5141C212.043 26.5141 288.341 21.1124 288.341 63.9166C277.4 152.652 180.954 118.34 140.613 134.105C100.273 149.87 95.2261 216.458 125.669 228.221C149.441 237.405 197.684 223.078 217.543 208.184" stroke="#A19994" stroke-width="2.7821" stroke-linecap="round"/>
<path d="M44.1398 22.6611C44.0154 23.7733 43.5573 24.6363 42.7655 25.2504C41.9727 25.8558 40.9099 26.2354 39.5772 26.389C38.7689 26.4822 38.0343 26.4579 37.3732 26.3163C36.7121 26.1747 36.1395 25.9314 35.6554 25.5864C35.1703 25.2329 34.7785 24.7814 34.4799 24.2321C34.1813 23.6827 33.9904 23.0469 33.9072 22.3247L33.8804 22.0925C33.7942 21.3444 33.8334 20.6647 33.9982 20.0532C34.163 19.4418 34.4418 18.913 34.8347 18.4669C35.2267 18.0122 35.7289 17.645 36.3414 17.3653C36.9529 17.077 37.6628 16.8863 38.471 16.7931C39.1589 16.7138 39.7902 16.7107 40.365 16.7839C40.9483 16.856 41.4627 17.0102 41.9082 17.2464C42.3612 17.473 42.7453 17.7815 43.0604 18.1721C43.3755 18.5627 43.6088 19.0368 43.7602 19.5944L42.3672 19.755C42.2426 19.4296 42.0612 19.1412 41.8232 18.8898C41.5927 18.6289 41.3156 18.4168 40.9918 18.2538C40.6757 18.0811 40.3139 17.966 39.9065 17.9084C39.5067 17.8412 39.0703 17.8349 38.5974 17.8894C37.9697 17.9618 37.4303 18.1198 36.9792 18.3635C36.5271 18.5985 36.1608 18.8978 35.8803 19.2612C35.5998 19.6246 35.4047 20.0479 35.2948 20.5311C35.1926 21.0046 35.1732 21.5165 35.2366 22.0669C35.2971 22.5914 35.4305 23.0683 35.6368 23.4975C35.8517 23.9258 36.1371 24.285 36.4929 24.5751C36.8487 24.8651 37.274 25.0775 37.7687 25.2121C38.2624 25.3382 38.8231 25.365 39.4508 25.2927C40.4052 25.1827 41.1712 24.9114 41.7486 24.4789C42.3337 24.0368 42.6751 23.4834 42.7727 22.8187L44.1398 22.6611ZM46.6375 22.4647L46.9586 25.2506L45.7592 25.3888L44.9712 18.5531L46.1706 18.4148L46.5111 21.3684L51.5025 20.793L51.1635 17.8523L52.3615 17.7011L53.1495 24.5369L51.963 24.6737L51.6418 21.8878L46.6375 22.4647ZM57.8628 14.1918L58.0338 15.675L56.4216 15.8609L56.2506 14.3776L57.8628 14.1918ZM60.9841 22.5621L61.106 23.6197L54.3089 24.4033L54.187 23.3457L57.6436 22.9472L57.0994 18.2266L54.636 18.5106L54.5126 17.4401L58.1884 17.0164L58.856 22.8074L60.9841 22.5621ZM63.0813 23.392L63.2552 24.9011L62.0557 25.0393L61.7599 22.4727L61.876 22.4593C62.1329 22.421 62.3457 22.3398 62.5144 22.2158C62.6821 22.0832 62.8122 21.8896 62.9049 21.635C62.9975 21.3803 63.0559 21.0556 63.0801 20.6607C63.1033 20.2573 63.1037 19.7693 63.0812 19.1969L62.964 16.4789L68.8969 15.795L69.563 21.5732L70.698 21.4423L70.981 24.0105L69.7815 24.1487L69.609 22.6526L63.0813 23.392ZM64.2896 19.4758C64.3308 20.6647 64.2184 21.5794 63.9525 22.2199L68.3635 21.7115L67.8193 16.9909L64.208 17.4072L64.2896 19.4758ZM77.4863 19.7973C77.562 20.5291 77.3981 21.11 76.9945 21.5399C76.5996 21.9687 75.9809 22.2318 75.1382 22.3289L74.6997 22.3794C73.857 22.4766 73.1817 22.3627 72.6738 22.0379C72.1649 21.7045 71.8567 21.1476 71.7493 20.3671C71.6611 19.6018 71.8327 19.0114 72.2639 18.5957C72.6942 18.1715 73.3307 17.9108 74.1734 17.8137L78.133 17.3572C78.0464 16.9838 77.9032 16.6867 77.7035 16.4657C77.5028 16.2362 77.2784 16.066 77.0304 15.9552C76.7814 15.8358 76.5163 15.7662 76.2352 15.7463C75.9617 15.7168 75.7089 15.7155 75.4767 15.7423L75.3478 15.7571C75.1156 15.7839 74.8768 15.8288 74.6314 15.892C74.386 15.9551 74.1527 16.0474 73.9315 16.1687C73.7092 16.2814 73.5124 16.4261 73.3411 16.6027C73.1698 16.7793 73.0512 16.9977 72.9854 17.2579L71.7214 17.4036C71.7257 17.0633 71.8109 16.7442 71.977 16.4463C72.1516 16.1473 72.3909 15.8802 72.6948 15.6447C73.0064 15.3997 73.3707 15.1965 73.7877 15.0352C74.2134 14.8729 74.6712 14.7634 75.1614 14.7069L75.2645 14.695C75.9352 14.6177 76.5159 14.6292 77.0067 14.7295C77.4974 14.8297 77.9116 15.0216 78.2493 15.305C78.5869 15.5885 78.8527 15.9673 79.0468 16.4416C79.2409 16.9158 79.3809 17.4878 79.4668 18.1575L79.8474 21.4593L78.6479 21.5976L78.2777 18.3861L76.9477 18.5263C77.2463 18.8491 77.4259 19.2728 77.4863 19.7973ZM72.9488 20.2288C73.005 20.6406 73.1616 20.9405 73.4185 21.1287C73.6744 21.3083 74.0604 21.3684 74.5763 21.3089L75.0148 21.2584C75.5135 21.2009 75.8671 21.0556 76.0754 20.8225C76.2838 20.5893 76.3723 20.2611 76.3409 19.8378C76.2752 19.4185 76.1191 19.1228 75.8727 18.9508C75.6264 18.7788 75.2452 18.7226 74.7293 18.782L74.2908 18.8326C73.7749 18.892 73.4123 19.034 73.2029 19.2586C72.9936 19.4831 72.9089 19.8065 72.9488 20.2288ZM82.6604 18.3121L82.9815 21.098L81.782 21.2363L80.9941 14.4005L82.1935 14.2622L82.534 17.2158L87.5254 16.6404L87.1864 13.6998L88.3844 13.5486L89.1724 20.3844L87.9858 20.5212L87.6647 17.7352L82.6604 18.3121ZM98.2469 15.9011C98.3107 16.5298 98.2666 17.0925 98.1148 17.5892C97.9705 18.0763 97.7314 18.496 97.3973 18.8481C97.0719 19.1993 96.6644 19.4815 96.175 19.6948C95.6941 19.907 95.1484 20.0484 94.5379 20.1187C93.9188 20.1901 93.351 20.1771 92.8345 20.0798C92.3189 19.9912 91.8627 19.8129 91.4659 19.5449C91.0777 19.276 90.7574 18.9165 90.5051 18.4664C90.2529 18.0163 90.0857 17.4736 90.0038 16.8383C89.9304 16.202 89.9654 15.636 90.1086 15.1403C90.2509 14.636 90.4805 14.2087 90.7973 13.8585C91.1218 13.4988 91.5244 13.2128 92.0053 13.0005C92.4938 12.7786 93.0433 12.6325 93.6538 12.5622C94.2729 12.4908 94.845 12.5033 95.3701 12.5995C95.8953 12.6958 96.3568 12.8822 96.7546 13.1588C97.16 13.4257 97.4893 13.7885 97.7426 14.2472C98.0045 14.7049 98.1726 15.2562 98.2469 15.9011ZM91.2261 16.6713C91.3503 17.5979 91.6828 18.2522 92.2235 18.6343C92.7717 19.0067 93.5016 19.1404 94.413 19.0353C95.3245 18.9303 96.0091 18.6335 96.4668 18.1451C96.9246 17.6567 97.108 16.9429 97.0172 16.0037C96.8919 15.0684 96.5466 14.4156 95.9811 14.0451C95.4147 13.6661 94.6757 13.5291 93.7643 13.6342C92.8528 13.7392 92.1773 14.0393 91.7378 14.5343C91.3058 15.0197 91.1353 15.732 91.2261 16.6713ZM100.76 16.2257L101.081 19.0116L99.8817 19.1499L99.0937 12.3141L100.293 12.1758L100.638 15.1681L103.579 14.8291L105.156 11.6153L106.561 11.4532L104.723 15.1154L107.801 18.237L106.331 18.4065L103.817 15.8733L100.76 16.2257Z" fill="#A19994"/>
<path d="M230.862 -0.559818L227.903 6.81397L226.722 6.34L230.107 -2.09407L238.18 1.14634L234.794 9.5804L233.614 9.10643L236.573 1.73265L230.862 -0.559818ZM244.58 11.396C244.321 11.693 244.022 11.9273 243.682 12.0989C243.343 12.2704 242.973 12.3785 242.573 12.423C242.181 12.4707 241.766 12.4582 241.329 12.3853C240.892 12.3125 240.452 12.1874 240.011 12.01C239.432 11.7779 238.935 11.4944 238.519 11.1596C238.1 10.8328 237.776 10.4555 237.547 10.0277C237.325 9.6031 237.207 9.13122 237.192 8.61205C237.184 8.09611 237.296 7.53933 237.526 6.9417C237.765 6.3473 238.069 5.8679 238.439 5.5035C238.821 5.13429 239.242 4.87442 239.704 4.7239C240.176 4.56857 240.683 4.51534 241.223 4.56421C241.766 4.60505 242.323 4.73993 242.893 4.96886C243.552 5.23325 244.089 5.55616 244.505 5.93759C244.929 6.32224 245.228 6.75013 245.402 7.22128C245.588 7.68761 245.653 8.18916 245.596 8.72592C245.539 9.26268 245.361 9.81134 245.061 10.3719L238.555 7.76025C238.35 8.52667 238.409 9.18009 238.733 9.72053C239.065 10.2642 239.625 10.694 240.412 11.01C240.99 11.2421 241.536 11.3585 242.049 11.3591C242.565 11.3517 243.004 11.1972 243.368 10.8954L244.58 11.396ZM242.516 5.97857C241.777 5.68194 241.094 5.59431 240.467 5.71571C239.851 5.83229 239.355 6.19734 238.978 6.81086L244.327 8.95824C244.442 8.64978 244.475 8.34605 244.427 8.04704C244.388 7.75125 244.283 7.47628 244.115 7.22213C243.95 6.95994 243.728 6.7218 243.45 6.50769C243.173 6.29359 242.861 6.11721 242.516 5.97857ZM249.286 15.6775C248.713 15.4566 248.211 15.1618 247.781 14.7932C247.358 14.4279 247.033 14.008 246.803 13.5336L245.677 16.3409L244.561 15.8791L247.946 7.445L249.067 7.89479L248.692 8.65377C249.192 8.45346 249.726 8.35527 250.293 8.35917C250.869 8.36629 251.45 8.48754 252.036 8.72292C252.582 8.94217 253.059 9.21759 253.467 9.54918C253.878 9.87274 254.196 10.2428 254.421 10.6594C254.653 11.0791 254.779 11.5446 254.797 12.0557C254.827 12.5621 254.729 13.11 254.501 13.6996C254.259 14.302 253.953 14.7855 253.583 15.1499C253.213 15.5143 252.801 15.7733 252.348 15.9271C251.895 16.0808 251.408 16.1325 250.887 16.082C250.366 16.0316 249.833 15.8967 249.286 15.6775ZM247.812 11.0564C247.643 11.5014 247.565 11.9039 247.579 12.264C247.601 12.6272 247.694 12.9536 247.857 13.2431C248.029 13.5359 248.266 13.7941 248.568 14.0179C248.878 14.2449 249.237 14.4406 249.647 14.605C250.049 14.7663 250.432 14.8688 250.797 14.9126C251.169 14.9597 251.511 14.9336 251.821 14.8343C252.14 14.7383 252.424 14.5634 252.675 14.3098C252.935 14.0593 253.157 13.7149 253.342 13.2763C253.511 12.8313 253.589 12.4288 253.575 12.0687C253.572 11.7039 253.493 11.3783 253.338 11.092C253.185 10.7977 252.962 10.5403 252.668 10.3197C252.374 10.0992 252.027 9.90827 251.625 9.74705C251.215 9.58262 250.819 9.47927 250.434 9.43701C250.062 9.38995 249.706 9.41524 249.369 9.51287C249.042 9.6057 248.744 9.77972 248.474 10.035C248.215 10.2854 247.994 10.6258 247.812 11.0564ZM262.618 18.6364C262.359 18.9335 262.059 19.1678 261.72 19.3393C261.381 19.5109 261.011 19.6189 260.611 19.6635C260.218 19.7112 259.804 19.6986 259.367 19.6258C258.93 19.5529 258.49 19.4278 258.048 19.2505C257.47 19.0184 256.973 18.7349 256.557 18.4001C256.138 18.0733 255.814 17.696 255.584 17.2682C255.363 16.8436 255.245 16.3717 255.229 15.8525C255.222 15.3366 255.333 14.7798 255.564 14.1822C255.803 13.5878 256.107 13.1084 256.477 12.744C256.858 12.3748 257.28 12.1149 257.741 11.9644C258.214 11.809 258.72 11.7558 259.26 11.8047C259.804 11.8455 260.36 11.9804 260.931 12.2093C261.589 12.4737 262.127 12.7966 262.542 13.1781C262.966 13.5627 263.266 13.9906 263.44 14.4617C263.626 14.9281 263.691 15.4296 263.634 15.9664C263.577 16.5031 263.398 17.0518 263.099 17.6124L256.593 15.0007C256.387 15.7671 256.447 16.4206 256.771 16.961C257.103 17.5047 257.663 17.9345 258.45 18.2505C259.028 18.4826 259.574 18.599 260.086 18.5996C260.602 18.5922 261.042 18.4376 261.406 18.1359L262.618 18.6364ZM260.553 13.219C259.814 12.9224 259.131 12.8348 258.504 12.9562C257.889 13.0728 257.392 13.4378 257.016 14.0513L262.365 16.1987C262.48 15.8903 262.513 15.5865 262.465 15.2875C262.425 14.9917 262.321 14.7168 262.153 14.4626C261.987 14.2004 261.766 13.9623 261.488 13.7482C261.21 13.5341 260.899 13.3577 260.553 13.219ZM267.324 22.9179C266.751 22.697 266.249 22.4023 265.818 22.0337C265.396 21.6683 265.07 21.2485 264.841 20.774L263.714 23.5814L262.599 23.1195L265.984 14.6855L267.105 15.1353L266.73 15.8942C267.23 15.6939 267.764 15.5957 268.331 15.5996C268.907 15.6068 269.487 15.728 270.074 15.9634C270.62 16.1826 271.097 16.4581 271.505 16.7897C271.916 17.1132 272.234 17.4833 272.458 17.8998C272.691 18.3196 272.816 18.7851 272.835 19.2962C272.865 19.8025 272.766 20.3505 272.539 20.9401C272.297 21.5425 271.991 22.0259 271.621 22.3903C271.251 22.7547 270.839 23.0138 270.386 23.1676C269.932 23.3213 269.445 23.3729 268.925 23.3225C268.404 23.272 267.87 23.1372 267.324 22.9179ZM265.85 18.2968C265.68 18.7419 265.603 19.1444 265.617 19.5044C265.639 19.8677 265.731 20.1941 265.895 20.4836C266.067 20.7763 266.303 21.0346 266.605 21.2584C266.915 21.4854 267.275 21.6811 267.685 21.8455C268.086 22.0067 268.47 22.1093 268.834 22.1531C269.207 22.2002 269.549 22.1741 269.859 22.0748C270.177 21.9787 270.462 21.8039 270.713 21.5502C270.972 21.2998 271.194 20.9553 271.38 20.5168C271.549 20.0718 271.627 19.6692 271.613 19.3092C271.61 18.9443 271.531 18.6188 271.375 18.3325C271.223 18.0382 271 17.7807 270.706 17.5602C270.412 17.3396 270.064 17.1487 269.663 16.9875C269.253 16.8231 268.856 16.7197 268.472 16.6775C268.099 16.6304 267.744 16.6557 267.406 16.7533C267.08 16.8462 266.782 17.0202 266.511 17.2754C266.252 17.5258 266.032 17.8663 265.85 18.2968ZM280.655 25.8769C280.396 26.1739 280.097 26.4082 279.758 26.5798C279.418 26.7514 279.049 26.8594 278.648 26.9039C278.256 26.9517 277.841 26.9391 277.404 26.8663C276.967 26.7934 276.528 26.6683 276.086 26.491C275.508 26.2588 275.011 25.9753 274.595 25.6405C274.176 25.3137 273.851 24.9364 273.622 24.5086C273.401 24.084 273.282 23.6122 273.267 23.093C273.26 22.5771 273.371 22.0203 273.602 21.4226C273.84 20.8282 274.145 20.3488 274.515 19.9844C274.896 19.6152 275.318 19.3554 275.779 19.2048C276.252 19.0495 276.758 18.9963 277.298 19.0452C277.841 19.086 278.398 19.2209 278.968 19.4498C279.627 19.7142 280.164 20.0371 280.58 20.4185C281.004 20.8032 281.303 21.2311 281.478 21.7022C281.664 22.1686 281.728 22.6701 281.671 23.2069C281.614 23.7436 281.436 24.2923 281.136 24.8529L274.63 22.2412C274.425 23.0076 274.485 23.661 274.809 24.2015C275.141 24.7451 275.7 25.175 276.487 25.4909C277.066 25.7231 277.611 25.8395 278.124 25.8401C278.64 25.8327 279.08 25.6781 279.443 25.3764L280.655 25.8769ZM278.591 20.4595C277.852 20.1629 277.169 20.0753 276.542 20.1967C275.926 20.3132 275.43 20.6783 275.053 21.2918L280.403 23.4392C280.517 23.1307 280.551 22.827 280.503 22.528C280.463 22.2322 280.359 21.9572 280.19 21.7031C280.025 21.4409 279.804 21.2027 279.526 20.9886C279.248 20.7745 278.936 20.5982 278.591 20.4595ZM283.624 26.159L282.579 28.7615L281.458 28.3117L284.022 21.9259L285.142 22.3757L284.02 25.171L286.767 26.2737L289.685 24.1991L290.998 24.7262L287.637 27.0704L288.856 31.2813L287.483 30.7299L286.479 27.3052L283.624 26.159ZM294.468 32.9184C293.895 33.4159 293.412 33.7722 293.018 33.9871C292.624 34.202 292.277 34.3237 291.976 34.3522C291.672 34.3888 291.388 34.3539 291.123 34.2475C290.854 34.1492 290.552 34.0323 290.214 33.8969L290.106 33.8533L290.517 32.8292C290.814 32.9485 291.066 33.0404 291.274 33.105C291.481 33.1695 291.678 33.1882 291.867 33.1611C292.063 33.1373 292.276 33.0596 292.506 32.928C292.736 32.7965 293.022 32.5944 293.365 32.3215L293.473 32.2252L292.702 31.9157L291.778 25.0531L293.043 25.561C293.186 26.6444 293.317 27.6299 293.437 28.5172C293.491 28.8934 293.541 29.2679 293.587 29.6409C293.637 30.0058 293.682 30.3458 293.724 30.6609C293.768 30.9679 293.803 31.2291 293.829 31.4445C293.857 31.6519 293.876 31.7902 293.886 31.8593L298.513 27.7567L299.754 28.2549L294.468 32.9184ZM305.656 35.5906C305.439 35.9697 305.164 36.2699 304.833 36.4913C304.513 36.7079 304.152 36.8521 303.75 36.9239C303.356 36.999 302.935 37.0025 302.487 36.9345C302.035 36.8744 301.572 36.7493 301.098 36.5591C300.52 36.3269 300.027 36.0451 299.619 35.7135C299.216 35.3931 298.908 35.0223 298.695 34.6009C298.481 34.1796 298.375 33.7125 298.376 33.1998C298.376 32.6871 298.492 32.1319 298.722 31.5343C298.961 30.9399 299.257 30.4573 299.611 30.0864C299.969 29.7075 300.366 29.438 300.803 29.2778C301.252 29.1128 301.738 29.0515 302.262 29.0939C302.789 29.1283 303.338 29.26 303.908 29.4889C304.382 29.6791 304.803 29.9087 305.171 30.1775C305.547 30.4496 305.855 30.7505 306.096 31.0803C306.336 31.4101 306.5 31.7695 306.586 32.1586C306.676 32.5396 306.668 32.9422 306.563 33.3664L305.358 32.8828C305.403 32.6305 305.389 32.387 305.316 32.1522C305.25 31.9207 305.133 31.7012 304.964 31.4936C304.804 31.2893 304.596 31.0986 304.341 30.9215C304.093 30.7476 303.813 30.5978 303.5 30.472C302.645 30.1383 301.919 30.0892 301.321 30.3247C300.722 30.5603 300.239 31.1126 299.872 31.9817C299.54 32.8556 299.512 33.5861 299.79 34.1731C300.075 34.7633 300.644 35.2293 301.495 35.5711C302.13 35.8258 302.71 35.9238 303.238 35.8649C303.765 35.8061 304.173 35.5551 304.463 35.1118L305.656 35.5906Z" fill="#A19994"/>
<path d="M230.574 112.202C230.481 111.368 230.53 110.631 230.72 109.991C230.91 109.36 231.216 108.821 231.636 108.373C232.057 107.926 232.58 107.576 233.205 107.323C233.829 107.062 234.528 106.888 235.302 106.802C236.076 106.715 236.797 106.735 237.464 106.861C238.132 106.996 238.721 107.235 239.229 107.579C239.739 107.931 240.156 108.39 240.48 108.954C240.805 109.528 241.013 110.214 241.102 111.014C241.193 111.832 241.144 112.56 240.954 113.2C240.765 113.848 240.461 114.404 240.043 114.869C239.624 115.334 239.104 115.705 238.482 115.984C237.86 116.262 237.161 116.444 236.387 116.531C235.613 116.617 234.891 116.589 234.222 116.446C233.553 116.303 232.963 116.051 232.453 115.689C231.942 115.328 231.524 114.857 231.198 114.275C230.871 113.693 230.664 113.002 230.574 112.202ZM239.757 111.138C239.691 110.545 239.542 110.03 239.31 109.594C239.071 109.168 238.767 108.819 238.397 108.547C238.019 108.284 237.58 108.098 237.08 107.988C236.573 107.888 236.022 107.871 235.429 107.937C234.835 108.004 234.306 108.141 233.842 108.35C233.369 108.559 232.981 108.833 232.679 109.172C232.37 109.52 232.149 109.927 232.019 110.395C231.88 110.872 231.845 111.411 231.912 112.014C231.978 112.607 232.132 113.126 232.373 113.569C232.606 114.022 232.913 114.393 233.294 114.681C233.667 114.979 234.108 115.187 234.617 115.304C235.119 115.431 235.667 115.462 236.261 115.395C236.854 115.329 237.386 115.183 237.858 114.956C238.321 114.739 238.707 114.447 239.014 114.082C239.314 113.726 239.532 113.302 239.669 112.807C239.797 112.314 239.826 111.758 239.757 111.138ZM221.135 111.779C221.08 111.21 221.132 110.699 221.29 110.246C221.44 109.794 221.679 109.402 222.008 109.069C222.338 108.745 222.748 108.481 223.239 108.278C223.722 108.076 224.269 107.941 224.879 107.873C225.456 107.809 226.005 107.817 226.528 107.898C227.041 107.972 227.499 108.13 227.9 108.372C228.303 108.623 228.637 108.961 228.902 109.384C229.159 109.817 229.323 110.347 229.393 110.975C229.438 111.38 229.483 111.784 229.528 112.188C229.564 112.593 229.578 112.984 229.567 113.359C229.549 113.745 229.494 114.112 229.403 114.462C229.303 114.813 229.138 115.132 228.909 115.419C228.672 115.715 228.356 115.972 227.963 116.19C227.561 116.418 227.059 116.596 226.455 116.724C225.366 116.959 224.517 117.158 223.909 117.322C223.292 117.495 222.975 117.583 222.958 117.585L222.852 116.512C222.969 116.473 223.154 116.418 223.408 116.346C223.628 116.286 223.937 116.213 224.337 116.125C224.728 116.037 225.242 115.928 225.881 115.796C226.656 115.639 227.25 115.382 227.663 115.022C228.067 114.663 228.304 114.21 228.373 113.663C228.031 113.953 227.622 114.186 227.145 114.361C226.66 114.546 226.125 114.671 225.54 114.736C224.93 114.804 224.367 114.797 223.853 114.715C223.34 114.642 222.895 114.483 222.519 114.237C222.136 114.001 221.826 113.679 221.588 113.27C221.352 112.869 221.201 112.372 221.135 111.779ZM228.158 111.035C228.048 110.202 227.727 109.624 227.194 109.3C226.654 108.986 225.928 108.88 225.016 108.981C224.113 109.082 223.428 109.341 222.96 109.759C222.485 110.187 222.286 110.823 222.363 111.668C222.466 112.51 222.777 113.072 223.296 113.354C223.816 113.644 224.528 113.739 225.431 113.638C225.878 113.588 226.283 113.504 226.644 113.385C226.996 113.267 227.292 113.104 227.53 112.894C227.768 112.685 227.943 112.426 228.057 112.117C228.163 111.818 228.197 111.457 228.158 111.035ZM216.496 118.985L216.33 117.501L217.943 117.321L218.109 118.805L216.496 118.985ZM213.405 110.603L213.287 109.545L220.087 108.787L220.205 109.845L216.747 110.23L217.274 114.953L219.738 114.678L219.858 115.749L216.181 116.159L215.534 110.366L213.405 110.603ZM211.311 109.766L211.143 108.256L212.343 108.122L212.629 110.69L212.513 110.703C212.256 110.74 212.043 110.821 211.874 110.944C211.706 111.076 211.575 111.269 211.481 111.523C211.388 111.778 211.328 112.102 211.302 112.497C211.278 112.9 211.275 113.388 211.296 113.961L211.403 116.679L205.468 117.341L204.823 111.561L203.687 111.687L203.414 109.118L204.614 108.984L204.781 110.481L211.311 109.766ZM210.088 113.678C210.052 112.488 210.167 111.574 210.436 110.935L206.023 111.427L206.55 116.149L210.162 115.746L210.088 113.678Z" fill="#A19994"/>
<path d="M97.6498 149.594C96.7275 149.396 96.1261 148.961 95.8455 148.289C95.5717 147.629 95.5549 146.74 95.7953 145.623L97.0654 139.721L105.95 141.633L104.757 147.179C104.649 147.678 104.519 148.12 104.365 148.503C104.219 148.896 104.03 149.219 103.799 149.47C103.576 149.723 103.309 149.896 102.997 149.988C102.691 150.09 102.323 150.095 101.891 150.002C101.434 149.904 101.079 149.726 100.825 149.467C100.579 149.211 100.4 148.911 100.288 148.568C100.002 149.029 99.6549 149.348 99.2449 149.526C98.8415 149.713 98.3098 149.736 97.6498 149.594ZM102.141 142.114L101.24 146.303C101.162 146.667 101.111 146.983 101.089 147.253C101.066 147.523 101.084 147.748 101.142 147.929C101.199 148.118 101.3 148.268 101.444 148.379C101.595 148.5 101.797 148.588 102.051 148.642C102.305 148.697 102.518 148.694 102.691 148.634C102.87 148.584 103.016 148.478 103.131 148.317C103.252 148.166 103.353 147.962 103.435 147.705C103.517 147.448 103.595 147.146 103.67 146.799L104.566 142.636L102.141 142.114ZM97.9147 141.205L96.9122 145.863C96.8194 146.295 96.7776 146.653 96.7871 146.938C96.8049 147.225 96.8661 147.456 96.9705 147.629C97.0816 147.812 97.229 147.95 97.4127 148.042C97.5945 148.144 97.8039 148.22 98.0409 148.271C98.2863 148.323 98.5075 148.344 98.7046 148.334C98.9017 148.323 99.0843 148.256 99.2525 148.133C99.4206 148.01 99.5686 147.816 99.6964 147.551C99.8223 147.295 99.9336 146.943 100.03 146.494L101.024 141.874L97.9147 141.205ZM94.955 158.846C94.6185 158.64 94.337 158.385 94.1106 158.08C93.8841 157.774 93.7152 157.428 93.6037 157.041C93.4904 156.662 93.4327 156.252 93.4307 155.808C93.4286 155.365 93.4777 154.911 93.5778 154.446C93.7089 153.836 93.9044 153.299 94.1641 152.832C94.4154 152.364 94.7325 151.981 95.1154 151.682C95.4965 151.392 95.9416 151.196 96.4507 151.093C96.958 150.999 97.5256 151.015 98.1536 151.141C98.7798 151.276 99.3037 151.495 99.7254 151.798C100.154 152.111 100.481 152.483 100.707 152.912C100.94 153.352 101.078 153.842 101.121 154.382C101.173 154.925 101.134 155.496 101.005 156.097C100.855 156.791 100.628 157.375 100.322 157.849C100.015 158.332 99.6435 158.699 99.2086 158.951C98.7804 159.213 98.297 159.361 97.7583 159.396C97.2196 159.43 96.6488 159.347 96.0456 159.147L97.5206 152.293C96.7305 152.22 96.0965 152.389 95.6186 152.8C95.1389 153.219 94.8098 153.843 94.6313 154.672C94.5002 155.282 94.4777 155.839 94.5637 156.344C94.6581 156.852 94.8848 157.259 95.2436 157.566L94.955 158.846ZM99.9458 155.896C100.113 155.117 100.084 154.429 99.8587 153.832C99.6398 153.245 99.1962 152.817 98.5278 152.549L97.315 158.185C97.6384 158.246 97.9434 158.227 98.23 158.129C98.5148 158.04 98.7683 157.891 98.9903 157.682C99.2208 157.475 99.4181 157.216 99.5822 156.907C99.7463 156.597 99.8675 156.26 99.9458 155.896ZM98.0467 167.868L91.317 166.433L91.571 165.252L93.8203 165.723L94.3993 163.032C94.5104 162.516 94.6553 162.069 94.834 161.692C95.0108 161.322 95.2459 161.032 95.5393 160.821C95.8327 160.609 96.197 160.48 96.6323 160.432C97.0658 160.392 97.5914 160.439 98.2091 160.572L99.5545 160.862L99.3005 162.042L97.9931 161.761C97.4854 161.651 97.0768 161.617 96.7672 161.656C96.4662 161.698 96.227 161.801 96.0497 161.967C95.8706 162.14 95.7374 162.369 95.6501 162.651C95.5628 162.933 95.4791 163.26 95.399 163.633L94.8992 165.955L98.3008 166.687L98.0467 167.868ZM91.1807 176.385C90.8441 176.179 90.5626 175.924 90.3362 175.619C90.1098 175.313 89.9408 174.967 89.8293 174.58C89.716 174.201 89.6583 173.791 89.6563 173.347C89.6543 172.904 89.7033 172.45 89.8035 171.985C89.9346 171.375 90.13 170.838 90.3897 170.371C90.641 169.903 90.9581 169.52 91.3411 169.221C91.7222 168.931 92.1673 168.735 92.6764 168.632C93.1836 168.538 93.7513 168.554 94.3792 168.68C95.0054 168.815 95.5293 169.034 95.951 169.337C96.3794 169.65 96.7067 170.022 96.933 170.451C97.166 170.891 97.304 171.381 97.347 171.921C97.3985 172.464 97.3597 173.035 97.2304 173.636C97.0811 174.33 96.8535 174.914 96.5479 175.388C96.2403 175.871 95.8691 176.238 95.4343 176.49C95.006 176.752 94.5226 176.9 93.9839 176.935C93.4453 176.969 92.8744 176.886 92.2712 176.686L93.7462 169.832C92.9562 169.759 92.3222 169.928 91.8443 170.339C91.3645 170.758 91.0354 171.382 90.8569 172.211C90.7258 172.821 90.7033 173.378 90.7893 173.883C90.8838 174.391 91.1104 174.798 91.4692 175.105L91.1807 176.385ZM96.1714 173.435C96.339 172.656 96.3099 171.968 96.0844 171.371C95.8654 170.784 95.4218 170.356 94.7534 170.088L93.5407 175.724C93.864 175.785 94.169 175.766 94.4557 175.668C94.7405 175.579 94.9939 175.43 95.2159 175.221C95.4464 175.014 95.6437 174.755 95.8078 174.446C95.9719 174.136 96.0931 173.799 96.1714 173.435ZM87.7558 181.747C87.8766 181.144 88.0823 180.6 88.3729 180.113C88.6617 179.635 89.0205 179.243 89.4494 178.937L86.492 178.301L86.7588 177.123L95.6435 179.035L95.3895 180.216L94.5782 179.975C94.8601 180.434 95.047 180.943 95.139 181.503C95.2292 182.071 95.2078 182.664 95.0749 183.282C94.9511 183.857 94.7602 184.374 94.5023 184.832C94.2528 185.292 93.9418 185.668 93.5691 185.959C93.1947 186.259 92.7571 186.462 92.2565 186.567C91.7625 186.682 91.2057 186.677 90.5862 186.552C89.9516 186.416 89.4234 186.196 89.0017 185.893C88.58 185.59 88.2551 185.227 88.027 184.807C87.7988 184.386 87.6657 183.914 87.6274 183.392C87.5892 182.871 87.632 182.322 87.7558 181.747ZM92.0613 179.513C91.5941 179.421 91.1843 179.412 90.8318 179.487C90.4774 179.57 90.1714 179.717 89.9137 179.927C89.6542 180.146 89.4396 180.423 89.2701 180.758C89.0987 181.102 88.9666 181.489 88.8737 181.921C88.7827 182.344 88.7464 182.739 88.7648 183.106C88.7814 183.481 88.8648 183.814 89.0151 184.103C89.1635 184.4 89.384 184.651 89.6764 184.856C89.967 185.069 90.344 185.23 90.8076 185.338C91.2748 185.43 91.6847 185.439 92.0372 185.364C92.3963 185.3 92.7038 185.167 92.9597 184.965C93.2241 184.765 93.4401 184.502 93.6079 184.175C93.7756 183.848 93.905 183.473 93.996 183.05C94.0889 182.618 94.1237 182.21 94.1005 181.824C94.0839 181.449 93.9989 181.103 93.8457 180.786C93.699 180.48 93.4771 180.216 93.1799 179.992C92.8893 179.779 92.5164 179.619 92.0613 179.513ZM88.7753 190.277L86.6581 188.082L86.9695 186.635L89.1573 189.058C89.3722 188.635 89.6678 188.331 90.044 188.146C90.4286 187.964 90.9053 187.929 91.4741 188.043C91.8379 188.121 92.1392 188.243 92.3778 188.41C92.6231 188.586 92.8127 188.795 92.9467 189.037C93.0789 189.287 93.1563 189.564 93.179 189.87C93.2017 190.176 93.1758 190.503 93.1011 190.85L92.1041 195.482L85.3771 194.035L85.6311 192.854L88.1062 193.387L88.7753 190.277ZM91.2046 189.233C90.8408 189.155 90.5491 189.194 90.3295 189.35C90.1081 189.515 89.9573 189.783 89.8772 190.156L89.1342 193.608L91.3174 194.078L92.0603 190.626C92.1386 190.262 92.1108 189.959 91.9768 189.718C91.8428 189.476 91.5854 189.315 91.2046 189.233Z" fill="#A19994"/>
<path d="M122.816 250.505L122.959 252.291L121.691 252.393L121.456 249.468L121.715 249.447C122.153 249.386 122.501 249.176 122.759 248.816C123.024 248.448 123.227 248.001 123.368 247.478C123.507 246.946 123.6 246.37 123.646 245.749C123.691 245.121 123.707 244.516 123.695 243.935C123.692 243.353 123.672 242.83 123.635 242.364C123.605 241.889 123.59 241.542 123.59 241.325L130.786 240.748L131.421 248.668L132.702 248.565L132.937 251.49L131.669 251.592L131.526 249.806L122.816 250.505ZM124.911 242.366C124.927 242.885 124.942 243.457 124.958 244.081C124.972 244.696 124.953 245.319 124.899 245.948C124.845 246.569 124.745 247.168 124.6 247.744C124.464 248.319 124.249 248.827 123.954 249.267L130.153 248.77L129.609 241.989L124.911 242.366ZM141.987 247C141.887 247.381 141.723 247.725 141.496 248.029C141.269 248.334 140.986 248.596 140.647 248.814C140.317 249.031 139.941 249.205 139.517 249.334C139.093 249.464 138.644 249.548 138.169 249.586C137.548 249.636 136.977 249.603 136.455 249.489C135.935 249.383 135.476 249.19 135.08 248.909C134.693 248.627 134.377 248.257 134.132 247.8C133.895 247.341 133.747 246.793 133.687 246.155C133.636 245.517 133.695 244.952 133.864 244.461C134.041 243.96 134.302 243.54 134.648 243.199C135.002 242.85 135.432 242.577 135.937 242.38C136.442 242.174 137 242.047 137.613 241.998C138.32 241.941 138.945 241.991 139.487 242.147C140.038 242.302 140.497 242.552 140.863 242.896C141.237 243.231 141.518 243.651 141.706 244.157C141.895 244.663 141.98 245.234 141.961 245.869L134.973 246.43C135.13 247.207 135.475 247.766 136.006 248.105C136.545 248.444 137.238 248.579 138.083 248.512C138.704 248.462 139.245 248.323 139.704 248.095C140.163 247.858 140.487 247.524 140.679 247.092L141.987 247ZM137.725 243.07C136.931 243.134 136.281 243.359 135.773 243.747C135.274 244.126 134.992 244.674 134.928 245.391L140.674 244.93C140.639 244.603 140.534 244.316 140.358 244.07C140.19 243.823 139.975 243.623 139.711 243.471C139.446 243.309 139.142 243.195 138.797 243.127C138.453 243.059 138.096 243.04 137.725 243.07ZM150.624 246.008C150.598 246.444 150.486 246.835 150.288 247.181C150.098 247.517 149.839 247.807 149.511 248.051C149.192 248.293 148.817 248.484 148.385 248.623C147.954 248.77 147.484 248.864 146.975 248.905C146.354 248.955 145.787 248.922 145.274 248.807C144.77 248.7 144.329 248.505 143.951 248.223C143.572 247.941 143.269 247.57 143.041 247.111C142.813 246.652 142.669 246.103 142.609 245.465C142.558 244.827 142.608 244.263 142.76 243.773C142.911 243.275 143.147 242.856 143.467 242.518C143.795 242.17 144.203 241.899 144.691 241.703C145.178 241.499 145.728 241.373 146.341 241.324C146.85 241.283 147.329 241.301 147.778 241.378C148.235 241.454 148.645 241.586 149.008 241.774C149.37 241.962 149.677 242.211 149.927 242.521C150.177 242.822 150.35 243.186 150.445 243.612L149.151 243.716C149.079 243.47 148.958 243.258 148.787 243.081C148.625 242.903 148.423 242.759 148.179 242.648C147.945 242.536 147.673 242.458 147.366 242.414C147.067 242.368 146.749 242.359 146.413 242.386C145.499 242.468 144.827 242.748 144.396 243.225C143.966 243.702 143.78 244.412 143.838 245.354C143.93 246.284 144.231 246.95 144.74 247.352C145.259 247.753 145.975 247.917 146.89 247.844C147.572 247.789 148.135 247.618 148.581 247.331C149.027 247.043 149.281 246.636 149.343 246.11L150.624 246.008ZM160.464 245.518C160.364 245.899 160.201 246.242 159.973 246.547C159.746 246.852 159.463 247.113 159.124 247.331C158.795 247.549 158.418 247.722 157.994 247.852C157.57 247.981 157.121 248.065 156.646 248.103C156.025 248.153 155.454 248.121 154.932 248.006C154.412 247.901 153.953 247.707 153.557 247.426C153.17 247.145 152.854 246.775 152.609 246.317C152.372 245.859 152.224 245.31 152.164 244.673C152.113 244.034 152.172 243.469 152.341 242.978C152.518 242.478 152.779 242.057 153.125 241.717C153.479 241.367 153.909 241.094 154.414 240.897C154.919 240.692 155.477 240.565 156.09 240.515C156.797 240.459 157.422 240.508 157.964 240.665C158.515 240.82 158.974 241.07 159.34 241.414C159.714 241.749 159.995 242.169 160.184 242.675C160.372 243.181 160.457 243.751 160.438 244.387L153.45 244.947C153.608 245.725 153.952 246.283 154.483 246.623C155.022 246.961 155.715 247.097 156.56 247.029C157.182 246.979 157.722 246.84 158.181 246.613C158.64 246.376 158.964 246.042 159.156 245.61L160.464 245.518ZM156.202 241.587C155.408 241.651 154.758 241.877 154.25 242.265C153.751 242.644 153.469 243.192 153.405 243.909L159.151 243.448C159.117 243.121 159.011 242.834 158.835 242.588C158.668 242.34 158.452 242.141 158.188 241.988C157.923 241.827 157.619 241.713 157.275 241.645C156.93 241.577 156.573 241.558 156.202 241.587ZM166.585 247.254C165.973 247.312 165.392 247.271 164.843 247.133C164.302 246.994 163.823 246.763 163.407 246.441L163.649 249.456L162.444 249.54L161.717 240.481L162.921 240.384L162.923 241.231C163.282 240.828 163.716 240.503 164.226 240.253C164.744 240.003 165.318 239.853 165.948 239.803C166.535 239.756 167.084 239.79 167.597 239.905C168.109 240.011 168.559 240.201 168.945 240.474C169.341 240.746 169.66 241.107 169.905 241.556C170.157 241.996 170.313 242.531 170.372 243.16C170.424 243.807 170.366 244.376 170.197 244.867C170.028 245.358 169.774 245.774 169.437 246.113C169.099 246.453 168.686 246.716 168.198 246.903C167.709 247.09 167.171 247.207 166.585 247.254ZM163.206 243.774C163.252 244.248 163.362 244.643 163.535 244.959C163.717 245.274 163.945 245.525 164.221 245.711C164.505 245.897 164.832 246.023 165.202 246.088C165.58 246.153 165.99 246.168 166.43 246.133C166.861 246.099 167.25 246.02 167.596 245.896C167.951 245.772 168.245 245.597 168.479 245.37C168.721 245.142 168.898 244.858 169.009 244.519C169.13 244.18 169.175 243.772 169.146 243.297C169.099 242.823 168.989 242.428 168.816 242.112C168.651 241.787 168.435 241.531 168.169 241.344C167.901 241.148 167.587 241.017 167.225 240.951C166.864 240.884 166.468 240.868 166.036 240.903C165.596 240.938 165.195 241.022 164.832 241.156C164.477 241.28 164.171 241.46 163.912 241.698C163.661 241.927 163.471 242.216 163.343 242.564C163.223 242.904 163.177 243.307 163.206 243.774ZM175.366 240.493L175.828 246.252L174.611 246.349L174.149 240.59L170.901 240.851L170.813 239.751L178.5 239.134L178.588 240.234L175.366 240.493Z" fill="#A19994"/>
</g>
<defs>
<clipPath id="clip0_742_9605">
<rect width="523" height="419" fill="white"/>
</clipPath>
</defs>
</svg>
